<svg width="24" height="25" viewBox="0 0 24 25" fill="none" xmlns="http://www.w3.org/2000/svg">
<path d="M14 3.70215V7.70215C14 7.96736 14.1054 8.22172 14.2929 8.40926C14.4804 8.59679 14.7348 8.70215 15 8.70215H19" stroke="white" stroke-width="1.6" stroke-linecap="round" stroke-linejoin="round"/>
<path d="M9 7.70215H10M9 13.7021H15M13 17.7021H15M17 21.7021H7C6.46957 21.7021 5.96086 21.4914 5.58579 21.1164C5.21071 20.7413 5 20.2326 5 19.7021V5.70215C5 5.17172 5.21071 4.66301 5.58579 4.28793C5.96086 3.91286 6.46957 3.70215 7 3.70215H14L19 8.70215V19.7021C19 20.2326 18.7893 20.7413 18.4142 21.1164C18.0391 21.4914 17.5304 21.7021 17 21.7021Z" stroke="white" stroke-width="1.6" stroke-linecap="round" stroke-linejoin="round"/>
</svg>
