<svg width="56" height="56" viewBox="0 0 56 56" fill="none" xmlns="http://www.w3.org/2000/svg">
<rect width="56" height="56" rx="28" fill="#F3F4F6"/>
<path d="M17.3571 37.515C17.3808 35.7182 18.111 34.003 19.3897 32.7405C20.6683 31.478 22.3926 30.7696 24.1896 30.7687H32.4001C34.197 30.7696 35.9214 31.478 37.2 32.7405C38.4787 34.003 39.2089 35.7182 39.2326 37.515C36.2315 40.2195 32.3348 41.7162 28.2948 41.7162C24.2549 41.7162 20.3582 40.2195 17.3571 37.515ZM34.4527 20.5056C34.4527 21.7235 34.0916 22.914 33.4149 23.9267C32.7383 24.9394 31.7766 25.7286 30.6514 26.1947C29.5262 26.6608 28.288 26.7827 27.0935 26.5451C25.899 26.3075 24.8018 25.721 23.9406 24.8598C23.0794 23.9986 22.4929 22.9014 22.2553 21.7069C22.0177 20.5124 22.1396 19.2742 22.6057 18.149C23.0718 17.0238 23.861 16.0621 24.8737 15.3854C25.8864 14.7088 27.0769 14.3477 28.2948 14.3477C29.928 14.3477 31.4943 14.9964 32.6491 16.1513C33.804 17.3061 34.4527 18.8724 34.4527 20.5056Z" fill="#9CA3AF"/>
</svg>
