<svg width="24" height="25" viewBox="0 0 24 25" fill="none" xmlns="http://www.w3.org/2000/svg">
<path d="M11 12.7021C11 12.9674 11.1054 13.2217 11.2929 13.4093C11.4804 13.5968 11.7348 13.7021 12 13.7021C12.2652 13.7021 12.5196 13.5968 12.7071 13.4093C12.8946 13.2217 13 12.9674 13 12.7021C13 12.4369 12.8946 12.1826 12.7071 11.995C12.5196 11.8075 12.2652 11.7021 12 11.7021C11.7348 11.7021 11.4804 11.8075 11.2929 11.995C11.1054 12.1826 11 12.4369 11 12.7021Z" stroke="white" stroke-width="1.6" stroke-linecap="round" stroke-linejoin="round"/>
<path d="M16.9241 11.8342C16.7524 10.8603 16.2958 9.95919 15.612 9.24479C14.9282 8.5304 14.0479 8.03482 13.0825 7.82073C12.117 7.60664 11.1097 7.68365 10.188 8.04202C9.26635 8.40039 8.47163 9.02403 7.90437 9.83408C7.33712 10.6441 7.02281 11.6042 7.00119 12.5929C6.97958 13.5815 7.25163 14.5544 7.78294 15.3885C8.31425 16.2225 9.08096 16.8803 9.98611 17.2786C10.8913 17.677 11.8942 17.7979 12.8681 17.6262" stroke="white" stroke-width="1.6" stroke-linecap="round" stroke-linejoin="round"/>
<path d="M3 12.7021C3 14.4822 3.52784 16.2222 4.51677 17.7023C5.50571 19.1823 6.91131 20.3359 8.55585 21.0171C10.2004 21.6983 12.01 21.8765 13.7558 21.5292C15.5016 21.1819 17.1053 20.3248 18.364 19.0661C19.6226 17.8074 20.4798 16.2038 20.8271 14.458C21.1743 12.7121 20.9961 10.9025 20.3149 9.258C19.6337 7.61346 18.4802 6.20785 17.0001 5.21892C15.5201 4.22999 13.78 3.70215 12 3.70215" stroke="white" stroke-width="1.6" stroke-linecap="round" stroke-linejoin="round"/>
</svg>
