<svg width="180" height="181" viewBox="0 0 180 181" fill="none" xmlns="http://www.w3.org/2000/svg">
<ellipse opacity="0.1" cx="90" cy="175.1" rx="90" ry="5.4" fill="#6B7280"/>
<path fill-rule="evenodd" clip-rule="evenodd" d="M46.5258 24.1927C47.2713 24.2023 47.8679 24.8144 47.8584 25.56C47.8488 26.3055 47.2367 26.9021 46.4912 26.8925L46.0412 26.8867C36.1009 26.7592 27.9393 34.714 27.8117 44.6543L27.7586 48.7939C27.7496 49.4898 27.1783 50.0466 26.4825 50.0377C25.7867 50.0287 25.2299 49.4574 25.2388 48.7616L25.2919 44.6219C25.4452 32.6744 34.1666 24.0341 46.0758 24.187L46.5258 24.1927ZM51.4581 25.6061C51.4932 22.8726 49.3056 20.6281 46.572 20.593L46.122 20.5873C32.1865 20.4084 21.8705 30.6785 21.6922 44.5758L21.6391 48.7154C21.6046 51.3993 23.7524 53.6029 26.4363 53.6374C29.1202 53.6718 31.3238 51.524 31.3583 48.8401L31.4114 44.7005C31.5135 36.7482 38.0428 30.3844 45.995 30.4864L46.445 30.4922C49.1785 30.5273 51.423 28.3397 51.4581 25.6061ZM42.9407 120.576L42.9411 120.578L42.9416 120.583C42.9407 120.578 42.9406 120.576 42.9407 120.576ZM42.9436 120.591C42.9582 120.541 43.0808 120.157 44.076 119.522C45.1168 118.858 46.7358 118.173 48.9272 117.522C50.1654 117.918 51.5021 118.288 52.9215 118.63C60.6343 120.487 71.1967 121.617 82.7988 121.617C90.735 121.617 98.1757 121.088 104.547 120.163C104.45 121.062 104.4 121.976 104.4 122.901C104.4 123.953 104.465 124.99 104.59 126.008C98.2883 126.808 90.8191 127.274 82.7988 127.274C71.3786 127.274 61.0904 126.33 53.7021 124.825C49.9931 124.069 47.1093 123.191 45.1964 122.27C44.2358 121.807 43.6147 121.378 43.2579 121.023C43.0124 120.778 42.9555 120.636 42.9436 120.591ZM122.656 98.6704C114.169 101.098 107.513 107.865 105.242 116.417C98.8128 117.426 91.1025 118.017 82.7988 118.017C71.3944 118.017 61.1282 116.903 53.7641 115.13C50.0679 114.24 47.203 113.208 45.3057 112.128C43.2679 110.968 42.9417 110.11 42.9417 109.788V88.1317C43.1662 88.2532 43.3974 88.3708 43.6343 88.4849C45.9373 89.594 49.154 90.5441 52.9835 91.3242C60.6721 92.8904 71.2124 93.8459 82.7988 93.8459C94.3852 93.8459 104.926 92.8904 112.614 91.3242C116.444 90.5441 119.66 89.594 121.963 88.4849C122.2 88.3708 122.432 88.2532 122.656 88.1317V98.6704ZM126.256 83.5601V97.9214C127.35 97.7764 128.466 97.7015 129.6 97.7015C143.518 97.7015 154.8 108.984 154.8 122.901C154.8 136.819 143.518 148.101 129.6 148.101C128.422 148.101 127.264 148.021 126.129 147.864C125.656 149.782 123.927 151.229 122.073 152.285C119.754 153.604 116.518 154.733 112.676 155.658C104.963 157.515 94.401 158.645 82.7988 158.645C71.1967 158.645 60.6343 157.515 52.9215 155.658C49.0793 154.733 45.8436 153.604 43.5249 152.285C41.3469 151.045 39.3417 149.264 39.3417 146.817V120.588V120.588C39.3417 118.711 40.7491 117.374 42.1397 116.487C42.6797 116.143 43.2945 115.815 43.9746 115.504C43.8211 115.422 43.6712 115.34 43.5249 115.256C41.3469 114.017 39.3417 112.236 39.3417 109.788V83.5601V83.5599C39.3418 81.7214 40.6942 80.4018 42.0423 79.5218C42.6069 79.1533 43.2559 78.8045 43.9775 78.4744C43.8236 78.3924 43.6733 78.3098 43.5267 78.2263C41.3486 76.9866 39.3435 75.2058 39.3435 72.7584V46.5298C39.3435 46.1861 39.4398 45.8648 39.607 45.5916C40.0227 40.5561 59.2017 36.5015 82.8001 36.5015C106.396 36.5015 125.573 40.555 125.993 45.5897C126.161 45.8633 126.258 46.1852 126.258 46.5298V72.7584C126.258 75.2058 124.253 76.9866 122.075 78.2263C121.927 78.3101 121.776 78.393 121.622 78.4753C122.186 78.7333 122.704 79.0017 123.17 79.281C124.686 80.1889 126.256 81.5742 126.256 83.5599V83.5601ZM105.286 129.548C107.591 138.002 114.188 144.685 122.59 147.114C122.422 147.541 121.87 148.258 120.292 149.156C118.395 150.236 115.53 151.268 111.834 152.158C104.469 153.931 94.2033 155.045 82.7988 155.045C71.3944 155.045 61.1282 153.931 53.7641 152.158C50.0679 151.268 47.203 150.236 45.3057 149.156C43.2679 147.996 42.9417 147.139 42.9417 146.817V125.16C43.1662 125.281 43.3974 125.399 43.6343 125.513C45.9373 126.622 49.154 127.572 52.9835 128.352C60.6721 129.919 71.2124 130.874 82.7988 130.874C91.0479 130.874 98.7592 130.39 105.286 129.548ZM42.9435 49.3357V72.7584C42.9435 73.0802 43.2696 73.9377 45.3075 75.0976C47.2047 76.1774 50.0696 77.2098 53.7659 78.0996C61.13 79.8725 71.3962 80.9869 82.8006 80.9869C94.205 80.9869 104.471 79.8725 111.835 78.0996C113.61 77.6725 115.192 77.2125 116.568 76.7302L116.57 76.7237L116.58 76.7263C118.065 76.205 119.31 75.6577 120.294 75.0976C122.332 73.9377 122.658 73.0802 122.658 72.7584V49.3352C116.129 52.6719 100.742 55.0158 82.8001 55.0158C64.8591 55.0158 49.4724 52.6722 42.9435 49.3357ZM121.321 82.3698C120.266 81.7382 118.709 81.0994 116.668 80.493C115.431 80.8892 114.096 81.2583 112.678 81.5996C104.965 83.4564 94.4028 84.5869 82.8006 84.5869C71.1984 84.5869 60.6361 83.4564 52.9233 81.5996C51.4518 81.2454 50.0693 80.8613 48.7933 80.448L48.8169 80.5267C46.6278 81.1841 45.026 81.8733 44.0101 82.5364C43.0768 83.1456 42.9581 83.5118 42.9436 83.5633C42.9555 83.6079 43.0123 83.7501 43.2579 83.9946C43.6147 84.3498 44.2358 84.7788 45.1964 85.2414C47.1093 86.1628 49.9931 87.0411 53.7021 87.7967C61.0904 89.3017 71.3786 90.2458 82.7988 90.2458C94.219 90.2458 104.507 89.3017 111.896 87.7967C115.605 87.0411 118.488 86.1628 120.401 85.2414C121.362 84.7788 121.983 84.3498 122.34 83.9946C122.585 83.7501 122.642 83.6079 122.654 83.5633L122.654 83.5627C122.638 83.5124 122.501 83.0764 121.321 82.3698ZM122.657 83.548C122.657 83.548 122.657 83.5503 122.656 83.555C122.656 83.5503 122.657 83.548 122.657 83.548ZM42.9416 83.555C42.9407 83.5503 42.9406 83.548 42.9407 83.548C42.9409 83.548 42.9414 83.5503 42.9416 83.555ZM129.6 101.301C117.671 101.301 108 110.972 108 122.901C108 134.831 117.671 144.501 129.6 144.501C141.529 144.501 151.2 134.831 151.2 122.901C151.2 110.972 141.529 101.301 129.6 101.301ZM129.6 131.001C130.843 131.001 131.85 129.994 131.85 128.751C131.85 127.509 130.843 126.501 129.6 126.501C128.357 126.501 127.35 127.509 127.35 128.751C127.35 129.994 128.357 131.001 129.6 131.001ZM129.6 115.701C126.521 115.701 123.781 117.147 122.019 119.403C121.407 120.186 120.276 120.325 119.492 119.713C118.709 119.101 118.57 117.97 119.182 117.187C121.597 114.095 125.366 112.101 129.6 112.101C133.834 112.101 137.603 114.095 140.019 117.187C140.631 117.97 140.492 119.101 139.708 119.713C138.925 120.325 137.794 120.186 137.182 119.403C135.419 117.147 132.679 115.701 129.6 115.701ZM124.719 125.285C125.855 123.831 127.618 122.901 129.6 122.901C131.582 122.901 133.346 123.831 134.482 125.285C135.094 126.068 136.225 126.207 137.008 125.595C137.792 124.983 137.931 123.852 137.319 123.069C135.53 120.779 132.737 119.301 129.6 119.301C126.463 119.301 123.67 120.779 121.882 123.069C121.27 123.852 121.409 124.983 122.192 125.595C122.976 126.207 124.107 126.068 124.719 125.285Z" fill="#6B7280"/>
</svg>
