<svg width="12" height="13" viewBox="0 0 12 13" fill="none" xmlns="http://www.w3.org/2000/svg">
<path d="M6 9.39162C5.52532 9.39162 5.06131 9.24081 4.66663 8.95825C4.27195 8.6757 3.96434 8.2741 3.78269 7.80423C3.60104 7.33437 3.55351 6.81734 3.64612 6.31853C3.73872 5.81972 3.9673 5.36154 4.30294 5.00192C4.63859 4.64229 5.06623 4.39739 5.53178 4.29817C5.99734 4.19895 6.4799 4.24987 6.91844 4.4445C7.35698 4.63913 7.73181 4.96871 7.99553 5.39158C8.25924 5.81445 8.4 6.31161 8.4 6.82019C8.4 7.50218 8.14714 8.15623 7.69706 8.63846C7.24697 9.1207 6.63652 9.39162 6 9.39162ZM6 5.53448C5.76266 5.53448 5.53065 5.60988 5.33332 5.75116C5.13598 5.89243 4.98217 6.09324 4.89134 6.32817C4.80052 6.5631 4.77676 6.82162 4.82306 7.07102C4.86936 7.32043 4.98365 7.54952 5.15147 7.72933C5.3193 7.90914 5.53311 8.03159 5.76589 8.0812C5.99867 8.13081 6.23995 8.10535 6.45922 8.00804C6.67849 7.91072 6.86591 7.74593 6.99776 7.53449C7.12962 7.32306 7.2 7.07448 7.2 6.82019C7.2 6.4792 7.07357 6.15217 6.84853 5.91105C6.62348 5.66994 6.31826 5.53448 6 5.53448Z" fill="#6B7280"/>
<path d="M6 11.3202C2.1276 11.3202 0 7.94005 0 6.82019C0 5.75048 2.7672 2.32019 6 2.32019C9.2328 2.32019 12 5.75048 12 6.82019C12 7.94005 9.8724 11.3202 6 11.3202ZM1.2078 6.83819C1.63468 7.80865 2.31394 8.62647 3.16401 9.19345C4.01408 9.76042 4.99882 10.0525 6 10.0345C7.00118 10.0525 7.98592 9.76042 8.83599 9.19345C9.68606 8.62647 10.3653 7.80865 10.7922 6.83819C10.5744 6.21462 8.553 3.6059 6 3.6059C3.447 3.6059 1.4256 6.21462 1.2078 6.83819Z" fill="#6B7280"/>
</svg>
