<svg width="10" height="10" viewBox="0 0 10 10" fill="none" xmlns="http://www.w3.org/2000/svg">
<path d="M5 0C4.0111 0 3.0444 0.293245 2.22215 0.842652C1.39991 1.39206 0.759043 2.17295 0.380605 3.08658C0.00216642 4.00021 -0.0968502 5.00554 0.0960758 5.97545C0.289002 6.94535 0.765206 7.83627 1.46447 8.53553C2.16373 9.23479 3.05465 9.711 4.02455 9.90392C4.99446 10.0968 5.99979 9.99783 6.91342 9.6194C7.82705 9.24096 8.60794 8.60009 9.15735 7.77785C9.70675 6.9556 10 5.9889 10 5C10 4.34339 9.87067 3.69321 9.6194 3.08658C9.36812 2.47995 8.99983 1.92876 8.53553 1.46447C8.07124 1.00017 7.52005 0.631876 6.91342 0.380602C6.30679 0.129329 5.65661 0 5 0V0ZM4.1445 8.8965C3.5992 8.77193 3.08614 8.53424 2.63854 8.19879C2.19094 7.86335 1.81877 7.43764 1.54615 6.94923C1.27352 6.46083 1.10651 5.9206 1.05592 5.36355C1.00534 4.8065 1.07231 4.24503 1.2525 3.7155L1.3785 3.7255C1.64505 3.85265 1.88099 4.03589 2.07015 4.26268C2.25932 4.48947 2.39725 4.75446 2.4745 5.0395C2.5576 5.36872 2.71724 5.67367 2.94045 5.92954C3.16365 6.18541 3.44411 6.38498 3.759 6.512C4.363 6.7905 4.4895 7.5715 4.1445 8.8965ZM6.0395 4.25C6.03946 4.21006 6.03459 4.17027 6.025 4.1315C5.93451 3.72157 5.7551 3.33652 5.49945 3.00354C5.2438 2.67056 4.91815 2.39779 4.5455 2.2045C4.108 1.927 3.8365 1.7545 3.7635 1.209C4.54195 0.946722 5.38233 0.930814 6.17014 1.16345C6.95795 1.39608 7.65489 1.86593 8.166 2.509C7.436 2.6185 7.0395 3.6865 7.0395 4.2495C6.98611 4.33205 6.91157 4.39879 6.82363 4.44276C6.7357 4.48673 6.63758 4.50632 6.5395 4.4995C6.44147 4.50637 6.34339 4.48686 6.25545 4.44298C6.16752 4.3991 6.09295 4.33246 6.0395 4.25ZM6.8955 8.4865L6.542 7.427C6.55907 7.18627 6.66261 6.95984 6.83353 6.78947C7.00446 6.6191 7.23122 6.51629 7.472 6.5L8.5415 6.8255C8.17183 7.53171 7.59833 8.11044 6.8955 8.4865V8.4865Z" fill="#111928"/>
</svg>
