<svg width="20" height="21" viewBox="0 0 20 21" fill="none" xmlns="http://www.w3.org/2000/svg">
<g clip-path="url(#clip0_6129_3612)">
<path d="M17.079 6.6327L11.0802 0.918344C10.9405 0.78503 10.7743 0.679634 10.5913 0.608341C10.2244 0.463886 9.81241 0.463886 9.44554 0.608341C9.26253 0.679634 9.09631 0.78503 8.95664 0.918344L2.95784 6.6327C2.8146 6.76448 2.70035 6.92212 2.62176 7.09641C2.54316 7.2707 2.50179 7.45816 2.50006 7.64785C2.49833 7.83754 2.53627 8.02565 2.61168 8.20122C2.68708 8.37679 2.79844 8.53629 2.93925 8.67043C3.08006 8.80456 3.24751 8.91064 3.43181 8.98247C3.61612 9.0543 3.8136 9.09044 4.01273 9.0888C4.21186 9.08715 4.40865 9.04774 4.59162 8.97287C4.77459 8.898 4.94007 8.78916 5.07842 8.65272L8.52023 5.37697V19.0714C8.52023 19.4503 8.67823 19.8137 8.95948 20.0816C9.24073 20.3495 9.62218 20.5 10.0199 20.5C10.4177 20.5 10.7991 20.3495 11.0804 20.0816C11.3616 19.8137 11.5196 19.4503 11.5196 19.0714V5.37697L14.9584 8.65272C15.2413 8.91295 15.6201 9.05694 16.0133 9.05369C16.4065 9.05043 16.7827 8.90019 17.0607 8.63532C17.3388 8.37044 17.4965 8.01214 17.4999 7.63757C17.5034 7.26299 17.3522 6.90213 17.079 6.6327Z" fill="#31C48D"/>
</g>
<defs>
<clipPath id="clip0_6129_3612">
<rect width="20" height="20" fill="white" transform="translate(0 0.5)"/>
</clipPath>
</defs>
</svg>
