<svg width="18" height="19" viewBox="0 0 18 19" fill="none" xmlns="http://www.w3.org/2000/svg">
<path fill-rule="evenodd" clip-rule="evenodd" d="M9 0.32019C4.0401 0.32019 0 4.36029 0 9.32019C0 14.2801 4.0401 18.3202 9 18.3202C13.9599 18.3202 18 14.2801 18 9.32019C18 4.36029 13.9599 0.32019 9 0.32019ZM9 2.12019C12.9871 2.12019 16.2 5.33308 16.2 9.32019C16.2 13.3073 12.9871 16.5202 9 16.5202C5.01289 16.5202 1.8 13.3073 1.8 9.32019C1.8 5.33308 5.01289 2.12019 9 2.12019ZM7.2 11.6475L12.8637 5.98386L14.1363 7.25652L7.2 14.1928L3.86367 10.8565L5.13633 9.58386L7.2 11.6475Z" fill="#0E9F6E"/>
</svg>
