<svg width="32" height="32" viewBox="0 0 32 32" fill="none" xmlns="http://www.w3.org/2000/svg">
<path d="M10.6667 17.3333V6C10.6667 5.46957 10.8775 4.96086 11.2525 4.58579C11.6276 4.21071 12.1363 4 12.6667 4C13.1972 4 13.7059 4.21071 14.081 4.58579C14.456 4.96086 14.6667 5.46957 14.6667 6V16M14.6667 15.3333V12.6667C14.6667 12.404 14.7185 12.144 14.819 11.9013C14.9195 11.6586 15.0668 11.4382 15.2525 11.2525C15.4383 11.0667 15.6587 10.9194 15.9014 10.8189C16.144 10.7184 16.4041 10.6667 16.6667 10.6667C16.9294 10.6667 17.1895 10.7184 17.4321 10.8189C17.6748 10.9194 17.8952 11.0667 18.081 11.2525C18.2667 11.4382 18.414 11.6586 18.5145 11.9013C18.615 12.144 18.6667 12.404 18.6667 12.6667V16M18.6667 14C18.6667 13.4696 18.8775 12.9609 19.2525 12.5858C19.6276 12.2107 20.1363 12 20.6667 12C21.1972 12 21.7059 12.2107 22.081 12.5858C22.456 12.9609 22.6667 13.4696 22.6667 14V16" stroke="#FF5A1F" stroke-width="2.66667" stroke-linecap="round" stroke-linejoin="round"/>
<path d="M22.6667 15.3335C22.6667 14.8031 22.8774 14.2944 23.2525 13.9193C23.6275 13.5442 24.1362 13.3335 24.6667 13.3335C25.1971 13.3335 25.7058 13.5442 26.0809 13.9193C26.456 14.2944 26.6667 14.8031 26.6667 15.3335V21.3335C26.6667 23.4552 25.8238 25.4901 24.3235 26.9904C22.8232 28.4906 20.7884 29.3335 18.6667 29.3335H16H16.2773C14.9524 29.3337 13.6482 29.0049 12.4818 28.3765C11.3154 27.7482 10.3234 26.84 9.59467 25.7335L9.33333 25.3335C8.91733 24.6953 7.45689 22.1495 4.952 17.6962C4.6966 17.2422 4.62838 16.7065 4.76184 16.203C4.89531 15.6995 5.21993 15.268 5.66667 15.0002C6.14271 14.7153 6.70014 14.5974 7.25075 14.665C7.80136 14.7326 8.31369 14.9819 8.70667 15.3735L10.6667 17.3335" stroke="#FF5A1F" stroke-width="2.66667" stroke-linecap="round" stroke-linejoin="round"/>
</svg>
