<svg width="40" height="41" viewBox="0 0 40 41" fill="none" xmlns="http://www.w3.org/2000/svg">
<path d="M13.3335 22.0622V7.89551C13.3335 7.23247 13.5969 6.59658 14.0657 6.12774C14.5346 5.6589 15.1705 5.39551 15.8335 5.39551C16.4965 5.39551 17.1324 5.6589 17.6013 6.12774C18.0701 6.59658 18.3335 7.23247 18.3335 7.89551V20.3955M18.3335 19.5622V16.2288C18.3335 15.9005 18.3982 15.5754 18.5238 15.2721C18.6494 14.9688 18.8336 14.6932 19.0657 14.4611C19.2979 14.2289 19.5735 14.0448 19.8768 13.9191C20.1801 13.7935 20.5052 13.7288 20.8335 13.7288C21.1618 13.7288 21.4869 13.7935 21.7902 13.9191C22.0935 14.0448 22.3691 14.2289 22.6013 14.4611C22.8334 14.6932 23.0176 14.9688 23.1432 15.2721C23.2688 15.5754 23.3335 15.9005 23.3335 16.2288V20.3955M23.3335 17.8955C23.3335 17.2325 23.5969 16.5966 24.0657 16.1277C24.5346 15.6589 25.1705 15.3955 25.8335 15.3955C26.4965 15.3955 27.1324 15.6589 27.6013 16.1277C28.0701 16.5966 28.3335 17.2325 28.3335 17.8955V20.3955" stroke="#FF5A1F" stroke-width="2.66667" stroke-linecap="round" stroke-linejoin="round"/>
<path d="M28.3334 19.5625C28.3334 18.8995 28.5968 18.2636 29.0656 17.7947C29.5345 17.3259 30.1704 17.0625 30.8334 17.0625C31.4964 17.0625 32.1323 17.3259 32.6012 17.7947C33.07 18.2636 33.3334 18.8995 33.3334 19.5625V27.0625C33.3334 29.7147 32.2798 32.2582 30.4045 34.1336C28.5291 36.0089 25.9856 37.0625 23.3334 37.0625H20.0001H20.3467C18.6906 37.0628 17.0604 36.6517 15.6024 35.8663C14.1444 35.0809 12.9043 33.9456 11.9934 32.5625L11.6667 32.0625C11.1467 31.2647 9.32117 28.0825 6.19006 22.5158C5.87081 21.9484 5.78553 21.2788 5.95237 20.6494C6.1192 20.0201 6.52497 19.4806 7.0834 19.1458C7.67845 18.7898 8.37524 18.6424 9.0635 18.7269C9.75176 18.8114 10.3922 19.1231 10.8834 19.6125L13.3334 22.0625" stroke="#FF5A1F" stroke-width="2.66667" stroke-linecap="round" stroke-linejoin="round"/>
</svg>
