<svg width="25" height="25" viewBox="0 0 25 25" fill="none" xmlns="http://www.w3.org/2000/svg">
<g clip-path="url(#clip0_6381_10208)">
<path d="M21.3508 14.8304C21.1903 14.7291 21.0068 14.67 20.8173 14.6587C20.6278 14.6474 20.4385 14.6842 20.2671 14.7658C20.0311 14.8782 19.7698 14.9271 19.5091 14.9074C19.2484 14.8878 18.9974 14.8003 18.7809 14.6538C18.5644 14.5072 18.39 14.3066 18.2749 14.0718C18.1598 13.8371 18.1081 13.5763 18.1249 13.3154C18.1505 12.9541 18.3043 12.6138 18.5588 12.3559C18.8132 12.098 19.1514 11.9396 19.5124 11.9092C19.7704 11.8899 20.0289 11.9384 20.2624 12.0498C20.4338 12.1322 20.6233 12.1698 20.8131 12.1592C21.003 12.1485 21.1871 12.0898 21.3481 11.9887C21.5092 11.8876 21.642 11.7473 21.7341 11.5809C21.8262 11.4145 21.8747 11.2275 21.8749 11.0373V7.03419C21.8749 6.53691 21.6774 6.06 21.3257 5.70837C20.9741 5.35674 20.4972 5.1592 19.9999 5.1592H16.9999C16.9991 4.647 16.8937 4.14037 16.6903 3.6703C16.4868 3.20024 16.1896 2.77665 15.8168 2.42545C15.4439 2.0727 15.002 1.80097 14.5189 1.62736C14.0358 1.45375 13.522 1.38203 13.0099 1.4167C12.1064 1.47607 11.2547 1.8597 10.6115 2.49703C9.96832 3.13436 9.57691 3.98251 9.50928 4.88545C9.4999 4.97826 9.4999 5.06545 9.4999 5.1592H6.4999C6.00262 5.1592 5.52571 5.35674 5.17408 5.70837C4.82245 6.06 4.6249 6.53691 4.6249 7.03419V9.65919C4.11271 9.66003 3.60607 9.76539 3.13601 9.96883C2.66595 10.1723 2.24235 10.4695 1.89115 10.8423C1.40605 11.3588 1.0772 12.0021 0.942694 12.6978C0.808191 13.3935 0.873542 14.1131 1.13117 14.7731C1.38881 15.4332 1.82818 16.0068 2.39839 16.4274C2.9686 16.848 3.64632 17.0985 4.35303 17.1498C4.44343 17.1576 4.53418 17.1608 4.6249 17.1592V19.7842C4.6249 20.2815 4.82245 20.7584 5.17408 21.11C5.52571 21.4617 6.00262 21.6592 6.4999 21.6592H19.9999C20.4972 21.6592 20.9741 21.4617 21.3257 21.11C21.6774 20.7584 21.8749 20.2815 21.8749 19.7842V15.782C21.875 15.5921 21.827 15.4052 21.7353 15.2388C21.6437 15.0724 21.5114 14.9319 21.3508 14.8304ZM19.6249 19.4092H6.8749V15.782C6.87492 15.5921 6.82689 15.4054 6.73528 15.2391C6.64367 15.0728 6.51147 14.9324 6.35098 14.8309C6.19049 14.7295 6.00693 14.6703 5.81742 14.6589C5.6279 14.6475 5.43858 14.6843 5.26709 14.7658C5.03238 14.8787 4.77218 14.9281 4.5124 14.9092C4.15231 14.879 3.8148 14.7213 3.56049 14.4646C3.30618 14.2079 3.15174 13.8689 3.1249 13.5086C3.10753 13.2477 3.15866 12.9867 3.27323 12.7517C3.38779 12.5167 3.56182 12.3156 3.77803 12.1686C3.99425 12.0215 4.24515 11.9336 4.50586 11.9134C4.76656 11.8932 5.02801 11.9415 5.26428 12.0536C5.43588 12.1357 5.6255 12.173 5.81542 12.1619C6.00533 12.1508 6.18934 12.0917 6.35023 11.9902C6.51112 11.8887 6.64364 11.748 6.73539 11.5814C6.82715 11.4148 6.87515 11.2276 6.8749 11.0373V7.40919H10.878C11.0678 7.40906 11.2545 7.36091 11.4206 7.26924C11.5868 7.17756 11.7271 7.04534 11.8284 6.88487C11.9298 6.72441 11.9888 6.54092 12.0002 6.35148C12.0115 6.16203 11.9748 5.9728 11.8933 5.80138C11.7804 5.56667 11.731 5.30647 11.7499 5.0467C11.7799 4.68654 11.9375 4.34893 12.1943 4.09458C12.451 3.84023 12.7901 3.68585 13.1505 3.6592C13.4114 3.64174 13.6723 3.69276 13.9073 3.80721C14.1424 3.92166 14.3435 4.09556 14.4906 4.31167C14.6377 4.52778 14.7258 4.77859 14.7462 5.03924C14.7665 5.29989 14.7183 5.56133 14.6065 5.79763C14.5241 5.96927 14.4867 6.159 14.4977 6.34905C14.5086 6.53909 14.5677 6.72325 14.6692 6.88427C14.7707 7.0453 14.9115 7.17792 15.0783 7.26972C15.245 7.36153 15.4324 7.40952 15.6227 7.40919H19.6249V9.65919C19.5312 9.65919 19.444 9.65919 19.353 9.66951C18.3857 9.74138 17.4839 10.1853 16.8369 10.9079C16.1899 11.6306 15.8482 12.5759 15.8833 13.5452C15.9185 14.5146 16.328 15.4326 17.0256 16.1064C17.7233 16.7803 18.6549 17.1576 19.6249 17.1592V19.4092Z" fill="#9CA3AF"/>
</g>
<defs>
<clipPath id="clip0_6381_10208">
<rect width="24" height="24" fill="white" transform="translate(0.5 0.28418)"/>
</clipPath>
</defs>
</svg>
