<svg width="344" height="351" viewBox="0 0 344 351" fill="none" xmlns="http://www.w3.org/2000/svg">
<g clip-path="url(#clip0_6134_2102)">
<path fill-rule="evenodd" clip-rule="evenodd" d="M145.03 144.568C138.351 151.899 127.157 152.857 119.329 146.769C113.286 142.083 110.638 134.233 112.61 126.844L81.5757 102.722L82.3784 93.6183L88.3028 93.0403L90.9438 95.0954L90.5103 98.8683L94.2833 97.6963L98.7706 101.18L98.0642 107.369L104.245 105.443L109.463 109.497L108.757 115.686L114.946 113.751L119.104 116.962C126.839 110.756 138.047 111.546 144.835 118.775C151.624 126.003 151.709 137.238 145.03 144.568ZM134.307 141.249C136.681 143.092 140.099 142.663 141.943 140.29C143.78 137.912 143.349 134.496 140.979 132.648C138.604 130.808 135.187 131.24 133.345 133.614C131.503 135.988 131.934 139.406 134.307 141.249Z" fill="#EBEBEB"/>
<path fill-rule="evenodd" clip-rule="evenodd" d="M143.505 60.4279C147.341 64.1002 147.706 70.1058 144.343 74.2158C141.761 77.3886 137.53 78.7072 133.602 77.5633L120.292 93.8672L115.428 93.3213L115.195 90.1103L116.311 88.7376L118.326 89.0186L117.748 86.9876L119.674 84.6275L122.974 85.0931L122.018 81.7537L124.242 79.0082L127.549 79.4658L126.594 76.1264L128.384 73.9429C125.164 69.7203 125.734 63.7307 129.693 60.1917C133.653 56.6526 139.669 56.7555 143.505 60.4279ZM141.54 66.1303C142.559 64.8852 142.377 63.0496 141.132 62.03H141.164C140.565 61.5278 139.789 61.2882 139.011 61.3652C138.233 61.4423 137.519 61.8295 137.03 62.4394C136.011 63.685 136.195 65.5205 137.44 66.5395C138.685 67.5585 140.521 67.3753 141.54 66.1303Z" fill="#EBEBEB"/>
<path d="M101.404 5.2594V64.1654H16.7855L13.7431 5.6688L101.404 5.2594Z" fill="#E0E0E0"/>
<path d="M13.7431 64.0449L13.7431 5.66877L98.3612 5.66877V64.0449H13.7431Z" fill="white"/>
<path fill-rule="evenodd" clip-rule="evenodd" d="M13.3417 64.4464H98.7385V5.26746H13.3417V64.4464ZM97.9358 63.6436H14.1284L14.1445 6.07021H97.9358V63.6436Z" fill="#E0E0E0"/>
<rect x="22.9025" y="12.9176" width="66.2833" height="43.8704" fill="white"/>
<path d="M89.1938 12.9176H88.8647H87.9174L84.289 12.9899H70.6422L22.9266 13.0862L23.1193 12.8936C23.1193 26.2995 23.1193 41.1504 23.1193 56.764L22.9105 56.5553L89.2018 56.6034L89.0333 56.764C89.0333 43.4142 89.0975 32.4727 89.1216 24.8465C89.1216 21.0335 89.1216 18.0633 89.1617 16.0163C89.1617 15.0048 89.1617 14.2341 89.1617 13.6963C89.1617 13.1585 89.1617 12.8936 89.1617 12.8936C89.1617 12.8936 89.1617 13.1504 89.1617 13.6963C89.1617 14.2422 89.1617 14.9887 89.1617 15.9841C89.1617 18.0151 89.1617 20.9853 89.1617 24.8144C89.1617 32.4647 89.2179 43.4463 89.25 56.8362V57.0048H89.0894H22.7982H22.5894V56.788C22.5894 41.1745 22.5894 26.3236 22.5894 12.9176V12.725H22.7821L70.6261 12.8213L84.2729 12.8775H87.8773H88.8005L89.1938 12.9176Z" fill="#E0E0E0"/>
<path d="M13.7351 5.50024C14.2578 5.75715 14.7482 6.07512 15.1961 6.44749C16.0631 7.07364 17.2351 7.95667 18.5115 8.97616C19.7878 9.99566 20.9197 10.959 21.7225 11.6814C22.1761 12.0418 22.5832 12.4571 22.9346 12.9177C22.8544 13.006 20.8234 11.3122 18.2787 9.30529C16.6864 8.13275 15.1689 6.86193 13.7351 5.50024L13.7351 5.50024Z" fill="#E0E0E0"/>
<path d="M98.3532 5.66882C96.9663 7.03355 95.4856 8.29964 93.922 9.45781C92.4338 10.7195 90.8593 11.8756 89.2099 12.9177C90.602 11.5524 92.088 10.2863 93.6571 9.12869C95.1392 7.86648 96.7085 6.71032 98.3532 5.66882Z" fill="#E0E0E0"/>
<path d="M98.289 64.053L88.8567 56.4028L98.289 64.053Z" fill="white"/>
<path d="M88.8567 56.4028C90.5425 57.5134 92.1517 58.7364 93.6732 60.0633C95.2885 61.298 96.8197 62.6389 98.2569 64.0771C96.5695 62.9686 94.9602 61.7456 93.4404 60.4165C91.8185 59.1899 90.2867 57.8485 88.8567 56.4028L88.8567 56.4028Z" fill="#E0E0E0"/>
<path d="M13.7351 64.045C15.1135 62.6926 16.5863 61.4398 18.1422 60.2961C19.6151 59.0462 21.1735 57.9008 22.8062 56.8683C21.4354 58.2284 19.9649 59.4842 18.4071 60.6252C16.9329 61.8745 15.3716 63.0173 13.7351 64.045Z" fill="#E0E0E0"/>
<path d="M36.3647 41.2789V26.5885H78.0757V41.2789H36.3647Z" fill="#E0E0E0"/>
<path d="M311.468 339.871C311.468 339.983 242.528 340.079 157.5 340.079C72.4725 340.079 3.50803 339.983 3.50803 339.871C3.50803 339.758 72.4404 339.662 157.5 339.662C242.56 339.662 311.468 339.758 311.468 339.871Z" fill="#263238"/>
<path d="M247.079 310.811L266.947 339.702L274.052 339.871L261.031 310.161L247.079 310.811Z" fill="#263238"/>
<path d="M37.4243 312.28L26.9564 339.574H32.1904L50.469 312.401L37.4243 312.28Z" fill="#263238"/>
<path d="M32.9128 213.116L33.7156 248.437C33.8218 253.43 37.8419 257.454 42.8349 257.564L240.464 261.964C242.976 262.02 245.405 261.061 247.201 259.304C248.998 257.547 250.01 255.14 250.009 252.628V210.082C250.004 197.541 240.756 186.923 228.335 185.196C192.155 180.219 117.555 172.569 57.2282 183.438C42.9224 185.996 32.6069 198.587 32.9128 213.116Z" fill="#FC8802"/>
<path d="M32.0459 225.454C32.0459 225.454 15.7661 217.917 12.4346 225.454C9.10321 232.992 12.844 242.24 16.5046 247.394C20.1651 252.547 20.1491 316.222 20.1491 316.222L267.06 313.581L269.982 252.355C269.982 252.355 281.822 237.769 281.084 231.483C280.345 225.197 270.351 216.046 258.88 225.43C247.408 234.814 244.43 254.426 244.43 254.426L47.5711 255.911C47.5711 255.911 48.2454 228.368 32.0459 225.454Z" fill="#FC8802"/>
<path d="M241.933 266.66C241.933 266.772 198.192 266.868 144.247 266.868C90.3016 266.868 46.5596 266.796 46.5596 266.66C46.5596 266.523 90.2855 266.451 144.247 266.451C198.208 266.451 241.933 266.563 241.933 266.66Z" fill="#263238"/>
<path d="M46.5596 293.632C46.5493 293.568 46.5493 293.503 46.5596 293.439C46.5596 293.287 46.5596 293.094 46.5596 292.87C46.5596 292.366 46.5436 291.636 46.5115 290.678C46.5115 288.743 46.5115 286.006 46.5115 282.65C46.5115 275.859 46.5596 266.475 46.2466 256.16C46.1854 251.303 45.81 246.454 45.1227 241.646C44.9782 241.116 44.8337 240.586 44.6972 240.04C44.5608 239.495 44.2959 239.037 44.0872 238.547C43.6617 237.576 43.2282 236.645 42.7546 235.77C41.8995 234.141 40.8944 232.596 39.7523 231.154C38.7987 229.973 37.7223 228.897 36.5413 227.943C35.6442 227.229 34.6789 226.605 33.6594 226.081C32.7712 225.671 31.8629 225.307 30.9381 224.989H31.1227L31.6766 225.141C32.3851 225.344 33.0731 225.613 33.7317 225.944C34.7802 226.441 35.7708 227.052 36.6858 227.766C37.8917 228.714 38.9901 229.79 39.961 230.977C41.1346 232.422 42.1668 233.976 43.0436 235.617C43.5333 236.5 43.9748 237.431 44.4083 238.411C44.625 238.9 44.8257 239.406 45.0264 239.912L45.4839 241.517C46.2001 246.348 46.589 251.221 46.6479 256.103C46.961 266.459 46.8567 275.843 46.7924 282.634C46.7443 285.998 46.7041 288.735 46.68 290.662C46.68 291.585 46.68 292.316 46.68 292.853V293.415C46.5596 293.56 46.5596 293.632 46.5596 293.632Z" fill="#263238"/>
<path d="M30.1273 239.663C30.319 239.532 30.5456 239.463 30.7775 239.462C31.4228 239.413 32.065 239.592 32.5917 239.968C32.9621 240.227 33.2649 240.571 33.4748 240.972C33.7147 241.442 33.7964 241.977 33.7076 242.497C33.5286 243.723 32.6126 244.713 31.4037 244.985C30.187 245.16 28.9844 244.587 28.3532 243.532C28.0828 243.082 27.9463 242.564 27.9599 242.039C28.0187 240.914 28.6866 239.911 29.7018 239.422C29.9065 239.312 30.1355 239.254 30.3681 239.254C30.3681 239.294 30.1353 239.35 29.7741 239.567C29.2692 239.879 28.8651 240.331 28.6101 240.867C28.2223 241.632 28.2587 242.544 28.7064 243.275C29.2681 244.175 30.3047 244.662 31.3555 244.52C32.384 244.279 33.1702 243.449 33.3544 242.408C33.4987 241.553 33.1437 240.691 32.4392 240.185C31.9817 239.821 31.4183 239.615 30.8337 239.599C30.3681 239.623 30.1353 239.703 30.1273 239.663Z" fill="#263238"/>
<path d="M31.2431 255.509C30.7751 255.162 30.3933 254.712 30.1273 254.193C28.6347 251.735 28.5978 248.659 30.031 246.165C30.2869 245.641 30.6573 245.18 31.1147 244.817C31.1709 244.865 30.7534 245.371 30.3119 246.302C29.7096 247.508 29.4015 248.839 29.4128 250.187C29.4349 251.536 29.7731 252.862 30.4002 254.056C30.8658 254.972 31.3073 255.469 31.2431 255.509Z" fill="#263238"/>
<path d="M28.6583 231.676C28.6146 232.084 28.534 232.487 28.4174 232.88C28.0652 234.801 28.4865 236.783 29.5894 238.395C29.8496 238.71 30.0883 239.043 30.3039 239.39C30.3039 239.39 29.8544 239.165 29.3486 238.587C28.0273 236.974 27.5614 234.824 28.0963 232.808C28.1861 232.389 28.3793 232 28.6583 231.676Z" fill="#263238"/>
<path d="M23.8498 240.554C23.9461 240.474 24.6927 241.228 25.8326 241.814C26.9725 242.4 28.008 242.617 27.992 242.714C27.17 242.819 26.3373 242.631 25.6399 242.184C24.8724 241.864 24.2397 241.288 23.8498 240.554Z" fill="#263238"/>
<path d="M268.007 293.632C268.007 293.745 212.32 293.841 143.628 293.841C74.9369 293.841 19.2661 293.745 19.2661 293.632C19.2661 293.52 74.945 293.423 143.693 293.423C212.44 293.423 268.007 293.512 268.007 293.632Z" fill="#263238"/>
<path d="M241.075 254.659C241.195 254.659 241.283 263.376 241.283 274.125C241.283 284.874 241.195 293.608 241.075 293.608C240.954 293.608 240.866 284.89 240.866 274.125C240.866 263.36 240.962 254.659 241.075 254.659Z" fill="#263238"/>
<path d="M158.624 187.3H158.239L157.115 187.34L152.804 187.46L136.925 187.829L84.5539 188.881C79.4404 189.001 74.4392 188.985 69.6388 189.306C65.0161 189.505 60.4429 190.34 56.0482 191.787C52.0837 193.118 48.536 195.461 45.7569 198.586C44.4962 199.998 43.4175 201.562 42.5459 203.242C41.7509 204.787 41.0928 206.399 40.5791 208.059C39.7541 210.942 39.2163 213.9 38.9736 216.889C38.7248 219.538 38.7007 221.826 38.6846 223.704C38.6686 225.583 38.6846 227.028 38.7408 228.015C38.7408 228.497 38.7408 228.866 38.7408 229.139C38.7408 229.412 38.7408 229.524 38.7408 229.524C38.7408 229.524 38.7408 229.396 38.7408 229.139C38.7408 228.882 38.7408 228.497 38.6766 228.015C38.6284 227.036 38.5642 225.607 38.5482 223.704C38.5321 221.802 38.5482 219.53 38.7649 216.865C39.0012 213.846 39.5391 210.858 40.3704 207.946C40.8787 206.257 41.5341 204.616 42.3291 203.042C43.1932 201.327 44.2722 199.73 45.5401 198.289C48.3569 195.117 51.9546 192.737 55.9759 191.386C60.3855 189.914 64.9785 189.062 69.6227 188.857C74.4392 188.536 79.4484 188.544 84.5619 188.423L136.942 187.492L152.812 187.259L157.131 187.211H158.255L158.624 187.3Z" fill="#263238"/>
<path d="M95.4151 214.802C95.4151 214.802 95.1502 214.93 94.7408 215.243C94.1621 215.687 93.7289 216.294 93.4966 216.985C93.1159 217.987 93.2831 219.115 93.9381 219.964C94.6815 221.089 96.0487 221.629 97.3605 221.317C98.6724 221.005 99.6493 219.906 99.8062 218.567C100.005 217.512 99.6474 216.429 98.8589 215.701C98.3385 215.192 97.6794 214.849 96.9644 214.714C96.4587 214.625 96.1617 214.657 96.1617 214.625C96.4182 214.531 96.6952 214.506 96.9644 214.553C98.2968 214.706 99.4453 215.56 99.9748 216.793C100.211 217.378 100.275 218.019 100.159 218.639C99.9472 220.109 98.8586 221.301 97.4135 221.644C95.9684 221.988 94.46 221.414 93.6089 220.196C93.228 219.696 92.9969 219.097 92.9427 218.47C92.9065 217.923 92.9914 217.375 93.1915 216.865C93.4655 216.136 93.9664 215.514 94.6204 215.091C94.8547 214.925 95.1292 214.825 95.4151 214.802Z" fill="#263238"/>
<path d="M92.0355 235.601C91.7299 234.828 91.5249 234.018 91.4255 233.193C91.0338 231.233 91.0777 229.21 91.5539 227.269C92.0685 225.302 93.3034 223.6 95.0138 222.5C95.5308 222.18 96.0979 221.95 96.6915 221.818C96.9041 221.751 97.1283 221.729 97.3498 221.754C96.5855 221.999 95.8526 222.333 95.1663 222.749C93.5845 223.867 92.4476 225.507 91.9553 227.381C91.5025 229.269 91.4207 231.226 91.7144 233.145C91.9071 234.67 92.0998 235.585 92.0355 235.601Z" fill="#263238"/>
<path d="M94.9576 202.439C94.5313 203.005 94.1373 203.595 93.7775 204.206C92.0908 207.313 92.9741 211.19 95.8406 213.261C96.4307 213.659 97.0446 214.021 97.6789 214.344C97.4801 214.343 97.2835 214.302 97.1009 214.224C96.5955 214.046 96.1153 213.803 95.672 213.501C92.5236 211.445 91.569 207.264 93.5126 204.045C93.782 203.581 94.1113 203.155 94.492 202.777C94.7649 202.496 94.9415 202.383 94.9576 202.439Z" fill="#263238"/>
<path d="M94.219 218.495C92.7518 218.741 91.2993 219.068 89.8681 219.474C88.4821 220.016 87.1262 220.633 85.8062 221.32C88.1259 219.302 91.1513 218.286 94.219 218.495Z" fill="#263238"/>
<g opacity="0.3">
<path d="M68.2821 267.414C76.0756 273.387 85.7797 276.312 95.5757 275.642C93.542 285.077 91.5138 294.515 89.4908 303.956C88.953 306.468 88.4472 309.27 89.7638 311.485C91.6101 314.592 95.9048 314.897 99.5172 314.849C103.531 314.793 107.721 314.696 111.286 312.834C116.335 310.201 119.048 304.614 121.007 299.267C122.966 293.921 124.659 288.189 128.689 284.168C133.315 289.438 139.577 293.003 146.47 294.29C148.477 294.66 150.757 294.772 152.362 293.488C153.968 292.203 154.425 289.939 154.016 287.949C153.482 285.986 152.592 284.139 151.391 282.498L139.639 264.275C138.033 261.811 136.315 259.21 133.626 258.038C131.515 257.115 129.123 257.235 126.827 257.34C107.64 258.457 88.5962 261.335 69.9358 265.937" fill="black"/>
</g>
<g opacity="0.3">
<path d="M131.073 177.072C126.321 189.628 108.596 192.509 102.343 204.366C96.1858 216.118 103.82 231.66 97.4782 243.348C95.1261 247.667 91.0562 250.886 88.7924 255.236C87.2511 258.159 86.4564 261.659 83.9759 263.818C81.07 266.347 76.5665 266.298 73.0745 264.661C69.5826 263.023 66.9014 260.085 64.4128 257.139C59.7569 251.616 55.3819 245.644 53.1743 238.748C49.4335 226.891 52.8693 213.477 60.3991 203.571C67.9289 193.665 79.0791 186.978 90.8555 182.973C102.632 178.967 115.091 177.458 127.477 176.294" fill="black"/>
</g>
<path d="M73.9977 144.055C75.7968 141.251 78.2841 138.955 81.2225 137.384C84.1818 135.81 87.6414 135.461 90.8555 136.413C94.0684 137.433 96.5079 140.067 97.2775 143.349C97.7833 145.926 97.0929 148.8 98.4255 151.063C99.9507 153.664 103.635 154.483 104.936 157.212C105.628 158.926 105.483 160.864 104.542 162.454C103.606 164.017 102.415 165.412 101.018 166.581C101.86 167.107 102.604 167.775 103.218 168.555C103.837 169.353 104.012 170.41 103.683 171.365C103.16 172.294 102.297 172.985 101.275 173.292C96.7905 175.182 91.8327 175.647 87.0745 174.624C85.8062 174.351 84.3532 174.006 83.3096 174.777" fill="#263238"/>
<path d="M106.132 153.584L103.555 161.443L121.103 171.405L103.443 171.975L104.759 186.288L138.756 177.94C138.756 177.94 140.795 164.076 106.132 153.584L103.724 153.006C102.842 152.799 102.119 152.172 101.789 151.328C101.514 150.652 100.999 150.101 100.344 149.779L97.4461 148.27V150.566L99.0516 152.436L98.7947 156.875C98.6556 158.839 99.9612 160.614 101.877 161.066L103.483 161.443" fill="#B78876"/>
<path d="M67.6881 182.001C66.9897 182.001 60.5115 183.607 56.8028 188.295C53.094 192.983 47.7317 210.724 47.7317 210.724L61.3784 213.084L67.2706 227.879C67.2706 227.879 102.15 223.311 100.296 221.457C98.5034 219.807 96.6279 218.251 94.6766 216.793L102.704 190.053L112.337 184.851L109.086 171.493L89.6835 174.118L67.6881 182.001Z" fill="#FAFAFA"/>
<path d="M101.034 196.234C101.034 196.347 90.1571 196.443 76.7511 196.443C63.3452 196.443 52.4599 196.347 52.4599 196.234C52.4599 196.122 63.3372 196.025 76.7511 196.025C90.1651 196.025 101.034 196.122 101.034 196.234Z" fill="#FC8802"/>
<path d="M98.8589 204.093C98.8589 204.206 87.9817 204.302 74.5757 204.302C61.1697 204.302 50.2844 204.206 50.2844 204.093C50.2844 203.981 61.1537 203.884 74.5757 203.884C87.9977 203.884 98.8589 203.981 98.8589 204.093Z" fill="#FC8802"/>
<path d="M98.8589 212.578C98.8589 212.699 90.6227 212.795 80.4599 212.795C70.297 212.795 62.0688 212.699 62.0688 212.578C62.0688 212.458 70.305 212.369 80.4599 212.369C90.6147 212.369 98.8589 212.466 98.8589 212.578Z" fill="#FC8802"/>
<path d="M101.677 220.758C101.677 220.871 93.4404 220.967 83.2856 220.967C73.1307 220.967 64.8945 220.871 64.8945 220.758C64.8945 220.646 73.1227 220.55 83.2856 220.55C93.4484 220.55 101.677 220.638 101.677 220.758Z" fill="#FC8802"/>
<path d="M110.386 185.662C110.386 185.782 104.944 185.871 98.2408 185.871C91.5378 185.871 86.0872 185.782 86.0872 185.662C86.0872 185.542 91.5218 185.453 98.2408 185.453C104.96 185.453 110.386 185.582 110.386 185.662Z" fill="#FC8802"/>
<path d="M111.269 177.329C111.269 177.45 105.851 177.667 99.172 177.819C92.4931 177.972 87.0585 178.012 87.0585 177.899C87.0585 177.787 92.469 177.562 99.156 177.402C105.843 177.241 111.269 177.217 111.269 177.329Z" fill="#FC8802"/>
<path d="M64.2202 200.312C63.9218 202.526 63.4847 204.719 62.9117 206.879C62.4749 209.071 61.9039 211.235 61.2018 213.357C61.5006 211.144 61.9349 208.951 62.5023 206.79C62.9348 204.596 63.5087 202.432 64.2202 200.312V200.312Z" fill="#263238"/>
<path d="M102.19 300.544L92.0275 332.598L104.278 333.834L115.789 305.978L102.19 300.544Z" fill="#B78876"/>
<path d="M111.157 321.359L105.321 335.809C105.321 335.809 118.069 346.606 117.25 349.383L88.7844 339.1L96.9484 316.173L111.157 321.359Z" fill="#455A64"/>
<path d="M96.9644 331.41C96.3349 331.377 95.7815 331.823 95.68 332.445C95.6222 333.074 96.0666 333.638 96.6915 333.73C97.358 333.763 97.9425 333.289 98.0482 332.63C98.0482 332.02 97.4461 331.321 96.844 331.41" fill="#E0E0E0"/>
<path d="M88.7844 339.1L89.6995 336.82L116.656 347.561C116.656 347.561 117.724 348.564 117.25 349.407L88.7844 339.1Z" fill="#E0E0E0"/>
<path d="M105.835 335.857C105.779 335.993 105.032 335.809 104.229 336.001C103.427 336.194 102.808 336.66 102.704 336.555C102.6 336.451 103.089 335.753 104.117 335.504C105.144 335.255 105.907 335.736 105.835 335.857Z" fill="#263238"/>
<path d="M108.372 338.169C108.372 338.321 107.665 338.337 106.983 338.755C106.3 339.172 105.963 339.71 105.803 339.71C105.642 339.71 105.859 338.835 106.718 338.337C107.577 337.84 108.42 338.04 108.372 338.169Z" fill="#263238"/>
<path d="M108.773 342.359C108.636 342.359 108.693 341.556 109.327 340.946C109.961 340.336 110.724 340.248 110.74 340.384C110.756 340.521 110.202 340.786 109.696 341.308C109.19 341.829 108.917 342.399 108.773 342.359Z" fill="#263238"/>
<path d="M106.766 332.413C106.662 332.517 106.092 332.092 105.289 331.859C104.486 331.626 103.78 331.658 103.748 331.514C103.716 331.37 104.494 331.081 105.433 331.37C106.373 331.658 106.903 332.325 106.766 332.413Z" fill="#263238"/>
<path d="M107.922 329.467C107.41 329.423 106.92 329.243 106.501 328.945C106.018 328.669 105.573 328.332 105.177 327.942C104.934 327.717 104.711 327.473 104.51 327.211C104.383 327.065 104.281 326.9 104.205 326.722C104.09 326.451 104.172 326.137 104.406 325.959C104.617 325.813 104.886 325.777 105.128 325.863C105.31 325.929 105.483 326.018 105.642 326.128C105.928 326.311 106.197 326.521 106.445 326.754C106.847 327.146 107.186 327.598 107.448 328.094C107.735 328.526 107.881 329.037 107.866 329.555C107.786 329.555 107.625 329.025 107.135 328.279C106.851 327.846 106.511 327.451 106.124 327.107C105.899 326.899 105.654 326.713 105.393 326.553C105.12 326.368 104.864 326.272 104.743 326.376C104.623 326.481 104.687 326.441 104.743 326.545C104.806 326.674 104.884 326.796 104.976 326.906C105.162 327.152 105.36 327.388 105.57 327.613C105.936 327.989 106.333 328.332 106.758 328.64C107.165 328.888 107.554 329.164 107.922 329.467Z" fill="#263238"/>
<path d="M107.665 329.603C107.543 329.097 107.588 328.565 107.794 328.086C108.058 327.226 108.555 326.457 109.231 325.863C109.524 325.538 109.965 325.39 110.394 325.469C110.652 325.572 110.829 325.811 110.852 326.087C110.866 326.281 110.85 326.476 110.804 326.665C110.739 327 110.622 327.322 110.459 327.621C110.189 328.127 109.798 328.557 109.319 328.873C108.516 329.411 107.85 329.371 107.858 329.314C108.287 329.097 108.703 328.853 109.102 328.584C109.498 328.264 109.818 327.861 110.041 327.404C110.166 327.149 110.258 326.879 110.314 326.601C110.378 326.288 110.354 325.999 110.226 325.991C110.097 325.983 109.76 326.079 109.56 326.28C109.329 326.474 109.116 326.689 108.925 326.922C108.6 327.326 108.33 327.771 108.123 328.247C107.794 329.034 107.753 329.612 107.665 329.603Z" fill="#263238"/>
<path d="M140.763 270.368L155.935 296.739L168.345 288.775L153.109 262.004L140.763 270.368Z" fill="#B78876"/>
<path d="M164.058 281.238L171.901 294.756C171.901 294.756 188.245 291.32 189.939 293.672L164.315 309.808L151.239 289.265L164.058 281.238Z" fill="#455A64"/>
<path d="M163.272 298.617C162.85 299.085 162.85 299.795 163.272 300.263C163.726 300.679 164.423 300.679 164.877 300.263C165.314 299.755 165.296 299 164.837 298.513C164.307 298.116 163.559 298.204 163.135 298.714" fill="#E0E0E0"/>
<path d="M164.315 309.792L163.079 307.672L188.109 292.998C188.109 292.998 189.562 292.773 189.939 293.656L164.315 309.792Z" fill="#E0E0E0"/>
<path d="M172.231 294.347C172.303 294.475 171.717 294.925 171.356 295.711C170.994 296.498 170.994 297.236 170.85 297.261C170.705 297.285 170.432 296.458 170.85 295.495C171.267 294.531 172.182 294.21 172.231 294.347Z" fill="#263238"/>
<path d="M175.618 293.761C175.722 293.865 175.313 294.419 175.225 295.222C175.136 296.024 175.361 296.651 175.225 296.723C175.088 296.795 174.575 296.145 174.703 295.117C174.831 294.09 175.538 293.648 175.618 293.761Z" fill="#263238"/>
<path d="M179.174 296.016C179.07 296.121 178.508 295.607 178.372 294.716C178.235 293.825 178.677 293.191 178.797 293.255C178.917 293.319 178.797 293.921 178.885 294.652C178.974 295.382 179.287 295.928 179.174 296.016Z" fill="#263238"/>
<path d="M170.103 291.465C170.103 291.617 169.437 291.802 168.763 292.267C168.088 292.733 167.679 293.327 167.542 293.263C167.406 293.199 167.663 292.412 168.466 291.842C169.268 291.272 170.103 291.328 170.103 291.465Z" fill="#263238"/>
<path d="M168.474 288.775C168.474 288.824 168.064 289.217 167.189 289.578C166.672 289.782 166.133 289.928 165.584 290.012C165.256 290.053 164.926 290.077 164.596 290.084C164.402 290.091 164.207 290.069 164.018 290.02C163.736 289.943 163.542 289.686 163.545 289.394C163.558 289.135 163.696 288.899 163.914 288.759C164.077 288.66 164.253 288.582 164.436 288.527C165.285 288.235 166.194 288.166 167.077 288.326C168.024 288.503 168.522 288.848 168.49 288.896C168.458 288.944 167.928 288.759 167.037 288.687C166.516 288.649 165.993 288.676 165.479 288.767C165.182 288.821 164.889 288.899 164.604 289C164.283 289.105 164.05 289.249 164.058 289.41C164.067 289.57 164.058 289.49 164.179 289.538C164.318 289.57 164.461 289.584 164.604 289.578C165.436 289.589 166.264 289.473 167.061 289.233C167.52 289.046 167.992 288.893 168.474 288.775Z" fill="#263238"/>
<path d="M168.425 289.056C168.425 289.105 167.864 288.808 167.302 288.029C166.979 287.568 166.74 287.055 166.595 286.512C166.508 286.191 166.452 285.863 166.427 285.532C166.353 285.098 166.511 284.657 166.844 284.368C167.074 284.223 167.368 284.223 167.599 284.368C167.76 284.476 167.906 284.606 168.032 284.754C168.253 285.016 168.437 285.308 168.578 285.621C168.806 286.146 168.903 286.719 168.859 287.29C168.779 288.27 168.353 288.751 168.313 288.711C168.402 288.239 168.463 287.762 168.498 287.282C168.487 286.775 168.367 286.277 168.144 285.821C168.017 285.556 167.852 285.31 167.655 285.091C167.446 284.85 167.205 284.689 167.117 284.786C166.955 284.98 166.887 285.236 166.932 285.484C166.947 285.787 166.987 286.088 167.053 286.383C167.171 286.887 167.36 287.37 167.615 287.82C168.048 288.607 168.482 288.992 168.425 289.056Z" fill="#263238"/>
<path d="M95.5998 266.66L125.398 246.398L144.19 282.98L161.273 273.724C161.273 273.724 141.597 225.719 134.533 224.194C130.576 223.327 85.1881 231.989 85.1881 231.989L80.1147 229.444L67.2706 227.879L66.4679 229.958C61.9342 241.438 62.453 254.298 67.8968 265.375L68.5229 266.652L95.5998 266.66Z" fill="#263238"/>
<path d="M85.1399 241.309C85.3647 242.312 110.025 265.391 110.025 265.391L95.8165 313.147L117.025 317.201L138.322 259.676L99.3968 221.489L81.5837 228.93L85.1399 241.309Z" fill="#263238"/>
<path d="M125.398 246.39C125.462 246.486 118.839 251.094 110.619 256.689C102.399 262.285 95.672 266.74 95.5998 266.66C95.5275 266.579 102.15 261.947 110.378 256.352C118.607 250.757 125.326 246.294 125.398 246.39Z" fill="#455A64"/>
<path d="M140.69 276.156C140.416 275.813 140.174 275.445 139.968 275.056C139.526 274.334 138.916 273.266 138.17 271.95C136.685 269.309 134.71 265.616 132.623 261.514C130.536 257.412 128.689 253.631 127.397 250.894C126.747 249.521 126.233 248.405 125.888 247.634C125.685 247.245 125.521 246.836 125.398 246.414C125.64 246.78 125.855 247.164 126.04 247.562L127.646 250.773C129.042 253.543 130.913 257.243 132.976 261.345C135.039 265.448 136.99 269.172 138.411 271.845C139.093 273.138 139.663 274.206 140.096 275.016C140.324 275.38 140.522 275.761 140.69 276.156Z" fill="#455A64"/>
<path d="M114.448 256.85C113.815 258.611 113.053 260.323 112.169 261.972C111.405 263.677 110.517 265.325 109.511 266.9C110.906 263.433 112.556 260.073 114.448 256.85V256.85Z" fill="#455A64"/>
<path d="M47.7317 210.724L42.9151 228.513C42.2935 230.814 42.5809 233.266 43.7179 235.36C45.7121 239.062 49.9366 240.972 54.0333 240.024L92.2041 230.624L88.1904 222.693L58.1193 225.302L61.3303 213.084L47.7317 210.724Z" fill="#B78876"/>
<path d="M64.6617 237.72L65.1594 235.136L85.8463 231.419L91.8589 199.525L130.279 194.95L123.825 228.994L64.6617 237.72Z" fill="#455A64"/>
<path d="M109.11 216.704C108.206 216.665 107.421 216.067 107.143 215.206C106.864 214.344 107.15 213.4 107.861 212.839C108.571 212.277 109.555 212.216 110.329 212.686C111.103 213.156 111.504 214.057 111.334 214.946C111.2 216.043 110.208 216.827 109.11 216.704Z" fill="#EBEBEB"/>
<path d="M70.281 146.247L70.3532 148.551L71.2202 183.069C71.3245 187.083 74.8486 190.181 79.1353 190.037C83.4702 189.9 86.9541 186.505 86.922 182.451C86.8819 178.204 86.922 173.725 86.922 173.725C86.922 173.725 92.3888 172.754 93.4404 165.593C93.9622 162.037 93.7133 156.209 93.3601 151.449C93.2078 149.397 92.2245 147.497 90.6377 146.187C89.051 144.878 86.9985 144.273 84.9553 144.513L70.281 146.247Z" fill="#B78876"/>
<path d="M90.5906 155.454C90.5999 155.952 90.2128 156.368 89.7156 156.394C89.4834 156.414 89.2527 156.34 89.0749 156.189C88.8971 156.039 88.7867 155.823 88.7683 155.591C88.7588 155.096 89.1413 154.682 89.6353 154.652C90.1207 154.61 90.5481 154.969 90.5906 155.454Z" fill="#263238"/>
<path d="M92.1319 154.523C92.0195 154.644 91.3291 154.138 90.3337 154.146C89.3383 154.154 88.6319 154.668 88.5195 154.547C88.4071 154.427 88.5837 154.274 88.8968 154.042C89.3194 153.742 89.8238 153.579 90.3417 153.576C90.8549 153.571 91.3569 153.725 91.7787 154.017C92.0837 154.274 92.1881 154.467 92.1319 154.523Z" fill="#263238"/>
<path d="M80.8612 155.808C80.8749 156.307 80.4854 156.725 79.9862 156.747C79.5009 156.789 79.0735 156.429 79.031 155.944C79.0218 155.448 79.41 155.035 79.906 155.013C80.1382 154.991 80.3698 155.062 80.5492 155.211C80.7286 155.36 80.8409 155.575 80.8612 155.808Z" fill="#263238"/>
<path d="M82.4427 154.82C82.3303 154.941 81.6399 154.435 80.6445 154.443C79.6491 154.451 78.9427 154.965 78.8303 154.844C78.7179 154.724 78.8865 154.571 79.1995 154.339C79.6251 154.039 80.132 153.876 80.6525 153.873C81.1631 153.868 81.6626 154.022 82.0814 154.314C82.3865 154.547 82.4988 154.764 82.4427 154.82Z" fill="#263238"/>
<path d="M86.1032 162.085C86.6237 161.917 87.163 161.815 87.7087 161.78C87.9656 161.78 88.1984 161.7 88.2385 161.523C88.2575 161.265 88.1958 161.007 88.0619 160.785L87.2993 158.874C86.5882 157.259 86.0083 155.589 85.5654 153.881C86.4085 155.424 87.1201 157.035 87.6927 158.697L88.4312 160.616C88.5905 160.919 88.6415 161.267 88.5757 161.603C88.5027 161.784 88.3524 161.923 88.1663 161.981C88.0249 162.019 87.8793 162.041 87.7328 162.045C87.1936 162.129 86.6458 162.142 86.1032 162.085Z" fill="#263238"/>
<path d="M86.922 173.749C83.5496 173.857 80.2139 173.023 77.289 171.341C77.289 171.341 79.6972 176.222 86.8096 175.467L86.922 173.749Z" fill="#AA6550"/>
<path d="M82.836 153.191C82.7316 153.456 81.7523 153.287 80.5883 153.367C79.4243 153.448 78.4771 153.728 78.3326 153.48C78.2683 153.359 78.4449 153.118 78.8303 152.878C79.3459 152.575 79.927 152.401 80.5241 152.372C81.1188 152.327 81.7156 152.423 82.266 152.653C82.6835 152.845 82.8842 153.07 82.836 153.191Z" fill="#263238"/>
<path d="M91.7225 151.063C91.5459 151.288 90.8635 151.063 90.0527 151.063C89.242 151.063 88.5436 151.232 88.383 150.999C88.2225 150.766 88.383 150.662 88.7122 150.445C89.5383 149.911 90.6062 149.934 91.4094 150.501C91.6984 150.758 91.7947 150.991 91.7225 151.063Z" fill="#263238"/>
<path d="M85.9988 165.657C85.7097 165.704 85.4135 165.673 85.1399 165.569L84.3371 165.344C84.1124 165.272 83.8635 165.168 83.5826 165.063C83.3008 164.986 83.0455 164.833 82.844 164.622C82.6755 164.405 82.7076 164.02 83.0929 163.675C83.6356 163.279 84.3359 163.17 84.9731 163.382C85.6103 163.594 86.106 164.101 86.3039 164.742C86.4725 165.248 86.2638 165.585 85.9988 165.657Z" fill="#AA6550"/>
<path d="M86.1353 165.569C86.039 165.641 85.5573 164.654 84.4014 164.357C83.6945 164.255 82.9735 164.336 82.3062 164.59C82.3062 164.59 82.4346 164.333 82.828 164.132C83.3476 163.873 83.9435 163.81 84.5057 163.956C85.0698 164.098 85.5632 164.441 85.8945 164.919C86.1433 165.28 86.1835 165.553 86.1353 165.569Z" fill="#263238"/>
<path d="M78.5493 141.607C80.8214 145.189 80.2829 149.872 77.2569 152.845C75.547 154.451 73.0023 155.679 72.8337 158.007C72.6411 160.584 75.6273 162.511 75.6273 165.095C75.6273 167.68 72.5688 169.446 71.9667 172.039C71.4851 174.126 72.7695 176.214 74.1823 177.795C75.5952 179.376 77.3934 180.773 78.1961 182.732C79.0573 184.962 78.9703 187.447 77.9553 189.611C76.9393 191.74 75.5836 193.69 73.9415 195.383C71.8067 194.619 69.5845 194.125 67.3268 193.914C67.4633 193.063 67.6078 192.204 67.7523 191.353C67.7087 192.374 67.0113 193.25 66.0264 193.521C65.0586 193.767 64.0464 193.781 63.0722 193.561C60.0635 193.085 57.1067 192.325 54.242 191.289C55.5231 190.134 56.6076 188.779 57.453 187.275C58.2987 185.732 58.3317 183.871 57.5413 182.298C56.8349 181.094 55.5344 180.324 54.8842 179.087C53.9128 177.241 54.7156 174.897 56.0963 173.332C57.4771 171.766 59.3555 170.747 61.0011 169.462C62.6468 168.178 64.156 166.444 64.2844 164.357C64.461 161.66 62.2695 159.195 62.5424 156.506C62.8475 153.439 66.0906 151.561 67.3589 148.751C68.2821 146.72 68.1617 144.216 69.5745 142.49C70.698 141.241 72.3396 140.588 74.0138 140.724C75.6644 140.867 77.2534 141.419 78.6376 142.329" fill="#263238"/>
<path d="M87.5 174.52C86.2156 175.226 86.2878 177.193 87.0745 178.437C87.8612 179.681 89.1216 180.573 89.9002 181.825C91.2596 184.186 90.7054 187.185 88.5917 188.905L91.6743 190.069L92.3486 189.692L94.2431 188.616L93.3521 190.808H95.3268C97.4669 190.852 99.4461 189.676 100.431 187.776C101.416 185.875 101.236 183.58 99.9667 181.857C99.164 180.733 97.8956 179.842 97.6147 178.485C97.2855 176.84 98.5298 175.355 99.1319 173.797C100.115 171.098 99.2459 168.073 96.9805 166.308" fill="#263238"/>
<path d="M26.6915 109.553C27.0605 109.736 27.2938 110.112 27.2936 110.524V115.871C27.2929 116.205 27.1355 116.52 26.8681 116.722C26.602 116.929 26.2521 116.995 25.9289 116.898C25.0383 116.67 24.0934 116.815 23.3119 117.3C22.5915 117.711 22.0741 118.403 21.883 119.21C21.7383 120.031 21.9355 120.875 22.4289 121.546C22.9413 122.307 23.7357 122.833 24.6365 123.007C26.5021 123.194 28.2485 122.064 28.8429 120.286C29.0224 119.723 29.6244 119.412 30.1875 119.591C30.7506 119.771 31.0614 120.373 30.8819 120.936C29.9606 123.718 27.21 125.469 24.2993 125.126C22.8148 124.872 21.5 124.018 20.6628 122.766C19.8336 121.605 19.5146 120.155 19.7798 118.753C20.0919 117.365 20.9634 116.168 22.1881 115.445C23.0772 114.911 24.0969 114.633 25.1342 114.642V110.524C25.1342 109.93 25.6158 109.449 26.2099 109.449C26.3761 109.448 26.5406 109.483 26.6915 109.553Z" fill="#FC8802"/>
<path d="M25.2145 107.305C25.2058 106.823 25.5887 106.425 26.0708 106.415C26.5528 106.405 26.9523 106.786 26.9641 107.268C26.9758 107.75 26.5955 108.151 26.1135 108.164C25.8801 108.171 25.6537 108.084 25.4849 107.922C25.316 107.761 25.2186 107.539 25.2145 107.305Z" fill="#FC8802"/>
<path d="M51.3761 135.931C51.3761 135.931 51.1112 135.931 50.6697 136.156C50.065 136.417 49.555 136.857 49.2087 137.416C48.963 137.8 48.8066 138.233 48.7511 138.685C48.6893 139.203 48.7815 139.728 49.0161 140.194C49.5081 141.328 50.6557 142.034 51.8897 141.962C53.1237 141.891 54.1817 141.056 54.539 139.873C54.7187 139.382 54.7494 138.848 54.6273 138.34C54.515 137.897 54.3098 137.484 54.0252 137.127C53.612 136.61 53.0525 136.23 52.4197 136.036C51.9622 135.907 51.6892 135.923 51.6892 135.899H51.8819C51.962 135.892 52.0426 135.892 52.1227 135.899C52.2284 135.905 52.3332 135.921 52.4358 135.947C53.1153 136.108 53.7241 136.486 54.1697 137.023C54.4866 137.389 54.7147 137.823 54.836 138.291C54.9678 138.822 54.9427 139.38 54.7638 139.897C54.5675 140.483 54.2117 141.003 53.7362 141.398C53.2296 141.834 52.5965 142.096 51.93 142.145C51.2636 142.171 50.606 141.986 50.0516 141.615C49.5311 141.281 49.1141 140.808 48.8475 140.25C48.6089 139.751 48.5171 139.194 48.5826 138.645C48.6504 138.165 48.8261 137.706 49.0963 137.304C49.4806 136.717 50.0435 136.27 50.7018 136.028C50.8041 135.991 50.9087 135.962 51.0149 135.939C51.0905 135.916 51.1687 135.903 51.2477 135.899C51.2918 135.904 51.335 135.915 51.3761 135.931Z" fill="#263238"/>
<path d="M59.211 143.694C59.211 143.694 59.0424 143.734 58.7775 143.855C58.3957 144.023 58.0738 144.303 57.8544 144.657C57.5168 145.17 57.4741 145.823 57.742 146.375C58.0483 147.073 58.7567 147.507 59.5177 147.462C60.2786 147.417 60.9313 146.904 61.1537 146.175C61.357 145.594 61.2378 144.95 60.8406 144.481C60.5814 144.153 60.2286 143.912 59.8291 143.79C59.5482 143.702 59.3796 143.71 59.3796 143.686C59.5349 143.646 59.6979 143.646 59.8532 143.686C60.5993 143.863 61.1899 144.432 61.3945 145.171C61.4942 145.515 61.4942 145.879 61.3945 146.223C61.1521 147.039 60.4247 147.616 59.5748 147.666C58.7249 147.717 57.9344 147.229 57.5975 146.447C57.437 146.125 57.3783 145.761 57.4289 145.404C57.4721 145.099 57.5847 144.808 57.758 144.553C58.0047 144.181 58.3653 143.9 58.7855 143.75C58.9215 143.701 59.0668 143.681 59.211 143.694Z" fill="#263238"/>
<path d="M50.1078 120.021C50.1078 120.021 50.1078 119.884 50.1078 119.619C50.1078 119.355 50.1078 118.953 50.1078 118.439C50.1078 118.175 50.1078 117.886 50.1078 117.564C50.1078 117.243 50.0596 116.898 50.0355 116.521C50.0115 116.144 49.9794 115.718 49.9392 115.301C49.929 115.076 49.8995 114.854 49.8509 114.634L49.7305 113.928C49.3345 111.568 48.5849 109.281 47.5069 107.145C46.104 104.318 44.172 101.786 41.8154 99.6871L40.8119 98.8121C40.4587 98.5392 40.0814 98.2823 39.7122 98.0094L39.1422 97.608C38.963 97.4605 38.7693 97.3314 38.5642 97.2227L37.328 96.4761C37.1193 96.3557 36.9186 96.2273 36.7018 96.1149L36.0355 95.8099L34.695 95.1998C34.2294 95.0071 33.7477 94.8626 33.2741 94.694L32.5516 94.4452L32.1823 94.3248L31.805 94.2365C30.7917 93.9689 29.762 93.7678 28.7225 93.6344C28.1927 93.5782 27.6548 93.4819 27.117 93.4498L25.5115 93.4016C25.2385 93.4016 24.9656 93.4016 24.7087 93.4016L23.906 93.4658C23.344 93.514 22.7821 93.53 22.2282 93.6023C21.0927 93.7637 19.9691 93.9996 18.8647 94.3087L18.0218 94.5495C17.8853 94.5495 17.7408 94.6218 17.6044 94.6699L17.195 94.8305L15.5413 95.4727C15.0034 95.7135 14.4736 96.0025 13.9358 96.2754C13.6709 96.4199 13.3979 96.5323 13.133 96.6929L12.3303 97.1826C11.29 97.8344 10.295 98.5558 9.35206 99.342L7.99541 100.618L7.65023 100.939L7.33716 101.293L6.71904 102.007L6.09289 102.714L5.53096 103.516L4.97706 104.319L4.6961 104.712C4.6078 104.849 4.52752 104.985 4.44725 105.122L3.47592 106.8C3.21101 107.386 2.93807 107.972 2.67316 108.566C0.583822 113.475 0.158114 118.933 1.46101 124.107L1.99083 125.985L2.68922 127.783L2.86582 128.233L3.08257 128.658L3.51605 129.517L3.94151 130.36L4.45527 131.163L4.96101 131.966L5.20986 132.359L5.49885 132.728L6.64679 134.205C7.45741 135.127 8.32902 135.993 9.25573 136.798L9.93807 137.4C10.1628 137.601 10.4197 137.762 10.6606 137.938C11.1502 138.283 11.6239 138.653 12.1216 138.974L13.6468 139.825L14.0241 140.05L14.4255 140.234L15.2282 140.595C16.2711 141.071 17.3437 141.479 18.4392 141.816C18.9851 141.976 19.539 142.08 20.0447 142.217L20.8475 142.41C21.1204 142.466 21.3933 142.482 21.6502 142.522L23.2557 142.731C23.7936 142.787 24.3314 142.731 24.8612 142.795C25.9115 142.83 26.963 142.793 28.008 142.683H28.3933L28.7706 142.618L29.5252 142.49C30.0229 142.394 30.5206 142.329 31.0023 142.209L32.4312 141.816L33.1376 141.623L33.8119 141.358L35.1365 140.844C35.3556 140.766 35.5678 140.669 35.7706 140.555L36.3968 140.242C36.8062 140.033 37.1995 139.841 37.6089 139.624L38.7328 138.91C41.4044 137.201 43.719 134.99 45.5482 132.399C45.7489 132.118 45.9576 131.845 46.1502 131.597L46.6479 130.746L47.1296 129.943C47.2099 129.806 47.2901 129.678 47.3624 129.542C47.4346 129.405 47.4828 129.261 47.547 129.124L48.2695 127.567C48.4782 127.069 48.6227 126.563 48.7913 126.106L49.0321 125.423C49.111 125.215 49.1728 125 49.2167 124.781L49.5057 123.585C49.586 123.216 49.6823 122.879 49.7385 122.566C49.7947 122.253 49.8188 121.964 49.8589 121.707C49.9232 121.193 49.9794 120.808 50.0195 120.535C50.0596 120.262 50.0837 120.141 50.0837 120.141C50.0837 120.141 50.0837 120.278 50.0837 120.543L49.9392 121.715C49.9392 121.972 49.875 122.261 49.8349 122.574C49.7947 122.887 49.6904 123.232 49.6101 123.601C49.5298 123.97 49.4335 124.404 49.3372 124.797C49.2943 125.019 49.2325 125.236 49.1525 125.447C49.0722 125.672 49 125.897 48.9197 126.13C48.7511 126.595 48.6147 127.101 48.3979 127.607C48.1812 128.113 47.9323 128.626 47.6915 129.212L47.4989 129.63C47.4346 129.766 47.3463 129.903 47.2741 130.039C47.1135 130.304 46.953 130.585 46.7924 130.842C46.6319 131.099 46.4633 131.412 46.2947 131.709C46.1261 132.006 45.8933 132.263 45.6927 132.552C43.8481 135.129 41.523 137.326 38.8452 139.022L37.7133 139.744C37.32 139.961 36.9105 140.162 36.4931 140.371L35.875 140.692C35.6686 140.804 35.4539 140.901 35.2328 140.981L33.8922 141.503L33.2179 141.767L32.5115 141.968L31.0745 142.369C30.5849 142.49 30.0791 142.554 29.5814 142.65L28.8188 142.787L28.4415 142.851H28.0482C26.9981 142.967 25.9413 143.01 24.8853 142.98C24.3475 142.98 23.8016 142.98 23.2798 142.915L21.6743 142.707C21.3933 142.707 21.1204 142.65 20.8716 142.586L20.0688 142.402C19.5229 142.265 18.961 142.161 18.4151 142C17.3176 141.666 16.2447 141.255 15.2041 140.772L14.4014 140.411L14 140.226L13.6147 140.001L12.0654 139.102C11.5677 138.781 11.086 138.404 10.5963 138.059C10.3475 137.874 10.0906 137.714 9.86582 137.513L9.17546 136.911C8.19678 136.099 7.27668 135.219 6.42202 134.278L5.25803 132.793L4.96904 132.415L4.71216 132.014L4.20642 131.211L3.69266 130.408L3.25917 129.558L2.81766 128.691L2.60092 128.257L2.40826 127.783C2.16743 127.181 1.93463 126.571 1.70183 125.969C1.46904 125.367 1.34862 124.709 1.16399 124.075C-0.136281 118.855 0.300545 113.354 2.40826 108.405L3.21101 106.615C3.54014 106.053 3.86927 105.491 4.19037 104.929C4.27867 104.793 4.35092 104.648 4.43922 104.512L4.72018 104.118L5.29014 103.316L5.85206 102.513L6.48624 101.79L7.11238 101.076L7.42546 100.723L7.77064 100.394L9.14335 99.1011C10.0957 98.3103 11.1016 97.5861 12.1537 96.9337L12.9564 96.444C13.2133 96.2754 13.4943 96.1631 13.7592 96.0186C14.297 95.7537 14.8268 95.4566 15.3647 95.2158L17.0344 94.5656L17.4518 94.405L17.8693 94.2846L18.7202 94.0518C19.832 93.7397 20.9639 93.5037 22.1078 93.3454C22.6778 93.2732 23.2397 93.2491 23.8016 93.2009L24.6044 93.1447C24.8773 93.1447 25.1583 93.1447 25.4071 93.1447L27.0608 93.1929C27.6067 93.1929 28.1365 93.3213 28.6663 93.3855C29.7155 93.5155 30.7538 93.7221 31.7729 94.0037L32.1583 94.092C32.2787 94.092 32.3991 94.1722 32.5195 94.2124L33.25 94.4612C33.7317 94.6378 34.2213 94.7743 34.6789 94.967L36.1239 95.6734L36.7901 95.9784L37.4243 96.3397L38.6605 97.0621C38.8649 97.1792 39.0608 97.3107 39.2466 97.4555L39.8165 97.8649C40.1858 98.1378 40.5711 98.3947 40.9243 98.6677L41.9358 99.5507C44.3123 101.677 46.2558 104.242 47.6594 107.105C48.7379 109.253 49.4797 111.554 49.8589 113.928C49.8991 114.169 49.9392 114.41 49.9794 114.634C50.021 114.857 50.0478 115.082 50.0596 115.309C50.0596 115.742 50.1239 116.152 50.1479 116.529C50.172 116.906 50.2041 117.259 50.2122 117.58C50.2202 117.902 50.2122 118.191 50.2122 118.455C50.2122 118.969 50.2122 119.363 50.2122 119.636L50.1078 120.021Z" fill="#263238"/>
<rect x="157.95" y="1.04492" width="165.728" height="251.575" fill="white"/>
<rect x="157.612" y="13.8569" width="165.776" height="108.267" fill="#F5F5F5"/>
<path d="M306.338 158.071C306.338 158.192 277.937 158.28 242.921 158.28C207.905 158.28 179.503 158.192 179.503 158.071C179.503 157.951 207.897 157.863 242.921 157.863C277.945 157.863 306.338 157.959 306.338 158.071Z" fill="black"/>
<path d="M279.261 164.855C279.261 164.967 262.99 165.063 242.913 165.063C222.836 165.063 206.556 164.967 206.556 164.855C206.556 164.742 222.836 164.646 242.913 164.646C262.99 164.646 279.261 164.71 279.261 164.855Z" fill="black"/>
<path fill-rule="evenodd" clip-rule="evenodd" d="M269.732 52.7078C276.02 60.6012 275.178 72.004 267.798 78.8878C262.126 84.1869 253.835 85.5808 246.742 82.428L217.482 109.722L208.467 107.45L208.836 101.405L211.292 99.1092L215.017 100.153L214.439 96.139L218.67 92.1975L224.771 93.9073L223.791 87.4211L228.712 82.8294L234.821 84.4991L233.874 77.9727L237.807 74.3041C232.821 65.5302 235.423 54.3964 243.782 48.7416C252.141 43.0869 263.443 44.8143 269.732 52.7078ZM265.903 61.2026C266.833 59.1601 266.44 56.7585 264.908 55.1184C262.819 52.8814 259.313 52.7592 257.073 54.8454C255.431 56.375 254.873 58.7435 255.658 60.8457C256.443 62.948 258.418 64.3699 260.661 64.448C262.904 64.5262 264.973 63.2451 265.903 61.2026Z" fill="#263238"/>
<path d="M264.908 55.1183C264.908 55.1183 264.547 54.7812 263.808 54.3156C262.759 53.6881 261.532 53.4203 260.317 53.553C257.58 53.8483 255.516 56.1762 255.551 58.9287C255.587 61.6812 257.709 63.9556 260.452 64.1809C263.196 64.4061 265.661 62.5083 266.144 59.7984C266.368 58.5957 266.184 57.353 265.623 56.2663C265.221 55.4635 264.868 55.1424 264.908 55.1103C264.948 55.0782 265.013 55.1826 265.173 55.3511C265.409 55.5943 265.617 55.8636 265.791 56.1539C266.444 57.2611 266.688 58.5619 266.482 59.8305C266.24 61.3552 265.39 62.7169 264.127 63.6048C262.864 64.4926 261.295 64.831 259.779 64.5426C257.295 64.0874 255.404 62.0586 255.123 59.5495C254.941 58.0175 255.387 56.4771 256.359 55.2794C257.332 54.0816 258.748 53.3285 260.284 53.1917C261.567 53.0733 262.851 53.4085 263.913 54.139C264.207 54.3276 264.476 54.5513 264.716 54.8053C264.908 55.014 264.956 55.1103 264.908 55.1183Z" fill="#263238"/>
<path d="M267.798 78.8878C267.798 78.8878 267.71 78.9842 267.517 79.1527L266.666 79.9555C265.513 80.8948 264.258 81.7026 262.925 82.3638C257.792 84.8227 251.839 84.9078 246.638 82.5965H246.798L217.586 109.938L217.506 110.027H217.385L208.37 107.763L208.186 107.723V107.53C208.298 105.644 208.419 103.58 208.547 101.485V101.293L208.611 101.228L211.124 98.8844L211.212 98.7961H211.341L215.065 99.8397L214.768 100.097C214.584 98.8523 214.391 97.4876 214.19 96.0828V95.9624L214.279 95.8821L218.509 91.9326L218.606 91.8362H218.734L224.835 93.5461L224.538 93.811C224.241 91.7399 223.92 89.5243 223.599 87.2846V87.1562L223.695 87.0759L224.995 85.8557L228.616 82.4842L228.712 82.3878H228.841L234.95 84.0977L234.644 84.3626C234.329 82.1631 234.016 79.9876 233.705 77.8362V77.7158L233.794 77.6275L237.727 73.9589L237.687 74.2479C236.165 71.5438 235.304 68.518 235.174 65.4177C235.099 63.9197 235.207 62.4182 235.495 60.9463C235.758 59.499 236.189 58.0873 236.78 56.7399C239.82 49.7822 246.621 45.2208 254.212 45.0485C261.803 44.8763 268.804 49.1245 272.157 55.9371C273.697 59.0852 274.355 62.5919 274.06 66.0839C273.856 68.687 273.118 71.2202 271.892 73.5254C271.772 73.7663 271.651 73.991 271.531 74.2158L271.138 74.8259C270.873 75.2193 270.656 75.6287 270.399 75.9257C269.877 76.5518 269.476 77.1138 269.083 77.5312L268.119 78.5988L267.806 78.8878C267.806 78.8878 267.894 78.7755 268.087 78.5667L268.954 77.6436C269.331 77.2422 269.757 76.6722 270.23 76.0381C270.471 75.7089 270.68 75.3236 270.937 74.9383C271.065 74.7376 271.194 74.5369 271.322 74.3202L271.675 73.6378C274.904 67.4254 274.488 59.9465 270.589 54.1309C266.691 48.3153 259.93 45.0891 252.957 45.7161C245.984 46.3431 239.908 50.7235 237.109 57.1413C236.537 58.4592 236.116 59.8382 235.857 61.2514C235.582 62.6898 235.48 64.1557 235.552 65.6183C235.689 68.6351 236.533 71.5774 238.016 74.2078L238.104 74.3683L237.968 74.4968L234.042 78.1654L234.115 77.9566C234.425 80.0973 234.738 82.2755 235.054 84.491L235.11 84.8523L234.749 84.756L228.648 83.0461L228.881 82.9899L225.26 86.3615L223.968 87.5576L224.04 87.3408C224.361 89.5805 224.682 91.8041 224.979 93.8672L225.036 94.2365L224.674 94.1401L218.573 92.4222L218.798 92.366C217.345 93.7307 215.9 95.0713 214.568 96.3156L214.648 96.1069C214.841 97.4796 215.033 98.8443 215.218 100.121L215.266 100.474L214.921 100.378L211.204 99.3339L211.421 99.2777L208.956 101.574L209.029 101.421C208.9 103.516 208.772 105.579 208.659 107.466L208.491 107.233L217.506 109.505L217.305 109.561L246.605 82.3156L246.678 82.2514H246.766C251.894 84.5591 257.774 84.518 262.869 82.139C264.198 81.5061 265.457 80.7366 266.626 79.8431L267.501 79.1126L267.798 78.8878Z" fill="#263238"/>
<path fill-rule="evenodd" clip-rule="evenodd" d="M269.084 50.5297C275.368 58.4203 274.524 69.8166 267.148 76.6964C261.474 82.0116 253.166 83.4067 246.068 80.2365L216.807 107.53L207.792 105.266L208.162 99.2216L210.626 96.9257L214.343 97.9613L213.773 93.9475L218.003 89.998L224.104 91.7078L223.165 85.1814L228.078 80.5817L234.179 82.2996L233.24 75.7652L237.165 72.1046C232.186 63.3326 234.792 52.2063 243.149 46.5578C251.505 40.9092 262.801 42.6391 269.084 50.5297ZM265.285 59.0111C266.214 56.9686 265.822 54.567 264.29 52.9269C263.288 51.8506 261.899 51.2171 260.429 51.1659C258.96 51.1147 257.53 51.65 256.455 52.6539C254.813 54.1835 254.254 56.552 255.04 58.6542C255.825 60.7565 257.8 62.1784 260.043 62.2565C262.286 62.3347 264.355 61.0536 265.285 59.0111Z" fill="#FC8802"/>
<path d="M264.29 52.9269C264.29 52.9269 263.929 52.5897 263.19 52.1241C262.151 51.4759 260.925 51.1934 259.706 51.3214C256.977 51.6214 254.922 53.9459 254.959 56.6914C254.996 59.437 257.113 61.7053 259.849 61.9318C262.586 62.1583 265.047 60.2689 265.534 57.5668C265.756 56.3632 265.569 55.1203 265.005 54.0347C264.603 53.2319 264.258 52.9108 264.29 52.8787C264.322 52.8466 264.394 52.9509 264.563 53.1195C264.796 53.3631 265.001 53.6324 265.173 53.9223C265.828 55.0315 266.073 56.3357 265.864 57.6069C265.619 59.1289 264.77 60.4877 263.51 61.375C262.249 62.2622 260.684 62.6027 259.169 62.3191C256.686 61.8883 254.779 59.8829 254.472 57.3821C254.295 55.851 254.743 54.313 255.715 53.1163C256.686 51.9197 258.099 51.1654 259.634 51.0243C260.918 50.9075 262.203 51.2456 263.263 51.9796C263.558 52.1658 263.828 52.3898 264.065 52.6459C264.234 52.8225 264.306 52.9188 264.29 52.9269Z" fill="#263238"/>
<path d="M267.148 76.6963C267.148 76.6963 267.06 76.7927 266.875 76.9612L266.024 77.7158C264.869 78.6527 263.614 79.4602 262.283 80.1241C257.147 82.5823 251.192 82.6673 245.987 80.3569H246.148L216.944 107.699L216.856 107.779H216.743L207.72 105.515L207.544 105.467V105.282C207.656 103.396 207.784 101.333 207.905 99.2376V99.1413L207.969 99.0851L210.433 96.7812L210.53 96.6929H210.658L214.375 97.7284L214.078 97.9934C213.901 96.7491 213.701 95.3844 213.5 93.9796V93.8592L213.596 93.7709L217.819 89.8294L217.915 89.733L218.052 89.7732L224.153 91.483L223.847 91.7479L222.908 85.2376V85.1092L222.997 85.0209L224.305 83.8087L227.917 80.4372L228.014 80.3408L228.15 80.381L234.251 82.0908L233.946 82.3557C233.63 80.1562 233.317 77.9807 233.007 75.8294V75.7009L233.103 75.6206L237.037 71.9521L236.989 72.2411C235.466 69.537 234.605 66.5112 234.476 63.4108C234.405 61.9129 234.513 60.4118 234.797 58.9395C235.061 57.4925 235.492 56.0809 236.081 54.733C239.854 45.9621 249.431 41.2219 258.693 43.5414C267.955 45.8608 274.168 54.5552 273.361 64.069C273.157 66.6719 272.419 69.2049 271.194 71.5106L270.833 72.2009L270.439 72.811C270.174 73.2044 269.958 73.6138 269.709 73.9108C269.187 74.5369 268.786 75.0989 268.392 75.5163L267.461 76.4073C267.26 76.608 267.148 76.7044 267.148 76.7044C267.148 76.7044 267.244 76.584 267.437 76.3752L268.296 75.4601C268.673 75.0587 269.099 74.4888 269.572 73.8546C269.813 73.5335 270.03 73.1482 270.287 72.7548L270.672 72.1447L271.017 71.4544C272.204 69.1619 272.911 66.6518 273.096 64.0771C273.801 54.7688 267.692 46.3085 258.635 44.0482C249.578 41.7879 240.211 46.386 236.459 54.9337C235.889 56.2519 235.471 57.6309 235.214 59.0438C234.936 60.4817 234.833 61.9481 234.909 63.4108C235.044 66.4269 235.885 69.3691 237.366 72.0002L237.462 72.1608L237.326 72.2892L233.392 75.9578L233.464 75.7491C233.78 77.8898 234.093 80.0652 234.404 82.2755L234.46 82.6447L234.107 82.5404L227.982 80.8225L228.206 80.7663L224.594 84.1459L223.286 85.358L223.358 85.1493C223.687 87.389 224 89.6046 224.297 91.6757L224.353 92.045L224 91.9406L217.891 90.2307L218.124 90.1745L213.893 94.1161L213.966 93.9154C214.158 95.2881 214.359 96.6447 214.536 97.889L214.584 98.2502L214.239 98.1539L210.522 97.1103L210.739 97.0541L208.282 99.35L208.354 99.1895C208.226 101.285 208.097 103.356 207.977 105.234L207.808 105.001L216.823 107.281L216.623 107.337L245.923 80.092L245.995 80.0278L246.084 80.0679C251.215 82.3639 257.089 82.3229 262.187 79.9555C263.517 79.3211 264.779 78.5518 265.952 77.6596L266.819 76.9291L267.148 76.6963Z" fill="#263238"/>
<path d="M265.374 75.1871C266.327 74.1668 267.197 73.0715 267.975 71.9119C268.855 70.5375 269.524 69.0383 269.958 67.4647C270.551 65.379 270.739 63.1991 270.511 61.0427C270.248 58.4368 269.376 55.9292 267.967 53.7216C266.343 51.1942 264.077 49.144 261.4 47.7812C259.966 47.0347 258.426 46.5147 256.833 46.2399C256.013 46.0869 255.185 45.9903 254.352 45.9509C253.502 45.9378 252.652 45.9807 251.807 46.0793C244.527 46.9144 238.643 52.4012 237.302 59.6057C237.144 60.441 237.042 61.2857 236.997 62.1344C236.98 62.9683 237.02 63.8025 237.117 64.631C237.279 66.2396 237.69 67.8132 238.337 69.2949C239.509 72.0613 241.399 74.4642 243.812 76.2548C245.912 77.8184 248.352 78.8636 250.932 79.3053C253.06 79.6824 255.24 79.6469 257.354 79.2009C258.955 78.8726 260.497 78.3071 261.93 77.5232C263.14 76.8316 264.292 76.0422 265.374 75.1631C265.374 75.1631 265.318 75.2353 265.181 75.3557L264.579 75.9016C264.257 76.1973 263.91 76.4658 263.544 76.7043C263.061 77.0696 262.551 77.397 262.018 77.6837C260.582 78.5065 259.028 79.1047 257.411 79.4578C249.356 81.2567 241.165 77.0547 237.928 69.4635C237.258 67.9334 236.83 66.3085 236.659 64.647C236.429 62.951 236.481 61.2287 236.812 59.5495C238.181 52.1354 244.236 46.4877 251.727 45.6378C253.446 45.4166 255.189 45.4763 256.889 45.8144C258.524 46.1082 260.105 46.6496 261.577 47.4199C264.318 48.8264 266.633 50.9414 268.28 53.5449C270.911 57.727 271.618 62.8376 270.222 67.5771C269.76 69.1694 269.053 70.6805 268.127 72.0564C267.809 72.5669 267.449 73.0502 267.052 73.5014C266.784 73.8513 266.489 74.1788 266.169 74.4807L265.583 75.0427C265.454 75.131 265.382 75.1952 265.374 75.1871Z" fill="#263238"/>
<path d="M264.595 61.4681C264.555 61.4681 264.997 61.0507 265.534 60.1918C266.291 58.9658 266.613 57.521 266.45 56.0897C266.224 53.9586 264.925 52.0906 263.006 51.1367C261.903 50.5721 260.655 50.3512 259.425 50.5025C257.467 50.7386 255.734 51.8801 254.743 53.5855C253.752 55.2908 253.619 57.3624 254.384 59.1803C254.826 60.2121 255.529 61.1112 256.423 61.7892C257.211 62.3759 258.123 62.7741 259.088 62.9532C260.506 63.2146 261.971 62.9913 263.247 62.3191C264.146 61.8454 264.555 61.428 264.595 61.4681C264.635 61.5083 264.507 61.5885 264.306 61.7732C264.014 62.0511 263.687 62.2911 263.335 62.4876C261.089 63.7884 258.287 63.6404 256.19 62.1103C254.095 60.5945 253.063 58.0052 253.541 55.4635C254.073 52.5664 256.442 50.3608 259.369 50.0369C260.692 49.8771 262.032 50.1206 263.214 50.7353C264.281 51.2915 265.179 52.123 265.815 53.1436C267.185 55.344 267.138 58.143 265.695 60.2961C265.465 60.6324 265.196 60.9396 264.892 61.2113C264.716 61.3959 264.603 61.4842 264.595 61.4681Z" fill="#263238"/>
<path d="M214.431 106.422C214.343 106.326 220.925 100 229.146 92.3661C237.366 84.7319 244.101 78.5668 244.189 78.6631C244.278 78.7594 237.695 85.0851 229.475 92.7193C221.255 100.353 214.519 106.519 214.431 106.422Z" fill="#263238"/>
<path d="M218.06 68.1149L218.333 67.5209L218.686 68.0667C218.974 68.5028 219.381 68.848 219.858 69.0622L220.46 69.3271L219.914 69.6883C219.474 69.9747 219.126 70.3815 218.911 70.8603L218.646 71.4544L218.284 70.9085C217.997 70.4712 217.59 70.1257 217.112 69.9131L216.518 69.6482L217.064 69.2869C217.504 69.0025 217.85 68.5949 218.06 68.1149Z" fill="#FC8802"/>
<path d="M200.15 63.6516L200.303 63.3065L200.511 63.6195C200.677 63.8754 200.914 64.0765 201.194 64.1975L201.539 64.3581L201.218 64.5668C200.966 64.7327 200.765 64.9664 200.64 65.2411L200.487 65.5943L200.279 65.2732C200.113 65.0173 199.876 64.8162 199.596 64.6952L199.251 64.5347L199.564 64.334C199.819 64.1647 200.021 63.9286 200.15 63.6516Z" fill="#FC8802"/>
<path d="M256.56 94.1803L256.712 93.8351L256.921 94.1562C257.093 94.4062 257.328 94.6058 257.603 94.7342L257.948 94.8867L257.635 95.0954C257.379 95.2607 257.178 95.4982 257.057 95.7777L256.897 96.1229L256.688 95.8099C256.523 95.5547 256.289 95.3515 256.014 95.2238L255.661 95.0713L255.982 94.8626C256.238 94.6973 256.439 94.4598 256.56 94.1803Z" fill="#FC8802"/>
<path d="M284.174 78.5266L284.439 77.9326L284.8 78.4784C285.087 78.916 285.494 79.2616 285.972 79.4738L286.567 79.7387L286.021 80.1C285.583 80.3865 285.237 80.7935 285.025 81.272L284.752 81.866L284.399 81.3202C284.108 80.8861 283.702 80.5415 283.227 80.3248L282.625 80.0598L283.171 79.6986C283.611 79.4122 283.959 79.0054 284.174 78.5266Z" fill="#FC8802"/>
<path d="M280.586 56.5954L281.036 55.592L281.638 56.5151C282.121 57.2491 282.803 57.8309 283.604 58.1929L284.608 58.6344L283.685 59.2365C282.952 59.725 282.371 60.4091 282.007 61.2112L281.557 62.2147L280.955 61.2915C280.472 60.5575 279.79 59.9758 278.989 59.6138L277.985 59.1642L278.908 58.5622C279.642 58.0784 280.224 57.3965 280.586 56.5954Z" fill="#FC8802"/>
<path d="M212.497 49.8363L212.946 48.8328L213.548 49.748C214.03 50.484 214.712 51.0664 215.515 51.4257L216.518 51.8753L215.603 52.4773C214.865 52.9563 214.282 53.6396 213.925 54.4441L213.476 55.4475L212.874 54.5324C212.391 53.7942 211.705 53.2115 210.899 52.8546L209.904 52.4051L210.819 51.803C211.555 51.3216 212.137 50.639 212.497 49.8363Z" fill="#FC8802"/>
<path d="M297.725 202.688C297.725 202.688 297.982 202.688 298.479 202.624C298.792 202.619 299.104 202.584 299.411 202.52L299.997 202.423L300.663 202.247C301.829 201.946 302.936 201.452 303.938 200.786C306.141 199.344 307.784 197.191 308.594 194.685C308.918 193.661 309.097 192.596 309.124 191.522C309.124 190.96 309.124 190.374 309.124 189.796L309.076 188.913C309.076 188.616 308.987 188.319 308.939 188.022C308.707 186.781 308.276 185.586 307.663 184.482C306.274 182.025 304.023 180.172 301.345 179.28C299.891 178.816 298.366 178.615 296.842 178.686H291.977L188.109 178.75C185.611 178.752 183.185 179.579 181.205 181.102C180.239 181.857 179.394 182.756 178.701 183.767C178.027 184.782 177.52 185.899 177.2 187.075C177.041 187.66 176.926 188.255 176.854 188.857C176.854 189.459 176.774 190.061 176.79 190.679C176.756 191.882 176.902 193.084 177.224 194.243C177.554 195.382 178.055 196.465 178.709 197.454C179.383 198.425 180.194 199.293 181.117 200.031C182.036 200.76 183.066 201.338 184.167 201.741C184.709 201.943 185.264 202.107 185.829 202.231C186.399 202.337 186.976 202.404 187.555 202.431C189.875 202.488 192.219 202.431 194.515 202.431H208.009L254.705 202.472L286.189 202.544L294.747 202.584H296.978H297.733C297.733 202.584 297.476 202.584 296.978 202.584H294.747L286.189 202.624L254.705 202.688L208.009 202.736H194.507C192.203 202.736 189.891 202.736 187.523 202.736C186.925 202.709 186.33 202.642 185.741 202.536C185.154 202.405 184.578 202.233 184.015 202.022C182.875 201.607 181.809 201.011 180.86 200.256C178.913 198.733 177.507 196.625 176.846 194.243C176.517 193.047 176.365 191.808 176.397 190.567C176.397 189.957 176.397 189.323 176.461 188.704C176.537 188.081 176.658 187.464 176.822 186.858C177.156 185.638 177.682 184.478 178.38 183.422C179.096 182.371 179.974 181.439 180.981 180.661C183.034 179.092 185.549 178.245 188.133 178.253L292.001 178.309H296.866C298.421 178.247 299.974 178.457 301.458 178.927C304.183 179.854 306.47 181.755 307.88 184.265C308.504 185.394 308.94 186.617 309.172 187.886L309.308 188.793C309.308 189.098 309.308 189.395 309.308 189.692C309.308 190.286 309.308 190.856 309.308 191.434C309.273 192.525 309.087 193.605 308.755 194.645C308.44 195.582 308.011 196.477 307.478 197.31C306.585 198.711 305.396 199.9 303.994 200.794C302.973 201.455 301.851 201.943 300.671 202.239L299.997 202.399L299.403 202.488C299.095 202.543 298.784 202.573 298.471 202.576L297.725 202.688Z" fill="#263238"/>
<rect x="176.581" y="207.85" width="132.663" height="24.1388" rx="12.0694" fill="#FC8802"/>
<path d="M203.217 195.431C203.201 195.194 203.201 194.955 203.217 194.717C203.217 194.219 203.217 193.569 203.177 192.766C203.177 191.048 203.128 188.672 203.088 185.806L203.257 185.967L188.912 186.015L189.12 185.806V188.327C189.12 189.13 189.12 189.981 189.12 190.783C189.12 192.389 189.12 193.946 189.12 195.415L188.928 195.223L199.211 195.319L202.181 195.367H202.984H203.273C202.937 195.405 202.599 195.422 202.261 195.415L199.331 195.464L188.896 195.56H188.647V195.367C188.647 193.898 188.647 192.349 188.647 190.735C188.647 189.933 188.647 189.13 188.647 188.279V185.822C188.462 186.007 188.904 185.566 188.856 185.606L203.201 185.654H203.369V185.822C203.329 188.736 203.297 191.145 203.281 192.887C203.281 193.689 203.281 194.316 203.233 194.805C203.242 195.014 203.236 195.223 203.217 195.431Z" fill="#263238"/>
<path d="M203.217 185.806C202.596 186.497 201.925 187.141 201.21 187.733C199.942 188.889 198.159 190.454 196.185 192.172H195.872L195.823 192.132L195.727 192.052L195.542 191.891L195.181 191.578L194.475 190.96L193.134 189.78L190.886 187.773C190.171 187.181 189.501 186.537 188.88 185.847C189.647 186.343 190.374 186.899 191.055 187.508L193.359 189.451L194.716 190.607L195.43 191.217L195.799 191.538L195.976 191.699L196.072 191.771L196.12 191.811H195.872C197.854 190.101 199.661 188.6 200.985 187.468C201.684 186.856 202.43 186.3 203.217 185.806Z" fill="#263238"/>
<path d="M194.049 190.286C193.356 191.284 192.548 192.198 191.641 193.007C190.822 193.91 189.904 194.718 188.904 195.415C189.602 194.421 190.41 193.508 191.312 192.694C192.133 191.793 193.051 190.985 194.049 190.286V190.286Z" fill="#263238"/>
<path d="M203.217 195.431C202.26 194.673 201.396 193.805 200.64 192.847C199.782 191.981 199.022 191.022 198.376 189.989C199.33 190.75 200.194 191.617 200.953 192.574C201.814 193.437 202.574 194.396 203.217 195.431Z" fill="#263238"/>
<path d="M211.878 192.542V192.863H208.547V188.046H211.758V188.367H208.884V190.27H211.453V190.583H208.884V192.558L211.878 192.542Z" fill="#263238"/>
<path d="M218.967 190.759V192.863H218.622V190.783C218.622 189.981 218.196 189.539 217.498 189.539C217.128 189.523 216.77 189.669 216.517 189.939C216.264 190.209 216.141 190.576 216.181 190.944V192.863H215.836V190.783C215.836 189.981 215.411 189.539 214.712 189.539C214.342 189.523 213.984 189.669 213.731 189.939C213.478 190.209 213.355 190.576 213.396 190.944V192.863H213.05V189.258H213.38V190.061C213.633 189.537 214.18 189.22 214.76 189.258C215.347 189.209 215.89 189.567 216.077 190.125C216.34 189.568 216.914 189.225 217.53 189.258C217.931 189.229 218.324 189.38 218.601 189.671C218.879 189.961 219.013 190.36 218.967 190.759Z" fill="#263238"/>
<path fill-rule="evenodd" clip-rule="evenodd" d="M222.981 192.863V190.575C223.022 190.199 222.887 189.826 222.615 189.564C222.343 189.301 221.965 189.18 221.592 189.234C221.068 189.226 220.558 189.406 220.155 189.74L220.323 189.989C220.671 189.694 221.112 189.535 221.568 189.539C221.854 189.498 222.144 189.591 222.352 189.792C222.561 189.993 222.665 190.279 222.635 190.567V190.856H221.399C220.404 190.856 220.058 191.241 220.058 191.859C220.058 192.477 220.548 192.887 221.351 192.887C221.875 192.925 222.377 192.668 222.651 192.22V192.863H222.981ZM222.635 191.121V191.795C222.448 192.309 221.945 192.639 221.399 192.606C220.765 192.606 220.404 192.253 220.404 191.843C220.404 191.434 220.661 191.121 221.407 191.121H222.635Z" fill="#263238"/>
<path fill-rule="evenodd" clip-rule="evenodd" d="M224.391 187.912C224.326 187.964 224.289 188.036 224.289 188.11C224.289 188.265 224.446 188.391 224.639 188.391C224.832 188.391 224.989 188.265 224.989 188.11C224.989 187.955 224.832 187.829 224.639 187.829C224.546 187.829 224.457 187.859 224.391 187.912ZM224.889 189.258H224.419L224.459 192.863H224.889V189.258Z" fill="#263238"/>
<path d="M226.192 187.741H226.537V192.863H226.192V187.741Z" fill="#263238"/>
<path fill-rule="evenodd" clip-rule="evenodd" d="M215.178 221.336L216.478 223.159L216.96 223.134L215.595 221.232C216.374 221.044 216.909 220.33 216.872 219.53C216.872 218.374 216.045 217.692 214.68 217.692H212.729V223.118H213.091V221.336H214.648C214.824 221.349 215.001 221.349 215.178 221.336ZM216.438 219.554C216.438 220.485 215.812 221.031 214.648 221.031H213.091V218.069H214.648C215.812 218.069 216.438 218.623 216.438 219.554Z" fill="white"/>
<path fill-rule="evenodd" clip-rule="evenodd" d="M218.108 221.224H221.6C221.6 221.184 221.608 221.119 221.608 221.119C221.654 220.397 221.295 219.709 220.676 219.333C220.057 218.958 219.281 218.958 218.662 219.333C218.043 219.709 217.684 220.397 217.73 221.119C217.71 221.677 217.924 222.218 218.32 222.61C218.717 223.002 219.26 223.21 219.818 223.183C220.402 223.206 220.966 222.964 221.351 222.524L221.126 222.267C220.799 222.64 220.322 222.847 219.826 222.829C219.381 222.861 218.943 222.705 218.617 222.401C218.291 222.096 218.107 221.67 218.108 221.224ZM221.23 220.919H218.116C218.116 220.059 218.813 219.361 219.673 219.361C220.533 219.361 221.23 220.059 221.23 220.919Z" fill="white"/>
<path d="M222.218 222.669L222.395 222.356C222.815 222.675 223.328 222.847 223.856 222.845C224.714 222.845 225.06 222.548 225.06 222.083C225.06 220.903 222.362 221.778 222.362 220.18C222.362 219.57 222.876 219.072 223.904 219.072C224.398 219.063 224.884 219.2 225.3 219.466L225.116 219.779C224.758 219.532 224.331 219.402 223.896 219.41C223.093 219.41 222.756 219.739 222.756 220.172C222.756 221.392 225.445 220.533 225.445 222.083C225.445 222.741 224.875 223.191 223.839 223.191C223.255 223.209 222.682 223.024 222.218 222.669Z" fill="white"/>
<path fill-rule="evenodd" clip-rule="evenodd" d="M226.472 221.224H229.964C229.964 221.184 229.972 221.103 229.972 221.103C230.006 220.571 229.816 220.049 229.449 219.662C229.082 219.276 228.571 219.059 228.038 219.064C227.501 219.061 226.987 219.28 226.618 219.67C226.248 220.059 226.056 220.584 226.087 221.119C226.069 221.678 226.284 222.218 226.682 222.61C227.08 223.002 227.624 223.21 228.182 223.183C228.766 223.204 229.329 222.962 229.716 222.524L229.491 222.267C229.164 222.64 228.686 222.847 228.19 222.829C227.745 222.861 227.308 222.705 226.982 222.401C226.656 222.096 226.471 221.67 226.472 221.224ZM229.587 220.919H226.481C226.539 220.104 227.217 219.473 228.034 219.473C228.851 219.473 229.529 220.104 229.587 220.919Z" fill="white"/>
<path d="M233.192 222.902C232.966 223.09 232.682 223.192 232.389 223.191C232.087 223.221 231.788 223.114 231.574 222.899C231.361 222.684 231.256 222.384 231.289 222.083V219.434H230.542V219.097H231.289V218.214H231.674V219.097H232.967V219.434H231.674V222.051C231.674 222.572 231.931 222.853 232.429 222.853C232.661 222.86 232.887 222.78 233.063 222.629L233.192 222.902Z" fill="white"/>
<path fill-rule="evenodd" clip-rule="evenodd" d="M238.353 221.376C239.742 221.376 240.545 220.694 240.545 219.554C240.545 218.398 239.718 217.692 238.369 217.692H236.411V223.159H236.812V221.376H238.353ZM238.353 218.069C239.517 218.069 240.143 218.607 240.143 219.554C240.143 220.485 239.517 221.023 238.369 221.023H236.812V218.069H238.353Z" fill="white"/>
<path fill-rule="evenodd" clip-rule="evenodd" d="M244.655 223.159V220.582C244.7 220.155 244.544 219.731 244.232 219.435C243.921 219.139 243.49 219.005 243.065 219.072C242.48 219.07 241.912 219.271 241.46 219.642L241.653 219.923C242.042 219.586 242.542 219.404 243.057 219.41C243.382 219.363 243.709 219.469 243.945 219.697C244.18 219.924 244.297 220.248 244.261 220.574V220.895H242.873C241.741 220.895 241.355 221.344 241.355 222.035C241.355 222.725 241.909 223.191 242.817 223.191C243.407 223.238 243.974 222.945 244.278 222.436V223.159H244.655ZM244.261 221.2V221.962C244.046 222.534 243.482 222.896 242.873 222.853C242.15 222.853 241.741 222.452 241.741 222.003C241.741 221.553 242.038 221.2 242.881 221.2H244.261Z" fill="white"/>
<path d="M245.642 222.669L245.819 222.356C246.237 222.678 246.752 222.851 247.28 222.845C248.139 222.845 248.476 222.548 248.476 222.083C248.476 220.903 245.787 221.778 245.787 220.18C245.787 219.57 246.3 219.072 247.328 219.072C247.82 219.062 248.303 219.199 248.717 219.466L248.54 219.779C248.181 219.533 247.755 219.403 247.32 219.41C246.517 219.41 246.172 219.739 246.172 220.172C246.172 221.392 248.869 220.533 248.869 222.083C248.869 222.741 248.299 223.191 247.264 223.191C246.679 223.21 246.106 223.026 245.642 222.669Z" fill="white"/>
<path d="M249.375 222.669L249.552 222.356C249.972 222.675 250.485 222.847 251.013 222.845C251.872 222.845 252.217 222.548 252.217 222.083C252.217 220.903 249.519 221.778 249.519 220.18C249.519 219.57 250.033 219.072 251.061 219.072C251.555 219.063 252.041 219.2 252.458 219.466L252.273 219.779C251.915 219.532 251.488 219.402 251.053 219.41C250.25 219.41 249.913 219.739 249.913 220.172C249.913 221.392 252.602 220.533 252.602 222.083C252.602 222.741 252.032 223.191 250.997 223.191C250.412 223.209 249.839 223.024 249.375 222.669Z" fill="white"/>
<path d="M259.417 219.097L257.876 223.158H257.507L256.142 219.634L254.761 223.158H254.408L252.867 219.097H253.236L254.593 222.725L255.982 219.097H256.311L257.692 222.717L259.056 219.097H259.417Z" fill="white"/>
<path fill-rule="evenodd" clip-rule="evenodd" d="M261.817 219.129C260.699 219.116 259.78 220.009 259.763 221.128C259.736 221.676 259.939 222.21 260.323 222.602C260.707 222.993 261.237 223.207 261.786 223.191C262.904 223.195 263.815 222.294 263.824 221.176C263.833 220.057 262.936 219.142 261.817 219.129ZM261.753 219.628C262.624 219.591 263.366 220.257 263.423 221.128C263.452 221.571 263.296 222.007 262.991 222.331C262.687 222.655 262.262 222.838 261.818 222.837C260.945 222.836 260.234 222.137 260.216 221.264C260.198 220.392 260.881 219.665 261.753 219.628Z" fill="white"/>
<path d="M266.947 219.072V219.45H266.851C265.952 219.45 265.414 220.052 265.414 221.055V223.167H265.029V219.105H265.398V219.996C265.662 219.386 266.286 219.014 266.947 219.072Z" fill="white"/>
<path fill-rule="evenodd" clip-rule="evenodd" d="M271.587 223.159V217.387H271.202V220.044C270.881 219.431 270.239 219.055 269.548 219.072C268.461 219.14 267.614 220.042 267.614 221.132C267.614 222.221 268.461 223.123 269.548 223.191C270.246 223.21 270.893 222.826 271.21 222.203V223.159H271.587ZM269.531 219.628C270.403 219.591 271.145 220.257 271.202 221.128C271.231 221.571 271.074 222.007 270.77 222.331C270.466 222.655 270.041 222.838 269.596 222.837C268.724 222.836 268.012 222.137 267.995 221.264C267.977 220.392 268.659 219.665 269.531 219.628Z" fill="white"/>
<path d="M323.381 13.8569C323.381 13.9693 286.269 14.0657 240.497 14.0657C194.724 14.0657 157.612 13.9693 157.612 13.8569C157.612 13.7446 194.716 13.6482 240.497 13.6482C286.278 13.6482 323.381 13.7446 323.381 13.8569Z" fill="#263238"/>
<path d="M166.972 7.27428C166.968 8.38603 166.064 9.2841 164.952 9.28115C163.84 9.2782 162.941 8.37534 162.943 7.26359C162.944 6.15183 163.846 5.25135 164.958 5.25134C165.493 5.25134 166.007 5.46472 166.385 5.84433C166.763 6.22394 166.975 6.7385 166.972 7.27428Z" fill="#263238"/>
<path d="M172.8 7.27428C172.796 8.38603 171.892 9.2841 170.78 9.28115C169.668 9.2782 168.769 8.37534 168.771 7.26359C168.772 6.15183 169.674 5.25135 170.786 5.25134C171.321 5.25134 171.835 5.46472 172.213 5.84433C172.591 6.22394 172.803 6.7385 172.8 7.27428Z" fill="#263238"/>
<path d="M178.596 7.2743C178.593 8.0907 178.097 8.82441 177.341 9.13228C176.585 9.44015 175.718 9.26132 175.145 8.67944C174.573 8.09756 174.408 7.22764 174.728 6.47653C175.048 5.72543 175.789 5.24161 176.606 5.25137C177.712 5.26458 178.601 6.16771 178.596 7.2743Z" fill="#263238"/>
<path d="M323.678 252.611C323.678 250.894 323.597 149.105 323.485 1.04496L323.678 1.23762H157.677L157.885 1.02891C157.885 95.9624 157.885 183.486 157.837 252.595L157.677 252.435L323.694 252.595L157.677 252.764H157.508V252.595C157.508 183.486 157.508 95.9624 157.468 1.02891V0.82019H157.693H323.694H323.886V1.01285C323.758 149.105 323.678 250.902 323.678 252.611Z" fill="#263238"/>
<path d="M320.643 320.444C320.606 320.331 320.561 320.221 320.507 320.115C320.394 319.882 320.25 319.577 320.065 319.176C319.527 317.96 319.095 316.701 318.773 315.411C317.736 310.619 317.772 305.657 318.877 300.881C319.568 297.57 320.469 294.307 321.575 291.111C322.714 287.652 324.047 283.975 325.123 280.001C326.349 275.852 326.942 271.54 326.881 267.214C326.712 262.694 325.38 258.183 323.903 253.687C322.425 249.192 320.916 244.793 320.459 240.369C319.946 236.119 320.789 231.815 322.867 228.071C324.818 224.483 327.266 221.408 329.104 218.23C330.816 215.281 332.079 212.094 332.853 208.773C333.955 203.957 334.034 198.963 333.086 194.115C332.748 192.343 332.237 190.609 331.561 188.937C331.58 189.055 331.609 189.17 331.649 189.282C331.729 189.531 331.826 189.86 331.962 190.278C332.344 191.55 332.661 192.842 332.909 194.147C333.785 198.97 333.656 203.922 332.532 208.693C331.75 211.978 330.481 215.127 328.767 218.037C326.937 221.176 324.48 224.234 322.49 227.863C320.344 231.676 319.465 236.072 319.977 240.418C320.435 244.913 321.96 249.344 323.429 253.832C324.898 258.319 326.222 262.79 326.391 267.23C326.457 271.508 325.881 275.773 324.681 279.881C323.614 283.839 322.273 287.515 321.173 290.991C320.076 294.205 319.191 297.487 318.524 300.817C317.288 306.934 317.641 312.103 318.564 315.459C318.91 316.75 319.372 318.008 319.945 319.216L320.435 320.139C320.493 320.248 320.563 320.35 320.643 320.444Z" fill="#263238"/>
<path d="M326.648 221.336C326.648 221.336 330.373 209.423 323.686 202.447C323.58 202.332 323.418 202.286 323.267 202.331C323.117 202.375 323.005 202.501 322.979 202.656C322.626 204.623 322.177 210.611 326.648 221.336Z" fill="#FC8802"/>
<path d="M324.416 206.453C324.423 207.193 324.506 207.93 324.665 208.653C324.906 210.17 325.195 211.944 325.516 213.911C325.837 215.877 326.11 217.652 326.319 219.161C326.378 219.897 326.51 220.626 326.712 221.336C326.777 220.597 326.753 219.854 326.64 219.121C326.519 217.764 326.279 215.91 325.942 213.83C325.604 211.751 325.251 209.929 324.954 208.597C324.853 207.865 324.673 207.146 324.416 206.453H324.416Z" fill="#263238"/>
<path d="M322.273 249.425C322.273 249.425 319.993 237.158 310.826 234.116C310.679 234.068 310.517 234.106 310.406 234.213C310.295 234.321 310.253 234.481 310.296 234.63C310.898 236.532 313.306 242.039 322.273 249.425Z" fill="#FC8802"/>
<path d="M313.322 237.287C313.675 237.934 314.092 238.545 314.567 239.109L317.778 243.356C318.974 244.961 320.049 246.39 320.989 247.61C321.393 248.229 321.85 248.811 322.353 249.352C322.065 248.67 321.698 248.024 321.261 247.426C320.515 246.278 319.423 244.736 318.163 243.075C316.903 241.413 315.755 239.952 314.847 238.908C314.4 238.314 313.888 237.77 313.322 237.287Z" fill="#263238"/>
<path d="M324.745 280.21C324.745 280.21 326.134 267.808 318.243 262.236C318.116 262.147 317.95 262.135 317.812 262.206C317.674 262.277 317.586 262.418 317.585 262.574C317.609 264.572 318.315 270.537 324.745 280.21Z" fill="#FC8802"/>
<path d="M319.712 265.993C319.857 266.719 320.081 267.427 320.378 268.105C320.908 269.542 321.526 271.235 322.209 273.098C322.891 274.96 323.509 276.654 324.031 278.099C324.233 278.808 324.502 279.496 324.834 280.154C324.76 279.417 324.595 278.691 324.344 277.994C323.967 276.686 323.373 274.888 322.65 272.937C321.928 270.986 321.221 269.236 320.683 267.984C320.433 267.287 320.107 266.62 319.712 265.993Z" fill="#263238"/>
<path d="M317.842 311.18C317.842 311.18 318.781 298.73 310.697 293.447C310.568 293.358 310.4 293.35 310.263 293.427C310.126 293.504 310.045 293.652 310.055 293.809C310.151 295.799 311.066 301.74 317.842 311.18Z" fill="#FC8802"/>
<path d="M312.271 297.164C312.453 297.882 312.703 298.581 313.017 299.251C313.595 300.672 314.278 302.334 315.032 304.172C315.787 306.011 316.453 307.688 317.031 309.101C317.252 309.807 317.545 310.487 317.906 311.132C317.8 310.398 317.608 309.679 317.336 308.989C316.911 307.696 316.252 305.922 315.458 303.996C314.663 302.069 313.9 300.351 313.314 299.115C313.044 298.426 312.694 297.771 312.271 297.164L312.271 297.164Z" fill="#263238"/>
<path d="M332.002 210.868C332.002 210.868 343.064 205.089 343.281 195.431C343.283 195.276 343.199 195.132 343.063 195.058C342.926 194.984 342.76 194.991 342.631 195.078C340.985 196.218 336.433 200.127 332.002 210.868Z" fill="#FC8802"/>
<path d="M340.985 198.755C340.462 199.277 339.999 199.856 339.604 200.481L336.482 204.792C335.318 206.397 334.258 207.858 333.351 209.094C332.882 209.664 332.461 210.271 332.091 210.908C332.662 210.437 333.174 209.898 333.616 209.303C334.491 208.251 335.647 206.758 336.827 205.064C338.007 203.371 339.107 201.853 339.845 200.665C340.291 200.07 340.673 199.43 340.985 198.755V198.755Z" fill="#263238"/>
<path d="M320.122 236.452C320.122 236.452 331.537 231.339 332.339 221.705C332.358 221.549 332.284 221.395 332.151 221.311C332.017 221.227 331.847 221.227 331.713 221.312C329.979 222.372 325.195 226 320.122 236.452Z" fill="#FC8802"/>
<path d="M329.819 224.917C329.273 225.4 328.778 225.938 328.342 226.522L324.962 230.632L321.583 234.742C321.073 235.277 320.614 235.858 320.21 236.476C320.803 236.035 321.342 235.526 321.815 234.959C322.755 233.964 323.999 232.551 325.315 230.945C326.632 229.34 327.788 227.839 328.591 226.739C329.071 226.182 329.483 225.57 329.819 224.917Z" fill="#263238"/>
<path d="M326.672 264.982C326.672 264.982 334.499 255.261 330.83 246.326C330.773 246.181 330.639 246.08 330.483 246.065C330.328 246.049 330.177 246.122 330.092 246.254C329.04 247.955 326.439 253.374 326.672 264.982Z" fill="#FC8802"/>
<path d="M330.052 250.283C329.79 250.974 329.599 251.689 329.482 252.419C329.153 253.92 328.775 255.678 328.35 257.621L327.21 262.814C327.001 263.522 326.856 264.248 326.776 264.982C327.113 264.323 327.364 263.625 327.523 262.903C327.908 261.586 328.374 259.756 328.807 257.725C329.241 255.694 329.61 253.832 329.803 252.483C329.967 251.761 330.05 251.024 330.052 250.283Z" fill="#263238"/>
<path d="M318.925 298.561C318.925 298.561 330.228 293.279 330.87 283.638C330.882 283.484 330.806 283.336 330.673 283.256C330.541 283.177 330.375 283.178 330.244 283.261C328.55 284.32 323.83 288.029 318.925 298.561Z" fill="#FC8802"/>
<path d="M328.43 286.857C327.892 287.362 327.406 287.918 326.977 288.519L323.678 292.693C322.433 294.25 321.318 295.655 320.354 296.851C319.858 297.396 319.412 297.984 319.022 298.609C319.617 298.162 320.156 297.645 320.627 297.068C321.55 296.056 322.771 294.619 324.055 292.982C325.339 291.344 326.463 289.835 327.266 288.719C327.721 288.143 328.111 287.518 328.43 286.857V286.857Z" fill="#263238"/>
<path d="M296.408 249.497C296.408 249.497 296.408 249.593 296.408 249.77C296.408 249.946 296.408 250.251 296.408 250.572C296.448 251.327 296.489 252.339 296.545 253.599C296.689 256.264 296.898 259.973 297.139 264.412C297.942 268.923 300.245 273.933 303.336 278.789C305.6 282.369 307.976 285.629 310.031 288.655C311.892 291.299 313.566 294.07 315.04 296.947C316.013 298.898 316.8 300.935 317.392 303.032C317.593 303.779 317.737 304.357 317.826 304.758C317.859 304.965 317.916 305.167 317.994 305.36C317.981 305.15 317.954 304.941 317.914 304.734C317.858 304.333 317.737 303.739 317.569 302.984C317.036 300.853 316.289 298.782 315.337 296.803C313.898 293.887 312.243 291.083 310.384 288.414C308.353 285.364 305.985 282.105 303.729 278.54C300.663 273.724 298.375 268.779 297.532 264.332C297.219 259.892 296.954 256.192 296.769 253.535C296.665 252.274 296.585 251.263 296.529 250.508C296.529 250.195 296.464 249.93 296.448 249.705C296.441 249.635 296.428 249.565 296.408 249.497H296.408Z" fill="#263238"/>
<path d="M303.135 277.898C303.135 277.898 298.319 266.371 304.372 258.817C304.466 258.692 304.624 258.632 304.778 258.663C304.932 258.693 305.055 258.809 305.094 258.961C305.632 260.872 306.651 266.796 303.135 277.898Z" fill="#FC8802"/>
<path d="M304.01 262.822C303.804 263.534 303.677 264.266 303.633 265.006C303.464 266.355 303.272 268.217 303.119 270.312C302.967 272.407 302.903 274.27 302.903 275.642C302.854 276.381 302.9 277.123 303.039 277.85C303.168 277.124 303.232 276.388 303.232 275.65C303.336 274.117 303.456 272.327 303.585 270.344C303.713 268.361 303.85 266.563 303.962 265.03C304.051 264.298 304.067 263.558 304.01 262.822Z" fill="#263238"/>
<g opacity="0.3">
<path d="M303.135 277.898C303.135 277.898 298.319 266.371 304.372 258.817C304.466 258.692 304.624 258.632 304.778 258.663C304.932 258.693 305.055 258.809 305.094 258.961C305.632 260.872 306.651 266.796 303.135 277.898Z" fill="black"/>
</g>
<path d="M317.97 305.657C317.97 305.657 314.133 293.777 320.748 286.736C320.855 286.627 321.013 286.584 321.161 286.626C321.308 286.668 321.421 286.788 321.454 286.937C321.831 288.904 322.337 294.892 317.97 305.657Z" fill="#FC8802"/>
<path d="M320.057 290.742C319.793 291.434 319.608 292.153 319.503 292.886C319.222 294.218 318.885 296.097 318.564 298.128C318.243 300.158 318.026 302.061 317.914 303.426C317.823 304.161 317.823 304.906 317.914 305.641C318.099 304.928 318.222 304.2 318.283 303.466C318.508 301.949 318.773 300.166 319.086 298.2C319.399 296.233 319.656 294.459 319.889 292.942C320.02 292.216 320.076 291.479 320.057 290.742Z" fill="#263238"/>
<g opacity="0.3">
<path d="M317.97 305.657C317.97 305.657 314.133 293.777 320.748 286.736C320.855 286.627 321.013 286.584 321.161 286.626C321.308 286.668 321.421 286.788 321.454 286.937C321.831 288.904 322.337 294.892 317.97 305.657Z" fill="black"/>
</g>
<path d="M297.018 263.794C297.018 263.794 286.791 256.633 287.827 247.032C287.839 246.877 287.938 246.741 288.083 246.683C288.228 246.625 288.393 246.655 288.509 246.759C290.018 248.1 294.032 252.571 297.018 263.794Z" fill="#FC8802"/>
<g opacity="0.3">
<path d="M297.018 263.794C297.018 263.794 286.791 256.633 287.827 247.032C287.839 246.877 287.938 246.741 288.083 246.683C288.228 246.625 288.393 246.655 288.509 246.759C290.018 248.1 294.032 252.571 297.018 263.794Z" fill="black"/>
</g>
<path d="M289.697 250.605C289.905 251.314 290.19 251.997 290.548 252.644C291.126 253.88 291.977 255.566 292.956 257.396C293.936 259.226 294.899 260.864 295.63 262.012C295.991 262.66 296.428 263.263 296.93 263.81C296.656 263.124 296.317 262.465 295.919 261.843C295.18 260.502 294.313 258.921 293.366 257.179L290.829 252.499C290.517 251.831 290.137 251.196 289.697 250.605L289.697 250.605Z" fill="#263238"/>
<path d="M313.876 293.881C313.876 293.881 301.546 291.954 298.247 282.883C298.189 282.739 298.218 282.574 298.322 282.459C298.426 282.343 298.586 282.296 298.736 282.337C300.631 282.883 306.202 285.123 313.876 293.881Z" fill="#FC8802"/>
<g opacity="0.3">
<path d="M313.876 293.881C313.876 293.881 301.546 291.954 298.247 282.883C298.189 282.739 298.218 282.574 298.322 282.459C298.426 282.343 298.586 282.296 298.736 282.337C300.631 282.883 306.202 285.123 313.876 293.881Z" fill="black"/>
</g>
<path d="M301.45 285.283C301.945 285.833 302.503 286.323 303.111 286.744C304.179 287.595 305.68 288.735 307.374 289.955C309.068 291.176 310.649 292.211 311.813 292.918C312.422 293.343 313.079 293.693 313.772 293.961C313.221 293.466 312.625 293.025 311.99 292.645L307.647 289.578L303.312 286.488C302.732 286.026 302.108 285.623 301.45 285.283Z" fill="#263238"/>
<path d="M328.438 316.575L324.898 339.774L310.778 339.75L306.017 316.575H328.438Z" fill="#455A64"/>
<path d="M315.546 324.024C315.93 323.445 316.154 322.775 316.196 322.082C316.282 321.29 315.911 320.519 315.241 320.091C314.478 319.706 313.564 319.78 312.873 320.283C312.171 320.797 311.69 321.557 311.524 322.411C311.336 323.272 311.277 324.157 311.347 325.036C311.392 325.952 311.584 326.855 311.917 327.709C312.255 328.606 312.806 329.408 313.523 330.045C314.279 330.715 315.236 331.116 316.244 331.185C317.245 331.206 318.23 330.926 319.07 330.382C319.875 329.867 320.589 329.221 321.181 328.472C321.786 327.751 322.159 326.864 322.249 325.927C322.32 324.993 321.949 324.08 321.245 323.462C320.513 322.923 319.533 322.864 318.741 323.31C317.993 323.685 317.46 324.384 317.296 325.204C317.081 326.679 317.791 328.135 319.086 328.873C320.127 329.441 321.338 329.617 322.498 329.371C323.349 329.19 324.163 328.867 324.906 328.415C325.379 328.138 325.835 327.833 326.271 327.5C326.43 327.393 326.576 327.266 326.704 327.123C326.538 327.219 326.377 327.323 326.222 327.436C325.909 327.637 325.42 327.95 324.834 328.287C324.084 328.705 323.27 328.998 322.425 329.154C321.328 329.36 320.193 329.178 319.214 328.64C318.046 327.945 317.412 326.614 317.609 325.269C317.763 324.55 318.235 323.941 318.893 323.615C319.566 323.237 320.398 323.287 321.021 323.743C321.628 324.29 321.946 325.088 321.88 325.903C321.789 326.765 321.439 327.579 320.876 328.239C320.31 328.949 319.632 329.561 318.869 330.053C318.095 330.561 317.187 330.827 316.26 330.816C315.34 330.747 314.466 330.381 313.772 329.772C313.093 329.178 312.567 328.429 312.239 327.589C311.918 326.77 311.73 325.906 311.685 325.028C311.613 324.187 311.664 323.341 311.837 322.515C311.977 321.742 312.404 321.051 313.033 320.58C313.616 320.146 314.391 320.069 315.048 320.38C315.615 320.755 315.925 321.414 315.851 322.09C315.818 322.73 315.616 323.351 315.265 323.888C314.624 324.813 313.7 325.506 312.632 325.863C311.829 326.145 310.974 326.246 310.127 326.16C309.402 326.073 308.696 325.864 308.04 325.541C308.04 325.541 308.04 325.541 308.153 325.63C308.275 325.706 308.4 325.776 308.53 325.839C309.034 326.086 309.577 326.246 310.135 326.312C311.01 326.43 311.9 326.345 312.736 326.063C313.862 325.71 314.843 325 315.53 324.04" fill="#263238"/>
<path d="M204.232 145.146L202.312 141.81H201.268V145.146H199.9V136.806H202.78C203.42 136.806 203.96 136.918 204.4 137.142C204.848 137.366 205.18 137.666 205.396 138.042C205.62 138.418 205.732 138.838 205.732 139.302C205.732 139.846 205.572 140.342 205.252 140.79C204.94 141.23 204.456 141.53 203.8 141.69L205.864 145.146H204.232ZM201.268 140.718H202.78C203.292 140.718 203.676 140.59 203.932 140.334C204.196 140.078 204.328 139.734 204.328 139.302C204.328 138.87 204.2 138.534 203.944 138.294C203.688 138.046 203.3 137.922 202.78 137.922H201.268V140.718ZM213.542 141.678C213.542 141.926 213.526 142.15 213.494 142.35H208.442C208.482 142.878 208.678 143.302 209.03 143.622C209.382 143.942 209.814 144.102 210.326 144.102C211.062 144.102 211.582 143.794 211.886 143.178H213.362C213.162 143.786 212.798 144.286 212.27 144.678C211.75 145.062 211.102 145.254 210.326 145.254C209.694 145.254 209.126 145.114 208.622 144.834C208.126 144.546 207.734 144.146 207.446 143.634C207.166 143.114 207.026 142.514 207.026 141.834C207.026 141.154 207.162 140.558 207.434 140.046C207.714 139.526 208.102 139.126 208.598 138.846C209.102 138.566 209.678 138.426 210.326 138.426C210.95 138.426 211.506 138.562 211.994 138.834C212.482 139.106 212.862 139.49 213.134 139.986C213.406 140.474 213.542 141.038 213.542 141.678ZM212.114 141.246C212.106 140.742 211.926 140.338 211.574 140.034C211.222 139.73 210.786 139.578 210.266 139.578C209.794 139.578 209.39 139.73 209.054 140.034C208.718 140.33 208.518 140.734 208.454 141.246H212.114ZM217.288 145.254C216.768 145.254 216.3 145.162 215.884 144.978C215.476 144.786 215.152 144.53 214.912 144.21C214.672 143.882 214.544 143.518 214.528 143.118H215.944C215.968 143.398 216.1 143.634 216.34 143.826C216.588 144.01 216.896 144.102 217.264 144.102C217.648 144.102 217.944 144.03 218.152 143.886C218.368 143.734 218.476 143.542 218.476 143.31C218.476 143.062 218.356 142.878 218.116 142.758C217.884 142.638 217.512 142.506 217 142.362C216.504 142.226 216.1 142.094 215.788 141.966C215.476 141.838 215.204 141.642 214.972 141.378C214.748 141.114 214.636 140.766 214.636 140.334C214.636 139.982 214.74 139.662 214.948 139.374C215.156 139.078 215.452 138.846 215.836 138.678C216.228 138.51 216.676 138.426 217.18 138.426C217.932 138.426 218.536 138.618 218.992 139.002C219.456 139.378 219.704 139.894 219.736 140.55H218.368C218.344 140.254 218.224 140.018 218.008 139.842C217.792 139.666 217.5 139.578 217.132 139.578C216.772 139.578 216.496 139.646 216.304 139.782C216.112 139.918 216.016 140.098 216.016 140.322C216.016 140.498 216.08 140.646 216.208 140.766C216.336 140.886 216.492 140.982 216.676 141.054C216.86 141.118 217.132 141.202 217.492 141.306C217.972 141.434 218.364 141.566 218.668 141.702C218.98 141.83 219.248 142.022 219.472 142.278C219.696 142.534 219.812 142.874 219.82 143.298C219.82 143.674 219.716 144.01 219.508 144.306C219.3 144.602 219.004 144.834 218.62 145.002C218.244 145.17 217.8 145.254 217.288 145.254ZM227.358 141.678C227.358 141.926 227.342 142.15 227.31 142.35H222.258C222.298 142.878 222.494 143.302 222.846 143.622C223.198 143.942 223.63 144.102 224.142 144.102C224.878 144.102 225.398 143.794 225.702 143.178H227.178C226.978 143.786 226.614 144.286 226.086 144.678C225.566 145.062 224.918 145.254 224.142 145.254C223.51 145.254 222.942 145.114 222.438 144.834C221.942 144.546 221.55 144.146 221.262 143.634C220.982 143.114 220.842 142.514 220.842 141.834C220.842 141.154 220.978 140.558 221.25 140.046C221.53 139.526 221.918 139.126 222.414 138.846C222.918 138.566 223.494 138.426 224.142 138.426C224.766 138.426 225.322 138.562 225.81 138.834C226.298 139.106 226.678 139.49 226.95 139.986C227.222 140.474 227.358 141.038 227.358 141.678ZM225.93 141.246C225.922 140.742 225.742 140.338 225.39 140.034C225.038 139.73 224.602 139.578 224.082 139.578C223.61 139.578 223.206 139.73 222.87 140.034C222.534 140.33 222.334 140.734 222.27 141.246H225.93ZM230.301 139.65V143.31C230.301 143.558 230.357 143.738 230.469 143.85C230.589 143.954 230.789 144.006 231.069 144.006H231.909V145.146H230.829C230.213 145.146 229.741 145.002 229.413 144.714C229.085 144.426 228.921 143.958 228.921 143.31V139.65H228.141V138.534H228.921V136.89H230.301V138.534H231.909V139.65H230.301ZM242.119 139.29C242.119 139.714 242.019 140.114 241.819 140.49C241.619 140.866 241.299 141.174 240.859 141.414C240.419 141.646 239.855 141.762 239.167 141.762H237.655V145.146H236.287V136.806H239.167C239.807 136.806 240.347 136.918 240.787 137.142C241.235 137.358 241.567 137.654 241.783 138.03C242.007 138.406 242.119 138.826 242.119 139.29ZM239.167 140.646C239.687 140.646 240.075 140.53 240.331 140.298C240.587 140.058 240.715 139.722 240.715 139.29C240.715 138.378 240.199 137.922 239.167 137.922H237.655V140.646H239.167ZM242.967 141.81C242.967 141.146 243.103 140.558 243.375 140.046C243.655 139.534 244.031 139.138 244.503 138.858C244.983 138.57 245.511 138.426 246.087 138.426C246.607 138.426 247.059 138.53 247.443 138.738C247.835 138.938 248.147 139.19 248.379 139.494V138.534H249.759V145.146H248.379V144.162C248.147 144.474 247.831 144.734 247.431 144.942C247.031 145.15 246.575 145.254 246.063 145.254C245.495 145.254 244.975 145.11 244.503 144.822C244.031 144.526 243.655 144.118 243.375 143.598C243.103 143.07 242.967 142.474 242.967 141.81ZM248.379 141.834C248.379 141.378 248.283 140.982 248.091 140.646C247.907 140.31 247.663 140.054 247.359 139.878C247.055 139.702 246.727 139.614 246.375 139.614C246.023 139.614 245.695 139.702 245.391 139.878C245.087 140.046 244.839 140.298 244.647 140.634C244.463 140.962 244.371 141.354 244.371 141.81C244.371 142.266 244.463 142.666 244.647 143.01C244.839 143.354 245.087 143.618 245.391 143.802C245.703 143.978 246.031 144.066 246.375 144.066C246.727 144.066 247.055 143.978 247.359 143.802C247.663 143.626 247.907 143.37 248.091 143.034C248.283 142.69 248.379 142.29 248.379 141.834ZM253.956 145.254C253.436 145.254 252.968 145.162 252.552 144.978C252.144 144.786 251.82 144.53 251.58 144.21C251.34 143.882 251.212 143.518 251.196 143.118H252.612C252.636 143.398 252.768 143.634 253.008 143.826C253.256 144.01 253.564 144.102 253.932 144.102C254.316 144.102 254.612 144.03 254.82 143.886C255.036 143.734 255.144 143.542 255.144 143.31C255.144 143.062 255.024 142.878 254.784 142.758C254.552 142.638 254.18 142.506 253.668 142.362C253.172 142.226 252.768 142.094 252.456 141.966C252.144 141.838 251.872 141.642 251.64 141.378C251.416 141.114 251.304 140.766 251.304 140.334C251.304 139.982 251.408 139.662 251.616 139.374C251.824 139.078 252.12 138.846 252.504 138.678C252.896 138.51 253.344 138.426 253.848 138.426C254.6 138.426 255.204 138.618 255.66 139.002C256.124 139.378 256.372 139.894 256.404 140.55H255.036C255.012 140.254 254.892 140.018 254.676 139.842C254.46 139.666 254.168 139.578 253.8 139.578C253.44 139.578 253.164 139.646 252.972 139.782C252.78 139.918 252.684 140.098 252.684 140.322C252.684 140.498 252.748 140.646 252.876 140.766C253.004 140.886 253.16 140.982 253.344 141.054C253.528 141.118 253.8 141.202 254.16 141.306C254.64 141.434 255.032 141.566 255.336 141.702C255.648 141.83 255.916 142.022 256.14 142.278C256.364 142.534 256.48 142.874 256.488 143.298C256.488 143.674 256.384 144.01 256.176 144.306C255.968 144.602 255.672 144.834 255.288 145.002C254.912 145.17 254.468 145.254 253.956 145.254ZM260.366 145.254C259.846 145.254 259.378 145.162 258.962 144.978C258.554 144.786 258.23 144.53 257.99 144.21C257.75 143.882 257.622 143.518 257.606 143.118H259.022C259.046 143.398 259.178 143.634 259.418 143.826C259.666 144.01 259.974 144.102 260.342 144.102C260.726 144.102 261.022 144.03 261.23 143.886C261.446 143.734 261.554 143.542 261.554 143.31C261.554 143.062 261.434 142.878 261.194 142.758C260.962 142.638 260.59 142.506 260.078 142.362C259.582 142.226 259.178 142.094 258.866 141.966C258.554 141.838 258.282 141.642 258.05 141.378C257.826 141.114 257.714 140.766 257.714 140.334C257.714 139.982 257.818 139.662 258.026 139.374C258.234 139.078 258.53 138.846 258.914 138.678C259.306 138.51 259.754 138.426 260.258 138.426C261.01 138.426 261.614 138.618 262.07 139.002C262.534 139.378 262.782 139.894 262.814 140.55H261.446C261.422 140.254 261.302 140.018 261.086 139.842C260.87 139.666 260.578 139.578 260.21 139.578C259.85 139.578 259.574 139.646 259.382 139.782C259.19 139.918 259.094 140.098 259.094 140.322C259.094 140.498 259.158 140.646 259.286 140.766C259.414 140.886 259.57 140.982 259.754 141.054C259.938 141.118 260.21 141.202 260.57 141.306C261.05 141.434 261.442 141.566 261.746 141.702C262.058 141.83 262.326 142.022 262.55 142.278C262.774 142.534 262.89 142.874 262.898 143.298C262.898 143.674 262.794 144.01 262.586 144.306C262.378 144.602 262.082 144.834 261.698 145.002C261.322 145.17 260.878 145.254 260.366 145.254ZM273.257 138.534L271.205 145.146H269.765L268.433 140.262L267.101 145.146H265.661L263.597 138.534H264.989L266.369 143.85L267.773 138.534H269.201L270.545 143.826L271.913 138.534H273.257ZM277.147 145.254C276.523 145.254 275.959 145.114 275.455 144.834C274.951 144.546 274.555 144.146 274.267 143.634C273.979 143.114 273.835 142.514 273.835 141.834C273.835 141.162 273.983 140.566 274.279 140.046C274.575 139.526 274.979 139.126 275.491 138.846C276.003 138.566 276.575 138.426 277.207 138.426C277.839 138.426 278.411 138.566 278.923 138.846C279.435 139.126 279.839 139.526 280.135 140.046C280.431 140.566 280.579 141.162 280.579 141.834C280.579 142.506 280.427 143.102 280.123 143.622C279.819 144.142 279.403 144.546 278.875 144.834C278.355 145.114 277.779 145.254 277.147 145.254ZM277.147 144.066C277.499 144.066 277.827 143.982 278.131 143.814C278.443 143.646 278.695 143.394 278.887 143.058C279.079 142.722 279.175 142.314 279.175 141.834C279.175 141.354 279.083 140.95 278.899 140.622C278.715 140.286 278.471 140.034 278.167 139.866C277.863 139.698 277.535 139.614 277.183 139.614C276.831 139.614 276.503 139.698 276.199 139.866C275.903 140.034 275.667 140.286 275.491 140.622C275.315 140.95 275.227 141.354 275.227 141.834C275.227 142.546 275.407 143.098 275.767 143.49C276.135 143.874 276.595 144.066 277.147 144.066ZM283.299 139.494C283.499 139.158 283.763 138.898 284.091 138.714C284.427 138.522 284.823 138.426 285.279 138.426V139.842H284.931C284.395 139.842 283.987 139.978 283.707 140.25C283.435 140.522 283.299 140.994 283.299 141.666V145.146H281.931V138.534H283.299V139.494ZM286.081 141.81C286.081 141.146 286.217 140.558 286.489 140.046C286.769 139.534 287.145 139.138 287.617 138.858C288.097 138.57 288.629 138.426 289.213 138.426C289.645 138.426 290.069 138.522 290.485 138.714C290.909 138.898 291.245 139.146 291.493 139.458V136.266H292.873V145.146H291.493V144.15C291.269 144.47 290.957 144.734 290.557 144.942C290.165 145.15 289.713 145.254 289.201 145.254C288.625 145.254 288.097 145.11 287.617 144.822C287.145 144.526 286.769 144.118 286.489 143.598C286.217 143.07 286.081 142.474 286.081 141.81ZM291.493 141.834C291.493 141.378 291.397 140.982 291.205 140.646C291.021 140.31 290.777 140.054 290.473 139.878C290.169 139.702 289.841 139.614 289.489 139.614C289.137 139.614 288.809 139.702 288.505 139.878C288.201 140.046 287.953 140.298 287.761 140.634C287.577 140.962 287.485 141.354 287.485 141.81C287.485 142.266 287.577 142.666 287.761 143.01C287.953 143.354 288.201 143.618 288.505 143.802C288.817 143.978 289.145 144.066 289.489 144.066C289.841 144.066 290.169 143.978 290.473 143.802C290.777 143.626 291.021 143.37 291.205 143.034C291.397 142.69 291.493 142.29 291.493 141.834Z" fill="#353131"/>
</g>
<defs>
<clipPath id="clip0_6134_2102">
<rect width="344" height="350" fill="white" transform="translate(0 0.82019)"/>
</clipPath>
</defs>
</svg>
