<svg width="480" height="341" viewBox="0 0 480 341" fill="none" xmlns="http://www.w3.org/2000/svg">
<path d="M79.6402 325.453C95.1897 312.594 97.2008 290.984 94.9987 271.894C94.6279 268.705 94.7066 265.311 92.9539 262.633C91.2012 259.954 87.4936 258.331 84.7297 259.92C82.4827 261.237 81.6288 264.086 80.4828 266.48C78.9421 269.697 76.5359 272.411 73.5395 274.312C71.5846 275.537 69.1128 276.388 67.0006 275.446C64.1132 274.153 63.484 270.373 63.2481 267.195C62.7987 261.271 62.3568 255.343 61.9223 249.41C61.8484 246.216 61.2641 243.054 60.1921 240.047C58.9563 237.119 56.5407 234.497 53.451 233.907C50.3614 233.317 46.7099 235.36 46.3504 238.526C46.336 239.854 46.411 241.181 46.5751 242.499C46.7056 243.844 46.0353 245.141 44.8674 245.801C43.6315 246.278 42.2833 245.484 41.2496 244.666C37.6993 241.738 35.1265 237.788 32.7109 233.85C30.2953 229.912 27.9247 225.905 24.6553 222.614C21.3859 219.323 17.0266 216.939 12.4427 217.053C7.85872 217.166 3.2186 220.401 2.43214 224.997C1.64567 229.594 4.62299 233.907 7.76884 237.289C12.4542 242.285 17.8273 246.574 23.7228 250.023C24.8526 250.532 25.793 251.391 26.408 252.475C27.2731 254.541 25.4305 256.81 23.397 257.684C21.0825 258.672 18.476 258.638 16.0155 259.137C13.555 259.636 10.9484 260.953 10.1956 263.37C9.162 266.775 12.1618 269.908 15.0155 271.917C20.7666 275.939 27.1531 278.944 33.9018 280.803C36.3174 281.462 38.8453 282.007 40.8676 283.493C42.89 284.98 44.2382 287.738 43.3057 290.076C42.3732 292.414 39.4745 293.367 36.9803 293.118C34.4861 292.868 32.1829 291.722 29.7673 291.041C25.2732 289.758 19.6556 290.53 17.1165 294.536C15.5938 297.307 15.4645 300.643 16.7682 303.525C18.076 306.352 19.9329 308.884 22.2285 310.971C29.8758 318.729 39.4191 324.305 49.8895 327.133C60.3382 329.8 69.8319 329.97 79.6402 325.453Z" fill="#EBEBEB"/>
<path d="M80.9996 339.628C79.3846 330.825 76.9275 322.2 73.663 313.876C69.6291 303.708 65.0111 293.787 59.8325 284.163L55.7766 276.581C54.4509 274.085 53.1364 271.61 51.6983 269.272C48.9423 264.791 45.9416 260.467 42.7101 256.322C39.6429 252.339 36.5757 248.661 33.722 245.257C30.8683 241.852 28.1044 238.731 25.4417 235.984C21.2983 231.642 16.8242 227.634 12.0606 223.999C10.3753 222.705 9.0271 221.729 8.11705 221.116L7.07218 220.39C6.95285 220.307 6.82908 220.231 6.70142 220.163C6.70142 220.163 6.81377 220.265 7.03847 220.435L8.06087 221.195C8.95968 221.854 10.3079 222.83 11.9482 224.146C16.6574 227.83 21.0854 231.867 25.1945 236.222C27.8123 238.969 30.5537 242.101 33.4299 245.518C36.3061 248.934 39.3396 252.611 42.418 256.595C45.6483 260.733 48.649 265.048 51.4061 269.522C52.833 271.849 54.1363 274.312 55.462 276.808L59.4842 284.401C64.6197 294.012 69.2184 303.905 73.2585 314.035C76.5269 322.329 79.0097 330.918 80.6737 339.685" fill="#E0E0E0"/>
<path d="M51.6083 269.216C51.7138 268.761 51.774 268.297 51.7881 267.831C51.878 266.946 51.9679 265.64 52.0577 264.04C52.2487 260.84 52.3611 256.413 52.4734 251.556C52.5858 246.698 52.7656 242.249 53.024 239.071C53.1363 237.471 53.2599 236.188 53.3498 235.292C53.4152 234.833 53.4453 234.37 53.4397 233.907C53.3008 234.35 53.2067 234.806 53.1588 235.269C53.0127 236.154 52.8442 237.448 52.6869 239.037C52.3386 242.238 52.1027 246.664 51.9903 251.522C51.878 256.379 51.7993 260.749 51.7319 264.006C51.6757 265.538 51.642 266.821 51.6083 267.797C51.563 268.269 51.563 268.744 51.6083 269.216Z" fill="#E0E0E0"/>
<path d="M10.0046 264.993H10.4316H11.6562C12.7123 264.993 14.2403 264.993 16.1503 265.05C19.9365 265.13 25.1384 265.425 30.9245 266.026C36.7106 266.628 41.8563 267.4 45.5864 268.069C47.4514 268.398 48.957 268.693 50.0018 268.898L51.1928 269.136C51.4736 269.136 51.6197 269.204 51.6197 269.136C51.4933 269.068 51.3566 269.022 51.2152 269L50.0355 268.671C49.0131 268.41 47.5076 268.058 45.6426 267.695C41.9237 266.934 36.7331 266.106 30.9695 265.493C25.2058 264.88 19.959 264.653 16.1503 264.664C14.2515 264.664 12.7797 264.664 11.6562 264.766L10.4428 264.846C10.29 264.872 10.1421 264.921 10.0046 264.993H10.0046Z" fill="#E0E0E0"/>
<path d="M73.1464 313.15C73.2347 312.978 73.3098 312.8 73.3711 312.616C73.5284 312.219 73.7081 311.708 73.9441 311.084C74.4384 309.745 75.0676 307.781 75.899 305.409C77.4831 300.563 79.4718 293.799 81.584 286.297C83.6962 278.795 85.6174 272.03 87.1229 267.161C87.8757 264.778 88.4824 262.826 88.9318 261.396C89.134 260.76 89.2913 260.261 89.4149 259.829C89.4839 259.65 89.5329 259.464 89.5609 259.273C89.4607 259.436 89.3815 259.612 89.325 259.795C89.1789 260.204 88.9879 260.715 88.752 261.339C88.2577 262.678 87.6285 264.63 86.8083 267.014C85.2129 271.86 83.2243 278.624 81.1233 286.126C79.0224 293.628 77.1236 300.416 75.5732 305.262C74.8316 307.645 74.2137 309.597 73.7755 311.016C73.5733 311.663 73.416 312.151 73.2812 312.594C73.2184 312.774 73.1732 312.96 73.1464 313.15Z" fill="#E0E0E0"/>
<path d="M17.2625 300.177C17.4365 300.262 17.622 300.319 17.813 300.347L19.4421 300.733L25.4417 302.118C30.4975 303.253 37.4633 304.989 45.1594 306.896C52.8555 308.803 59.8325 310.46 64.9108 311.55C67.4499 312.094 69.506 312.514 70.9328 312.775L72.5732 313.07C72.7651 313.115 72.9607 313.141 73.1574 313.15C72.9788 313.067 72.7898 313.01 72.5956 312.98L70.9665 312.594L64.9782 311.209C59.9224 310.074 52.9566 308.338 45.2717 306.431C37.5869 304.524 30.5986 302.867 25.5203 301.778C22.9812 301.233 20.9251 300.813 19.4982 300.552L17.8467 300.245C17.6541 300.207 17.4587 300.184 17.2625 300.177Z" fill="#E0E0E0"/>
<path d="M146.006 25.8235L227.236 1.14242L243.705 56.4528L162.474 81.1339L146.006 25.8235Z" fill="white"/>
<path d="M243.718 56.3992C243.718 56.3992 243.595 56.0473 243.393 55.3891C243.19 54.7308 242.887 53.732 242.494 52.4609C241.719 49.8959 240.573 46.1391 239.123 41.3496C236.225 31.7365 232.079 17.9467 227.023 1.16068L227.315 1.31957L146.107 26.0957L146.31 25.7212L162.758 81.0392L162.421 80.8576L220.934 63.2089L237.685 58.2038L242.179 56.8759L243.303 56.5354L243.707 56.4332L243.348 56.5581L242.224 56.9213L237.82 58.2832L221.17 63.4246L162.567 81.3683L162.308 81.4477L162.23 81.1867C157.208 64.3326 151.613 45.5944 145.737 25.8801L145.658 25.5964L145.928 25.5169L227.169 0.888288L227.394 0.82019L227.461 1.04718C232.438 17.924 236.517 31.7819 239.37 41.4404C240.764 46.2299 241.865 49.9753 242.606 52.5517C242.977 53.8001 243.247 54.7648 243.449 55.4458C243.651 56.1268 243.718 56.3992 243.718 56.3992Z" fill="#E0E0E0"/>
<path d="M227.248 1.12668C227.218 1.21323 227.181 1.29682 227.136 1.37637L226.754 2.08005C226.383 2.72697 225.877 3.62359 225.248 4.75855L219.574 14.5987L200.542 47.2061L200.407 47.4217L200.182 47.3309L197.699 46.3662L161.107 31.9408L150.04 27.5145L147.051 26.2774L146.276 25.9483C146.183 25.917 146.096 25.871 146.018 25.8121C146.115 25.8206 146.211 25.8476 146.299 25.8915L147.085 26.1639L150.13 27.2989L161.253 31.555L197.902 45.8101L200.396 46.7861L200.036 46.911C207.564 34.1427 214.328 22.7023 219.226 14.383L225.057 4.64506C225.731 3.5101 226.27 2.65888 226.652 2.01195L227.091 1.34232C227.181 1.19478 227.237 1.11533 227.248 1.12668Z" fill="#E0E0E0"/>
<path d="M463.613 222.103C463.613 222.103 458.344 216.837 448.075 229.991C442.691 236.65 437.748 243.661 433.278 250.977C433.278 250.977 430.717 253.655 429.032 251.226C427.346 248.798 425.605 242.533 421.852 242.85C418.1 243.168 415.943 247.072 415.437 253.303C414.931 259.534 413.347 273.165 413.19 274.391C413.033 275.617 412.066 277.217 410.617 275.753C409.168 274.289 401.876 261.827 396.202 265.663C390.529 269.499 391.967 287.137 392.09 289.055C392.214 290.973 391.697 291.699 390.753 291.972C389.81 292.244 387.731 287.818 385.495 284.356C383.259 280.894 380.08 277.251 377.001 279.759C373.923 282.268 370.654 294.605 378.428 317.27L382.709 327.484L393.663 329.062C417.336 330.98 428.346 324.704 429.975 321.061C431.604 317.417 427.335 315.215 423.448 313.899C419.56 312.582 414.797 311.629 414.83 310.664C414.864 309.7 415.415 308.996 417.291 308.633C419.167 308.27 436.391 305.228 438.638 298.747C440.885 292.267 427.122 288.203 425.358 287.182C423.594 286.161 424.897 284.765 426.021 284.322C427.144 283.879 439.817 278.897 445.671 276.854C451.524 274.811 454.749 271.837 454.086 267.956C453.423 264.074 447.008 264.086 444.255 263.03C441.503 261.975 443.435 258.819 443.435 258.819C449.354 252.631 454.86 246.052 459.917 239.128C469.95 225.781 463.411 221.888 463.411 221.888" fill="#EBEBEB"/>
<path d="M454.356 233.816C454.306 233.917 454.245 234.012 454.176 234.1L453.603 234.917C453.064 235.643 452.311 236.676 451.356 237.993C449.39 240.66 446.525 244.496 442.952 249.218C435.818 258.66 425.841 271.622 414.763 285.877L386.428 322.434L377.878 333.545L375.541 336.553L374.923 337.324C374.777 337.495 374.71 337.586 374.699 337.574C374.749 337.474 374.809 337.379 374.878 337.29L375.451 336.485L377.698 333.398C379.653 330.73 382.53 326.894 386.091 322.173C393.225 312.73 403.213 299.769 414.303 285.514C425.392 271.258 435.357 258.343 442.626 248.957C446.21 244.292 449.132 240.512 451.176 237.857C452.165 236.574 452.952 235.587 453.502 234.838L454.131 234.066C454.266 233.896 454.345 233.805 454.356 233.816Z" fill="#E0E0E0"/>
<path d="M423.942 251.714C424.186 252.688 424.326 253.685 424.358 254.688C424.526 256.527 424.672 259.08 424.773 261.906C424.874 264.732 424.919 267.07 424.976 269.125C425.058 270.122 425.058 271.124 424.976 272.121C424.732 271.148 424.596 270.151 424.571 269.147C424.425 267.297 424.301 264.744 424.2 261.929C424.099 259.114 424.032 256.765 423.953 254.711C423.864 253.714 423.86 252.712 423.942 251.714Z" fill="#E0E0E0"/>
<path d="M425.919 272.518C429.764 271.891 433.638 271.463 437.525 271.236C443.941 270.702 449.165 270.396 449.176 270.555C445.331 271.175 441.458 271.6 437.57 271.826C431.155 272.371 425.942 272.677 425.919 272.518Z" fill="#E0E0E0"/>
<path d="M407.28 294.4C408.288 294.479 409.288 294.642 410.269 294.888C412.111 295.24 414.639 295.728 417.448 296.182C420.257 296.636 422.807 296.977 424.661 297.215C425.672 297.296 426.675 297.46 427.661 297.703C426.65 297.791 425.633 297.768 424.627 297.635C422.751 297.499 420.133 297.226 417.358 296.761C414.583 296.296 411.999 295.751 410.179 295.297C409.184 295.104 408.212 294.803 407.28 294.4V294.4Z" fill="#E0E0E0"/>
<path d="M401.393 275.991C401.859 276.814 402.236 277.685 402.516 278.59C403.112 280.236 403.91 282.506 404.763 285.025C405.617 287.545 406.336 289.838 406.842 291.517C407.159 292.405 407.392 293.321 407.539 294.253C407.065 293.429 406.688 292.553 406.415 291.642C405.808 290.008 405.022 287.738 404.168 285.218C403.314 282.699 402.595 280.395 402.09 278.726C401.76 277.843 401.526 276.926 401.393 275.991V275.991Z" fill="#E0E0E0"/>
<path d="M382.507 293.197C383.048 294.276 383.506 295.396 383.878 296.545C384.653 298.645 385.687 301.551 386.799 304.774C387.911 307.997 388.877 310.925 389.563 313.048C389.985 314.183 390.312 315.352 390.54 316.543C389.99 315.449 389.531 314.31 389.169 313.139C388.394 311.05 387.361 308.145 386.248 304.921C385.136 301.698 384.159 298.77 383.484 296.636C383.064 295.52 382.737 294.369 382.507 293.197H382.507Z" fill="#E0E0E0"/>
<path d="M390.506 315.93C391.786 316.004 393.059 316.171 394.315 316.43C396.652 316.804 399.933 317.315 403.472 317.792C407.011 318.268 410.303 318.632 412.651 318.927C413.93 319.012 415.203 319.182 416.46 319.437C415.179 319.516 413.893 319.486 412.617 319.347C410.247 319.188 407 318.893 403.393 318.405C399.787 317.917 396.562 317.349 394.236 316.884C392.969 316.669 391.722 316.35 390.506 315.93V315.93Z" fill="#E0E0E0"/>
<path d="M411.359 198.458L414.021 110.437L477.695 112.403L475.033 200.423L411.359 198.458Z" fill="#F5F5F5"/>
<path d="M399.637 210.159L402.299 122.138L465.973 124.104L463.31 212.124L399.637 210.159Z" fill="white"/>
<path d="M463.299 212.104C463.291 211.961 463.291 211.817 463.299 211.673C463.299 211.378 463.299 210.969 463.299 210.436C463.299 209.301 463.355 207.712 463.411 205.624C463.523 201.413 463.681 195.296 463.883 187.544C464.321 172.052 464.939 150.09 465.669 124.088L465.928 124.361L402.258 122.42L402.561 122.136C401.539 155.05 400.606 185.456 399.842 210.152L399.607 209.903L445.85 211.457L458.715 211.911L462.085 212.048L463.265 212.104H462.141L458.771 212.025L445.963 211.696L399.573 210.391H399.337V210.152C400.067 185.444 400.966 155.005 401.943 122.125V121.83H402.247L465.905 123.827H466.175V124.1C465.332 150.204 464.624 172.199 464.119 187.725C463.86 195.443 463.647 201.549 463.512 205.737C463.434 207.803 463.377 209.392 463.332 210.493C463.332 211.015 463.332 211.423 463.276 211.707C463.22 211.991 463.299 212.104 463.299 212.104Z" fill="#E0E0E0"/>
<path d="M441.143 142.497C441.143 142.668 434.211 142.577 425.672 142.316C417.134 142.055 410.201 141.703 410.201 141.544C410.201 141.385 417.145 141.464 425.683 141.725C434.222 141.987 441.143 142.338 441.143 142.497Z" fill="#E0E0E0"/>
<path d="M457.591 150.669C457.591 150.828 446.918 150.669 433.75 150.226C420.583 149.784 409.909 149.352 409.921 149.193C409.932 149.035 420.594 149.193 433.773 149.636C446.952 150.079 457.603 150.499 457.591 150.669Z" fill="#E0E0E0"/>
<path d="M457.356 158.648C457.356 158.807 446.671 158.648 433.503 158.205C420.336 157.762 409.674 157.331 409.674 157.172C409.674 157.013 420.358 157.172 433.526 157.615C446.693 158.058 457.356 158.478 457.356 158.648Z" fill="#E0E0E0"/>
<path d="M457.108 166.627C457.108 166.785 446.435 166.627 433.267 166.184C420.099 165.741 409.437 165.31 409.437 165.151C409.437 164.992 420.122 165.151 433.289 165.594C446.457 166.036 457.119 166.49 457.108 166.627Z" fill="#E0E0E0"/>
<path d="M456.872 174.605C456.872 174.764 446.188 174.605 433.031 174.163C419.875 173.72 409.19 173.289 409.19 173.13C409.19 172.971 419.875 173.13 433.042 173.572C446.21 174.015 456.872 174.435 456.872 174.605Z" fill="#E0E0E0"/>
<path d="M456.637 182.584C456.637 182.743 445.952 182.584 432.784 182.141C419.617 181.699 408.955 181.267 408.955 181.109C408.955 180.95 419.639 181.109 432.807 181.551C445.975 181.994 456.637 182.38 456.637 182.584Z" fill="#E0E0E0"/>
<path d="M456.39 190.563C456.39 190.722 445.705 190.563 432.549 190.12C419.392 189.678 408.708 189.246 408.719 189.087C408.73 188.928 419.392 189.087 432.56 189.53C445.727 189.973 456.401 190.393 456.39 190.563Z" fill="#E0E0E0"/>
<path d="M434.099 197.861C434.099 198.019 428.358 197.974 421.28 197.758C414.202 197.543 408.472 197.225 408.472 197.066C408.472 196.907 414.213 196.953 421.291 197.168C428.369 197.384 434.099 197.69 434.099 197.861Z" fill="#E0E0E0"/>
<path d="M254.775 92.1573L274.698 41.6068L337.286 66.7799L317.362 117.33L254.775 92.1573Z" fill="white"/>
<path d="M337.274 66.7841L336.971 66.6706L336.094 66.3301L332.724 64.9682L319.882 59.8041L274.649 41.6447L274.784 41.588L254.875 92.1278L254.808 91.9689L317.388 117.165H317.264C323.286 101.934 328.286 89.3131 331.769 80.4944C333.522 76.0908 334.892 72.6291 335.825 70.2798L336.948 67.5899L337.319 66.6593L336.971 67.5786C336.735 68.1915 336.387 69.0881 335.926 70.2571C335.005 72.6178 333.679 76.0794 331.926 80.4717C328.455 89.3017 323.477 101.957 317.489 117.222V117.313H317.399L254.729 92.264H254.617V92.1505C261.819 73.9003 268.616 56.6489 274.548 41.6107V41.5085H274.638L319.983 59.8041L332.758 64.9795L336.128 66.3415L336.993 66.6933L337.274 66.7841Z" fill="#E0E0E0"/>
<path d="M258.141 89.8947L275.555 45.7131L333.748 69.1187L316.334 113.3L258.141 89.8947Z" fill="#EBEBEB"/>
<path d="M258.37 90.0281L289.525 70.7338L295.344 92.979L307.501 87.2361L316.568 113.431L258.37 90.0281Z" fill="#E0E0E0"/>
<path d="M308.782 74.5585C308.044 76.4315 306.261 77.6707 304.266 77.6981C302.271 77.7255 300.456 76.5356 299.668 74.6836C298.88 72.8316 299.274 70.6824 300.667 69.2387C302.059 67.795 304.176 67.3413 306.029 68.0893C307.245 68.5767 308.218 69.5329 308.735 70.7467C309.251 71.9605 309.268 73.3321 308.782 74.5585Z" fill="#E0E0E0"/>
<path d="M113.582 144.767C114.005 144.943 114.462 145.017 114.919 144.983C115.465 144.919 115.974 144.667 116.357 144.268C116.801 143.646 117.196 142.99 117.536 142.304L124.828 129.457L127.255 125.212L128.547 122.942C128.772 122.58 128.967 122.201 129.131 121.807C129.249 121.415 129.249 120.996 129.131 120.604C129.03 120.2 128.806 119.839 128.491 119.571C128.131 119.314 127.756 119.079 127.367 118.867L124.862 117.46L119.649 114.509L96.4368 101.355C95.4884 100.843 94.31 101.136 93.7067 102.036L91.9652 105.055C90.8417 107.052 89.7182 109.039 88.5947 110.979L82.0783 122.227C81.8199 122.669 81.5614 123.112 81.3143 123.555C81.0639 123.938 80.9347 124.389 80.9435 124.849C80.9612 125.297 81.1229 125.727 81.4042 126.074C81.7233 126.408 82.1053 126.675 82.5277 126.857L87.4374 129.672L96.2233 134.711L108.942 142.055L112.391 144.075L113.278 144.608C113.481 144.733 113.582 144.801 113.57 144.813L113.256 144.665L112.335 144.177L108.84 142.248L96.0211 135.075L87.2352 130.047L82.3142 127.266C81.8374 127.053 81.4061 126.749 81.0446 126.369C80.6936 125.931 80.4926 125.389 80.4716 124.826C80.4475 124.264 80.5967 123.709 80.8986 123.237C81.1457 122.794 81.4042 122.352 81.6626 121.909L88.1003 110.684L91.4709 104.76L93.2348 101.707C94.0052 100.553 95.5147 100.176 96.7289 100.833L119.918 114.032L125.131 117.006L127.614 118.436C128.043 118.656 128.456 118.907 128.85 119.185C129.242 119.523 129.521 119.975 129.648 120.479C129.783 120.961 129.783 121.472 129.648 121.954C129.469 122.384 129.255 122.798 129.008 123.192L127.693 125.461L125.244 129.695C122.109 135.052 119.57 139.399 117.795 142.452C117.426 143.138 117.006 143.795 116.537 144.415C116.118 144.829 115.57 145.082 114.986 145.13C114.633 145.157 114.279 145.098 113.952 144.96C113.821 144.913 113.696 144.848 113.582 144.767Z" fill="#E0E0E0"/>
<path d="M107.65 121.501L110.481 126.574L104.639 126.687L98.7963 126.789L101.807 121.603L104.818 116.416L107.65 121.501Z" fill="#E0E0E0"/>
<path d="M480 340.258C480 340.429 372.536 340.565 240.017 340.565C107.498 340.565 0 340.451 0 340.258C0 340.065 107.442 339.941 240.017 339.941C372.592 339.941 480 340.111 480 340.258Z" fill="#263238"/>
<path d="M125.164 265.788L91.2454 231.365L108.3 199.722C125.355 177.658 161.465 179.077 161.465 179.077C179.28 177.854 197.176 178.964 214.709 182.38C243.392 188.055 241.078 207.19 241.078 207.19L244.92 278.204L249.043 336.031L143.264 338.187L125.164 265.833" fill="#FC8802"/>
<path d="M182.149 334.805L87.403 335.94C76.7928 336.064 66.8664 330.662 61.1326 321.643C55.3988 312.624 54.6653 301.258 59.1915 291.563L99.7055 215.668L136.613 240.864L111.435 293.606L188.126 294.99L182.149 334.805Z" fill="#FC8802"/>
<path d="M237.729 195.613L313.757 314.194L269.401 317.122C269.401 317.122 242.908 274.958 243.504 275.821C244.56 277.41 237.729 195.613 237.729 195.613Z" fill="#FC8802"/>
<path d="M134.703 247.685C134.705 247.477 134.74 247.27 134.804 247.072C134.916 246.618 135.04 246.051 135.208 245.347C135.557 243.861 136.073 241.704 136.601 239.026C137.13 236.347 137.725 233.124 138.096 229.537C138.552 225.65 138.552 221.723 138.096 217.836C137.486 213.982 136.155 210.28 134.175 206.929C132.583 204.17 130.699 201.594 128.557 199.245C127.113 197.64 125.575 196.124 123.951 194.705C123.332 194.216 122.739 193.693 122.176 193.139C122.358 193.231 122.532 193.341 122.692 193.468C123.007 193.707 123.513 194.036 124.097 194.524C125.786 195.871 127.378 197.339 128.86 198.916C131.075 201.247 133.02 203.825 134.658 206.6C136.708 210.003 138.082 213.777 138.702 217.711C139.147 221.646 139.117 225.621 138.613 229.549C138.233 232.745 137.693 235.919 136.995 239.06C136.41 241.749 135.871 243.895 135.411 245.37C135.208 246.108 135.029 246.675 134.905 247.061C134.858 247.275 134.79 247.484 134.703 247.685Z" fill="#263238"/>
<path d="M131.647 251.771C131.485 252.362 131.267 252.936 130.995 253.485C130.546 254.62 129.872 256.141 129.007 258.025C127.288 261.872 124.85 267.161 122.041 272.95C119.232 278.738 116.581 283.925 114.614 287.704C113.626 289.565 112.817 291.109 112.244 292.096C111.97 292.646 111.655 293.174 111.3 293.674C111.502 293.095 111.75 292.533 112.042 291.994C112.615 290.859 113.356 289.338 114.289 287.511L121.558 272.757C124.31 267.002 126.816 261.804 128.681 257.911C129.557 256.084 130.276 254.563 130.838 253.371C131.063 252.816 131.333 252.281 131.647 251.771V251.771Z" fill="#263238"/>
<path d="M182.148 334.805C182.148 334.805 182.148 334.737 182.148 334.612C182.148 334.487 182.148 334.26 182.148 334.022C182.205 333.477 182.283 332.717 182.373 331.752C182.598 329.732 182.912 326.86 183.306 323.24C184.137 315.896 185.328 305.568 186.676 293.39L186.946 293.685H158.959L110.075 293.606L95.2445 293.515L91.211 293.458H90.1549H89.7954C89.9148 293.444 90.0355 293.444 90.1549 293.458H91.211L95.2445 293.402L110.075 293.311L159.038 293.231H187.025H187.328V293.526C185.845 305.693 184.598 316.021 183.699 323.353C183.25 326.962 182.879 329.834 182.575 331.854C182.456 332.807 182.354 333.564 182.272 334.124L182.182 334.703C182.171 334.737 182.16 334.805 182.148 334.805Z" fill="#263238"/>
<path d="M112.098 294.446C111.419 293.688 110.789 292.889 110.21 292.051C107.182 288.211 103.433 285.013 99.1771 282.642C98.2683 282.198 97.3832 281.705 96.5256 281.167C97.5229 281.403 98.4806 281.785 99.3681 282.302C103.8 284.514 107.633 287.782 110.536 291.824C111.174 292.621 111.699 293.503 112.098 294.446Z" fill="#263238"/>
<path d="M246.493 301.959C246.411 301.636 246.358 301.305 246.336 300.972C246.257 300.279 246.156 299.337 246.021 298.146C245.763 295.694 245.414 292.142 245.044 287.749C244.269 278.953 243.381 266.787 242.594 253.349C241.808 239.911 241.257 227.721 240.943 218.903C240.786 214.488 240.673 210.958 240.628 208.45C240.628 207.258 240.628 206.316 240.572 205.612C240.555 205.283 240.555 204.954 240.572 204.625C240.634 204.95 240.668 205.281 240.673 205.612C240.673 206.305 240.763 207.258 240.831 208.45C240.954 210.969 241.123 214.522 241.336 218.88C241.752 227.699 242.37 239.865 243.156 253.315C243.943 266.764 244.774 278.908 245.403 287.715C245.74 292.062 246.01 295.66 246.201 298.134C246.291 299.269 246.358 300.268 246.414 300.96C246.471 301.29 246.497 301.624 246.493 301.959Z" fill="#263238"/>
<path d="M161.914 237.437C161.919 236.916 161.96 236.396 162.037 235.882C162.172 234.804 162.341 233.362 162.554 231.592C163.049 227.846 163.678 222.716 164.509 216.769L164.936 217.041L157.667 222.183L150.274 227.381L149.746 227.755L149.836 227.109C150.735 221.218 151.499 216.133 152.083 212.354C152.375 210.618 152.6 209.188 152.78 208.121C152.84 207.609 152.945 207.104 153.094 206.611C153.095 207.129 153.05 207.645 152.959 208.155C152.825 209.222 152.656 210.652 152.431 212.411C151.926 216.133 151.218 221.229 150.409 227.165L149.982 226.893L157.364 221.672L164.644 216.553L165.172 216.179L165.082 216.826C164.217 222.75 163.464 227.88 162.925 231.58C162.644 233.339 162.419 234.781 162.251 235.848C162.186 236.386 162.073 236.918 161.914 237.437Z" fill="#E0E0E0"/>
<path d="M204.204 242.033C203.799 241.708 203.423 241.347 203.08 240.955C202.35 240.161 201.361 239.105 200.148 237.811L190.115 226.825L190.598 226.654C190.362 229.435 190.115 232.454 189.857 235.587C189.598 238.719 189.328 241.829 189.093 244.666L189.036 245.325L188.609 244.837L178.846 233.714L176.06 230.468C175.705 230.097 175.389 229.69 175.116 229.254C175.52 229.601 175.896 229.98 176.239 230.389L179.138 233.521L189.048 244.496L188.564 244.666C188.8 241.84 189.048 238.776 189.317 235.587C189.587 232.397 189.834 229.435 190.07 226.654L190.126 226.008L190.553 226.484L200.44 237.618L203.26 240.876C203.604 241.236 203.92 241.623 204.204 242.033Z" fill="#E0E0E0"/>
<path d="M225.483 240.512C225.273 240.991 225.017 241.447 224.719 241.874L222.471 245.529L214.45 258.104L214.18 257.673L222.898 256.152L231.774 254.643L232.415 254.529L232.111 255.017L223.91 267.343L221.438 270.907C221.163 271.343 220.855 271.756 220.517 272.144C220.738 271.679 220.994 271.231 221.281 270.804L223.528 267.173L231.561 254.688L231.842 255.119L222.966 256.674L214.214 258.172L213.573 258.275L213.933 257.741L222.123 245.257L224.528 241.681C224.822 241.273 225.141 240.882 225.483 240.512Z" fill="#E0E0E0"/>
<path d="M197.182 262.508C196.971 262.982 196.715 263.434 196.418 263.859L194.171 267.524L186.16 280.088L185.879 279.657L194.62 278.136L203.507 276.615L204.148 276.513L203.777 277.047L195.575 289.384L193.16 292.925C192.892 293.362 192.583 293.772 192.238 294.151C192.463 293.688 192.719 293.24 193.002 292.811C193.587 291.903 194.351 290.689 195.25 289.191L203.283 276.706L203.564 277.138L194.688 278.692L185.936 280.179L185.295 280.293L185.655 279.748L193.845 267.263C194.834 265.788 195.643 264.585 196.261 263.688C196.539 263.273 196.847 262.878 197.182 262.508V262.508Z" fill="#E0E0E0"/>
<path d="M258.335 240.263C258.112 240.731 257.857 241.182 257.571 241.613L255.324 245.279L247.313 257.843L247.032 257.412L255.773 255.891L264.66 254.37L265.301 254.268L264.941 254.802L256.728 267.139C255.739 268.591 254.931 269.783 254.313 270.668C254.047 271.11 253.738 271.525 253.391 271.905C253.618 271.441 253.877 270.993 254.167 270.566L256.414 266.946L264.447 254.461L264.728 254.892L255.852 256.436L247.1 257.934L246.47 258.048L246.819 257.503L255.009 245.018L257.425 241.443C257.689 241.021 257.994 240.625 258.335 240.263Z" fill="#E0E0E0"/>
<path d="M293.613 297.397C293.211 297.088 292.835 296.746 292.489 296.375L289.411 293.379L278.838 282.914L279.31 282.722C279.22 285.514 279.13 288.533 279.029 291.676C278.928 294.82 278.805 297.941 278.704 300.756V301.414L278.243 300.949L267.951 290.337L265.008 287.239C264.642 286.887 264.304 286.508 263.997 286.104C264.397 286.414 264.772 286.756 265.12 287.125L268.176 290.11L278.625 300.574L278.142 300.767C278.232 297.93 278.333 294.866 278.434 291.688C278.535 288.51 278.659 285.525 278.76 282.733V282.086L279.209 282.54L289.624 293.163L292.601 296.273C292.969 296.618 293.307 296.994 293.613 297.397Z" fill="#E0E0E0"/>
<path d="M115.142 222.035C114.922 222.505 114.667 222.956 114.378 223.386L112.131 227.052L104.121 239.627L103.84 239.196L112.581 237.664L121.468 236.154L122.108 236.041L121.749 236.585L113.536 248.911L111.131 252.452C110.858 252.886 110.55 253.296 110.21 253.678C110.425 253.213 110.681 252.769 110.974 252.35L113.221 248.718C115.255 245.574 118.041 241.262 121.254 236.234L121.535 236.665L112.659 238.22L103.907 239.718L103.278 239.82L103.626 239.287C106.918 234.293 109.749 229.98 111.817 226.802L114.232 223.227C114.504 222.806 114.808 222.408 115.142 222.035V222.035Z" fill="#E0E0E0"/>
<path d="M70.7188 306.908C71.0973 307.253 71.4433 307.633 71.7524 308.043L74.4938 311.368L83.8077 322.979L83.3134 323.115C83.7178 320.357 84.1448 317.361 84.6054 314.239C85.0661 311.118 85.5155 308.043 85.9312 305.239L86.021 304.592L86.4255 305.114L95.4811 316.827L98.0539 320.232C98.3808 320.626 98.674 321.048 98.9303 321.492C98.5613 321.14 98.2195 320.761 97.9079 320.357L95.2114 317.043L86.0548 305.455L86.5491 305.33C86.1446 308.133 85.7065 311.175 85.2458 314.33C84.7852 317.485 84.347 320.436 83.9313 323.194L83.8414 323.841L83.437 323.33L74.2691 311.595L71.6513 308.19C71.3123 307.784 71.0007 307.356 70.7188 306.908H70.7188Z" fill="#E0E0E0"/>
<path d="M172.172 251.953C171.669 252.062 171.158 252.13 170.644 252.157L166.375 252.532L151.612 253.667L151.792 253.19L158.263 259.319L164.813 265.561L165.285 266.015H164.633L149.949 266.832L145.702 267.014C145.194 267.058 144.682 267.058 144.174 267.014C144.674 266.912 145.181 266.848 145.691 266.821L149.926 266.48L164.6 265.459L164.431 265.936L157.859 259.716L151.41 253.564L150.938 253.11H151.578L166.352 252.214L170.622 251.998C171.137 251.944 171.655 251.928 172.172 251.953Z" fill="#E0E0E0"/>
<path d="M147.275 309.155C147.65 309.511 148.002 309.89 148.331 310.29L151.128 313.558L160.689 324.976L160.195 325.112C160.543 322.343 160.925 319.347 161.319 316.226C161.712 313.104 162.116 310.006 162.442 307.203L162.532 306.544L162.936 307.055L172.239 318.575L174.879 321.98C175.207 322.375 175.507 322.792 175.778 323.228C175.399 322.88 175.05 322.5 174.733 322.093L171.97 318.836L162.532 307.486L163.015 307.339C162.667 310.153 162.285 313.195 161.892 316.362C161.498 319.528 161.105 322.49 160.768 325.26L160.678 325.907L160.274 325.407L150.87 313.853L148.196 310.449C147.847 310.049 147.539 309.616 147.275 309.155H147.275Z" fill="#E0E0E0"/>
<path d="M102.772 267.207C102.27 267.318 101.759 267.386 101.244 267.411L96.9863 267.774L82.2233 268.909L82.3918 268.421L88.8745 274.561L95.4246 280.803L95.8965 281.257H95.2449L80.5605 282.075L76.3136 282.256C75.8164 282.299 75.3165 282.299 74.8193 282.256C75.3184 282.148 75.8259 282.083 76.3361 282.063L80.5717 281.723L95.2449 280.69L95.0763 281.178L88.5038 274.958L82.0435 268.807L81.5829 268.353H82.2233L96.9976 267.445L101.267 267.241C101.767 267.191 102.27 267.18 102.772 267.207Z" fill="#E0E0E0"/>
<path d="M141.006 307.872C140.503 307.98 139.992 308.045 139.478 308.065L135.209 308.44L120.446 309.575L120.625 309.087L127.097 315.227L133.647 321.469L134.119 321.923H133.478L118.783 322.729L114.536 322.922C114.028 322.966 113.516 322.966 113.008 322.922C113.507 322.813 114.015 322.749 114.525 322.729L118.76 322.388L133.433 321.356L133.265 321.844L126.692 315.624L120.243 309.495L119.772 309.053H120.412L135.186 308.145L139.467 307.94C139.977 307.871 140.492 307.848 141.006 307.872Z" fill="#E0E0E0"/>
<path d="M227.303 204.409C226.8 204.518 226.289 204.587 225.775 204.614L221.506 204.977L206.754 206.112L206.922 205.635L213.394 211.764L219.944 218.006L220.416 218.46H219.775L205.08 219.277L200.833 219.459C200.325 219.503 199.813 219.503 199.305 219.459C199.804 219.35 200.312 219.286 200.822 219.266L205.057 218.925L219.742 217.904L219.562 218.381L213.012 212.172L206.563 206.021L206.091 205.567H206.731L221.506 204.659L225.786 204.455C226.29 204.401 226.797 204.386 227.303 204.409Z" fill="#E0E0E0"/>
<path d="M185.329 307.872C185.329 307.872 204.227 302.368 210.485 300.756C212.923 300.132 223.36 305.693 230.573 310.324C230.573 310.324 240.505 316.271 239.707 318.098C238.82 320.119 235.213 319.71 229.315 316.963C229.315 316.963 231.36 322.945 227.349 322.808C227.349 322.808 229.337 329.278 225.585 329.947C221.832 330.617 220.956 322.366 217.653 321.923C214.349 321.48 207.541 321.026 207.541 321.026C207.541 321.026 201.845 330.56 197.429 331.241C193.014 331.922 182.824 330.708 182.824 330.708L185.329 307.872Z" fill="#FFBE9D"/>
<path d="M217.585 309.189C219.435 310.021 221.203 311.028 222.865 312.196C224.629 313.204 226.292 314.383 227.831 315.715C224.212 313.884 220.78 311.698 217.585 309.189Z" fill="#EB996E"/>
<path d="M216.472 312.9C218.63 313.586 220.728 314.456 222.741 315.499C224.822 316.354 226.829 317.382 228.741 318.575C226.581 317.896 224.484 317.03 222.472 315.987C220.386 315.137 218.379 314.104 216.472 312.9Z" fill="#EB996E"/>
<path d="M218.495 321.764C221.349 321.754 224.191 322.135 226.944 322.899C224.09 322.907 221.248 322.525 218.495 321.764H218.495Z" fill="#EB996E"/>
<path d="M160.734 110.877C161.189 112.381 160.71 114.013 159.517 115.023C158.324 116.033 156.649 116.224 155.263 115.508C152.701 114.203 152.375 110.628 152.881 107.779C153.387 104.93 154.342 101.877 153.162 99.2326C152.252 97.2123 150.286 95.9298 148.758 94.3409C146.024 91.5411 144.748 87.609 145.309 83.7177C145.969 79.8156 148.737 76.6159 152.477 75.4324C156.24 74.3769 160.88 75.5459 163.712 72.788C165.745 70.7905 165.869 67.5331 167.442 65.1497C169.88 61.4497 175.037 60.8596 179.396 61.4611C183.755 62.0626 188.182 63.4813 192.451 62.4031C196.013 61.5065 198.934 58.9982 202.282 57.4547C209.763 54.0003 218.59 55.7303 224.249 61.7601C229.909 67.7899 231.149 76.7864 227.336 84.1489C226.096 86.7771 223.986 88.8848 221.371 90.1075" fill="#263238"/>
<path d="M182.418 204.636C188.206 204.625 193.747 202.273 197.806 198.106C201.866 193.94 204.105 188.305 204.024 182.459L203.743 161.599C203.743 161.599 221.09 159.839 222.236 142.475C223.382 125.11 222.562 85.0342 222.562 85.0342C203.126 75.294 179.996 76.9307 162.094 89.313L159.443 91.163L160.735 183.027C160.876 195.017 170.548 204.656 182.418 204.636Z" fill="#FFBE9D"/>
<path d="M218.023 116.552C216.724 116.401 215.744 115.291 215.744 113.97C215.744 112.649 216.724 111.539 218.023 111.388C218.159 111.354 218.302 111.354 218.439 111.388C219.737 111.539 220.717 112.649 220.717 113.97C220.717 115.291 219.737 116.401 218.439 116.552C218.301 116.575 218.161 116.575 218.023 116.552Z" fill="#263238"/>
<path d="M221.393 110.945C221.112 111.24 219.495 109.81 217.124 109.686C214.753 109.561 212.967 110.684 212.731 110.367C212.495 110.049 212.899 109.697 213.686 109.163C215.843 107.765 218.652 107.954 220.607 109.629C221.315 110.264 221.539 110.877 221.393 110.945Z" fill="#263238"/>
<path d="M193.991 111.536C194.825 112.119 195.228 113.152 195.013 114.153C194.799 115.153 194.008 115.925 193.01 116.107C192.012 116.289 191.004 115.846 190.457 114.984C189.909 114.122 189.929 113.012 190.508 112.171C191.297 111.025 192.855 110.741 193.991 111.536Z" fill="#263238"/>
<path d="M195.552 111.638C195.26 111.933 193.642 110.503 191.283 110.378C188.924 110.253 187.126 111.377 186.879 111.059C186.755 110.911 187.059 110.389 187.834 109.856C189.991 108.457 192.8 108.646 194.755 110.321C195.463 110.957 195.687 111.513 195.552 111.638Z" fill="#263238"/>
<path d="M204.024 131.908C204.024 131.726 205.496 131.499 207.9 131.295C208.518 131.295 209.024 131.148 209.08 130.819C209.125 130.193 209.005 129.566 208.732 129.003C208.204 127.38 207.676 125.745 207.114 124.031C204.867 116.961 203.395 111.138 203.743 111.025C204.091 110.911 206.181 116.552 208.395 123.623C208.911 125.348 209.417 127.028 209.9 128.617C210.257 129.443 210.328 130.366 210.102 131.238C209.899 131.716 209.481 132.066 208.979 132.18C208.629 132.259 208.269 132.286 207.911 132.26C205.485 132.215 204.024 132.101 204.024 131.908Z" fill="#263238"/>
<path d="M196.159 134.133C199.77 136.005 203.618 137.369 207.596 138.184C205.801 140.676 202.541 141.589 199.732 140.386C194.665 138.196 196.159 134.133 196.159 134.133Z" fill="white"/>
<path d="M203.81 161.349C195.857 161.062 188.168 158.392 181.722 153.677C181.722 153.677 186.351 166.468 203.597 165.855L203.81 161.349Z" fill="#EB996E"/>
<path d="M222.708 89.4265C222.708 89.4265 212.315 94.7608 198.552 88.1554C189.564 83.8198 179.037 81.8109 176.767 83.6836C174.498 85.5563 174.194 94.863 165.386 97.7571C165.386 97.7571 166.341 115.531 159.308 115.031C152.274 114.532 156.139 86.9183 156.139 86.9183L173.138 78.111L191.8 74.1727L209.495 76.3404L223.225 79.8475L222.708 89.4265Z" fill="#263238"/>
<path d="M160.588 109.322C160.307 109.175 148.96 105.134 148.701 117.04C148.443 128.946 160.319 126.755 160.341 126.415C160.364 126.074 160.588 109.322 160.588 109.322Z" fill="#FFBE9D"/>
<path d="M156.836 121.818C156.836 121.818 156.623 121.966 156.274 122.113C155.781 122.316 155.229 122.316 154.735 122.113C153.499 121.625 152.488 119.605 152.488 117.46C152.487 116.437 152.705 115.427 153.129 114.498C153.374 113.75 153.965 113.169 154.713 112.943C155.201 112.853 155.69 113.098 155.915 113.544C156.061 113.874 155.982 114.112 156.038 114.135C156.095 114.157 156.297 113.942 156.218 113.454C156.156 113.157 155.998 112.889 155.769 112.693C155.451 112.441 155.048 112.323 154.645 112.364C153.656 112.536 152.827 113.215 152.454 114.157C151.936 115.179 151.666 116.312 151.668 117.46C151.668 119.855 152.859 122.136 154.544 122.669C155.182 122.866 155.874 122.766 156.432 122.397C156.836 122.113 156.836 121.841 156.836 121.818Z" fill="#EB996E"/>
<path d="M154.589 72.0617C157.35 71.2434 160.315 72.3619 161.869 74.8083C160.822 74.0068 159.692 73.3219 158.499 72.7653C157.223 72.3942 155.913 72.1583 154.589 72.0617Z" fill="#263238"/>
<path d="M161.678 64.9341C161.892 64.9341 161.566 67.4423 161.97 70.4159C162.32 72.2037 162.874 73.9443 163.622 75.6027C163.622 75.6027 163.128 75.1828 162.633 74.2975C161.999 73.1193 161.58 71.8351 161.397 70.5067C161.07 68.6518 161.166 66.7459 161.678 64.9341Z" fill="#263238"/>
<path d="M210.09 105.202C210.023 105.066 210.528 104.646 211.483 104.26C214.019 103.27 216.833 103.298 219.348 104.34C220.292 104.748 220.797 105.168 220.73 105.305C220.584 105.622 218.314 104.726 215.405 104.726C212.495 104.726 210.225 105.554 210.09 105.202Z" fill="#263238"/>
<path d="M183.801 102.728C183.733 102.592 184.239 102.183 185.194 101.786C186.451 101.295 187.79 101.053 189.137 101.071C190.491 101.071 191.831 101.341 193.081 101.866C194.025 102.274 194.519 102.694 194.463 102.842C194.407 102.989 192.047 102.263 189.126 102.252C186.205 102.24 183.958 103.046 183.801 102.728Z" fill="#263238"/>
<path d="M208.057 107.109C208.082 107.343 208.082 107.579 208.057 107.813C208.057 108.312 208.057 108.948 208.113 109.731C208.169 110.514 208.113 111.57 208.181 112.705C208.138 114.014 208.328 115.321 208.742 116.563C209.844 119.839 212.534 122.312 215.865 123.112C216.806 123.344 217.776 123.428 218.742 123.362C219.746 123.316 220.737 123.105 221.674 122.738C223.673 121.981 225.375 120.592 226.528 118.777C227.618 117.043 228.166 115.018 228.1 112.966C228.1 110.934 228.1 108.982 228.1 107.109L228.37 107.382L213.764 107.245L209.529 107.166H208.405H207.99C208.471 107.112 208.955 107.089 209.439 107.098L213.607 107.018L228.37 106.882H228.741V107.166C228.741 109.039 228.741 110.991 228.741 113.022C228.816 115.187 228.24 117.324 227.089 119.151C225.868 121.073 224.062 122.542 221.944 123.339C220.948 123.725 219.897 123.944 218.831 123.986C217.816 124.047 216.797 123.951 215.809 123.702C212.314 122.849 209.512 120.216 208.416 116.756C208.013 115.458 207.845 114.097 207.922 112.739C207.922 111.604 207.922 110.548 207.978 109.686C208.034 108.823 207.978 108.29 208.034 107.79C208.024 107.563 208.032 107.335 208.057 107.109Z" fill="#263238"/>
<path d="M180.52 106.519C180.52 106.519 180.52 106.78 180.52 107.223V109.141C180.52 109.981 180.52 110.979 180.576 112.126C180.547 113.435 180.737 114.739 181.138 115.985C181.655 117.479 182.505 118.834 183.621 119.946C184.91 121.211 186.513 122.101 188.261 122.522C190.194 122.992 192.223 122.862 194.081 122.147C196.074 121.392 197.772 120.007 198.923 118.198C200.018 116.466 200.57 114.441 200.507 112.387C200.507 110.355 200.507 108.392 200.507 106.519L200.777 106.791L186.171 106.655L181.947 106.587H180.823H180.408C180.885 106.533 181.365 106.511 181.846 106.519L186.014 106.451L200.777 106.315H201.047V106.587C201.047 108.46 201.047 110.423 201.047 112.455C201.114 114.62 200.535 116.756 199.384 118.584C198.163 120.498 196.362 121.963 194.249 122.76C193.254 123.146 192.202 123.364 191.137 123.407C190.118 123.468 189.095 123.372 188.104 123.123C186.268 122.667 184.59 121.713 183.25 120.366C182.091 119.189 181.221 117.755 180.711 116.177C180.307 114.879 180.14 113.518 180.217 112.16C180.217 111.025 180.217 109.969 180.284 109.107C180.351 108.244 180.284 107.711 180.284 107.211C180.325 106.969 180.405 106.735 180.52 106.519Z" fill="#263238"/>
<path d="M208.304 107.938C205.735 108.331 203.121 108.331 200.552 107.938C203.12 107.529 205.736 107.529 208.304 107.938Z" fill="#263238"/>
<path d="M159.083 108.085C162.655 107.784 166.241 107.674 169.824 107.756C173.41 107.653 176.999 107.74 180.576 108.017C177.005 108.332 173.419 108.442 169.835 108.346C166.249 108.462 162.66 108.375 159.083 108.085H159.083Z" fill="#263238"/>
<path d="M274.659 322.264C279.816 331.932 290.105 337.649 300.95 336.87C313.871 335.957 324.431 326.101 326.352 313.161L332.869 237.811L306.77 231.297L296.107 290.314C296.107 290.314 290.535 315.045 274.659 322.264Z" fill="#FFBE9D"/>
<path d="M306.533 236.756L307.399 223.533C307.399 223.533 311.095 193.866 311.095 190.96C311.095 187.623 312.679 186.806 313.904 186.897C315.802 187.022 317.151 189.394 317.274 192.265C317.274 193.253 317.184 208.938 317.184 208.938C318.082 207.456 319.085 206.041 320.184 204.704C322.431 201.765 327.869 200.085 333.408 200.267C338.947 200.448 340.464 200.993 340.497 203.161C340.458 204 340.045 204.776 339.374 205.272C338.352 206.133 337.053 206.585 335.722 206.543C326.858 206.384 324.487 211.162 324.487 211.162L324.375 212.899C324.375 212.899 329.757 209.006 334.048 210.629C334.682 210.866 335.263 211.229 335.756 211.696C338.215 211.706 340.485 213.031 341.721 215.178C342.957 217.325 342.974 219.974 341.767 222.137C341.294 223.255 340.182 223.957 338.981 223.897C338.386 223.717 337.848 223.384 337.419 222.932C337.167 222.716 336.901 222.519 336.621 222.342L335.633 227.143C335.633 227.143 332.835 237.811 332.138 242.601" fill="#FFBE9D"/>
<path d="M309.084 235.723C310.702 236.177 312.376 234.974 313.252 233.521C314.128 232.068 314.499 230.355 315.263 228.834C317.577 224.294 323.128 222.137 325.251 217.484C325.543 216.837 325.7 215.952 325.139 215.521C324.577 215.089 323.88 215.441 323.307 215.759L308.702 223.931" fill="#FFBE9D"/>
<path d="M308.691 223.908C309.145 223.5 309.647 223.15 310.185 222.864C311.174 222.24 312.623 221.377 314.42 220.321L320.768 216.656L322.6 215.611C323.282 215.066 324.151 214.817 325.015 214.919C325.562 215.098 325.942 215.599 325.97 216.179C325.999 216.645 325.919 217.112 325.734 217.541C325.396 218.298 324.974 219.014 324.476 219.675C322.454 222.33 319.836 223.999 317.948 225.94C317.031 226.818 316.25 227.832 315.634 228.947C315.083 229.991 314.735 231.081 314.308 232.068C313.777 233.737 312.543 235.083 310.938 235.746C309.735 236.109 309.061 235.746 309.106 235.677C309.688 235.696 310.268 235.599 310.814 235.394C312.235 234.661 313.286 233.36 313.713 231.807C314.072 230.708 314.489 229.628 314.96 228.573C315.58 227.364 316.388 226.265 317.353 225.315C319.285 223.272 321.847 221.559 323.734 219.096C324.179 218.501 324.556 217.858 324.858 217.178C325.139 216.531 325.094 215.884 324.734 215.816C324.375 215.748 323.667 216.054 323.049 216.406L321.184 217.427L314.746 220.968C312.904 221.956 311.376 222.728 310.365 223.238C309.841 223.54 309.277 223.766 308.691 223.908Z" fill="#EB996E"/>
<path d="M324.173 213.024C324.272 211.95 324.622 210.915 325.195 210.005C325.861 209.071 326.806 208.379 327.892 208.03C329.251 207.578 330.673 207.349 332.105 207.349C333.574 207.364 335.042 207.234 336.486 206.963C337.697 206.714 338.821 206.146 339.745 205.317C340.367 204.737 340.69 203.9 340.621 203.047C340.605 202.738 340.504 202.439 340.329 202.185C340.273 202.185 340.329 202.514 340.385 203.059C340.375 203.829 340.029 204.555 339.441 205.045C338.543 205.759 337.487 206.242 336.363 206.452C334.948 206.687 333.516 206.793 332.082 206.77C330.597 206.754 329.12 206.988 327.712 207.462C326.534 207.877 325.526 208.675 324.847 209.732C324.407 210.444 324.152 211.256 324.105 212.093C324.042 212.404 324.065 212.726 324.173 213.024Z" fill="#EB996E"/>
<path d="M317.196 191.153C317.101 192.191 317.101 193.236 317.196 194.274C317.196 196.408 317.196 198.961 317.275 201.776C317.353 204.591 317.275 207.145 317.275 209.278C317.207 210.319 317.23 211.363 317.342 212.399C317.588 211.381 317.712 210.337 317.713 209.29C317.848 207.372 317.938 204.75 317.926 201.776C317.915 198.803 317.803 196.169 317.668 194.251C317.621 193.204 317.463 192.166 317.196 191.153Z" fill="#EB996E"/>
<path d="M327.678 216.508C327.992 216.432 328.294 216.313 328.577 216.156C329.317 215.773 330.185 215.732 330.958 216.043C331.436 216.304 331.743 216.8 331.767 217.348C331.803 218.025 331.754 218.704 331.621 219.368C331.435 220.203 331.568 221.079 331.992 221.82C332.536 222.592 333.413 223.056 334.351 223.068C335.271 223.062 336.147 222.676 336.778 222.001C337.364 221.408 337.756 220.647 337.902 219.822C338.078 218.487 338.059 217.134 337.846 215.804C337.729 214.905 337.459 214.034 337.048 213.228C336.733 212.66 336.441 212.445 336.419 212.467C336.396 212.49 336.598 212.774 336.834 213.33C337.143 214.146 337.336 215.002 337.407 215.872C337.555 217.152 337.536 218.445 337.351 219.72C337.058 221.202 335.831 222.312 334.34 222.444C333.599 222.439 332.904 222.082 332.464 221.479C332.124 220.857 332.017 220.132 332.161 219.436C332.286 218.721 332.316 217.992 332.25 217.268C332.184 216.566 331.758 215.949 331.127 215.645C330.24 215.304 329.246 215.414 328.453 215.94C327.925 216.258 327.61 216.429 327.678 216.508Z" fill="#EB996E"/>
<path d="M336.52 221.525C336.442 221.821 336.474 222.136 336.61 222.41C336.931 223.199 337.594 223.794 338.408 224.021C339.639 224.289 340.918 223.884 341.778 222.955C342.791 221.83 343.335 220.354 343.295 218.835C343.295 217.333 342.832 215.869 341.969 214.647C341.266 213.649 340.306 212.865 339.194 212.377C338.465 212.044 337.679 211.856 336.88 211.821C336.318 211.821 336.015 211.821 336.015 211.911C337.052 212.047 338.063 212.337 339.015 212.774C340.012 213.275 340.87 214.02 341.509 214.942C342.256 216.086 342.647 217.43 342.632 218.801C342.67 220.162 342.205 221.488 341.329 222.523C340.605 223.352 339.508 223.742 338.43 223.556C337.715 223.394 337.104 222.926 336.756 222.274C336.599 221.842 336.599 221.525 336.52 221.525Z" fill="#EB996E"/>
<path d="M325.847 232.011C325.364 231.857 324.846 231.857 324.364 232.011C323.099 232.291 321.961 232.985 321.128 233.986L321.645 234.145C321.576 233.443 321.464 232.745 321.308 232.057C320.861 229.617 319.752 227.35 318.106 225.508C319.206 227.637 320.08 229.878 320.712 232.193C320.87 232.897 320.982 233.578 321.061 234.213L321.15 234.917L321.589 234.361C322.334 233.433 323.329 232.743 324.454 232.375C325.296 232.114 325.847 232.091 325.847 232.011Z" fill="#EB996E"/>
<path d="M326.127 205.329C325.981 205.397 326.577 206.464 327.947 207.111C329.318 207.757 330.531 207.383 330.475 207.224C330.419 207.065 329.352 207.076 328.228 206.543C327.105 206.01 326.273 205.215 326.127 205.329Z" fill="#EB996E"/>
<path d="M302.04 245.313L334.835 247.685C334.835 247.685 329.791 306.306 328.813 315.397C327.836 324.488 322.072 338.198 302.04 338.198C282.008 338.198 278.278 331.309 269.368 317.122C279.873 309.768 296.557 287.806 296.557 287.806L302.04 245.313Z" fill="#FC8802"/>
<path d="M317.499 253.201C317.33 253.695 317.127 254.177 316.892 254.643L315.061 258.547L308.589 272.042L308.263 271.644L316.768 269.091L325.408 266.526L326.037 266.344L325.734 266.923L318.993 280.145L317.004 283.947C316.784 284.412 316.525 284.856 316.229 285.275C316.401 284.79 316.604 284.316 316.836 283.857C317.308 282.88 317.959 281.587 318.678 279.986L325.206 266.673L325.532 267.07L316.903 269.658L308.387 272.178L307.769 272.359L308.061 271.781L314.768 258.422C315.589 256.844 316.251 255.551 316.746 254.586C316.958 254.104 317.21 253.641 317.499 253.201Z" fill="#E0E0E0"/>
<path d="M314.398 309.586C313.895 309.695 313.384 309.763 312.87 309.79L308.601 310.165L293.838 311.3L294.018 310.812L300.489 316.941L307.039 323.183L307.511 323.637H306.86L292.175 324.454L287.928 324.636C287.42 324.68 286.909 324.68 286.4 324.636C286.9 324.535 287.408 324.475 287.917 324.454L292.153 324.102L306.826 323.081L306.657 323.569L300.085 317.338L293.636 311.186L293.164 310.744H293.804L308.578 309.847L312.859 309.631C313.37 309.577 313.885 309.562 314.398 309.586Z" fill="#E0E0E0"/>
<path d="M372.787 100.175L339.34 88.0419L306.264 100.016C302.039 102.025 298.332 103.239 298.332 107.211V127.028C298.254 140.946 302.016 154.611 309.196 166.49C316.371 178.478 327.003 187.963 339.666 193.673C353.148 189.235 363.26 177.386 369.495 167.262C376.695 155.389 380.477 141.723 380.416 127.8V109.981C380.416 104.306 377.427 101.537 372.787 100.175Z" fill="#FC8802"/>
<g opacity="0.3">
<path d="M339.666 182.141C329.631 177.57 321.221 170.005 315.567 160.464C309.874 151.076 306.882 140.272 306.927 129.264V115.417C306.927 112.262 308.814 109.311 312.544 107.552L339.351 97.4279V88.0872L306.264 100.016C302.792 101.548 298.332 103.239 298.332 107.211V127.028C298.254 140.946 302.016 154.611 309.196 166.49C316.371 178.478 327.003 187.963 339.666 193.673V182.141Z" fill="black"/>
</g>
<g opacity="0.4">
<path d="M339.665 193.639C341.935 192.89 344.134 191.94 346.238 190.801C351.412 187.845 356.116 184.118 360.192 179.747C363.878 175.736 367.121 171.333 369.866 166.615C377.15 154.654 380.817 140.804 380.415 126.767V110.412C380.415 102.263 376.258 101.661 372.775 100.129L339.328 87.9965V97.3372L366.45 107.631C370.18 109.39 372.068 112.341 372.068 115.485V129.388C372.112 140.394 369.121 151.194 363.428 160.577C357.895 170.075 349.586 177.608 339.643 182.141L339.665 193.639Z" fill="black"/>
</g>
<path opacity="0.5" fill-rule="evenodd" clip-rule="evenodd" d="M348.215 128.378V125.7C348.215 120.854 344.327 116.927 339.531 116.927C334.734 116.927 330.846 120.854 330.846 125.7V128.424C328.47 128.783 326.712 130.844 326.711 133.27V149.046C326.711 151.754 328.884 153.949 331.565 153.949H347.833C350.514 153.949 352.687 151.754 352.687 149.046V133.27C352.689 130.71 350.741 128.58 348.215 128.378ZM341.89 145.108H337.643L338.306 142.009C337.352 141.381 336.92 140.194 337.244 139.092C337.568 137.989 338.571 137.232 339.71 137.232C340.849 137.232 341.852 137.989 342.177 139.092C342.501 140.194 342.069 141.381 341.115 142.009C341.407 143.167 341.89 145.108 341.89 145.108ZM332.722 128.356H346.384L346.35 125.7C346.202 122.007 343.195 119.09 339.536 119.09C335.878 119.09 332.871 122.007 332.722 125.7V128.356Z" fill="white"/>
<path d="M312.352 128.185C312.06 127.298 311.89 126.373 311.847 125.439C311.597 123.205 311.507 120.956 311.577 118.708C311.577 117.392 311.701 116.143 311.813 115.008C311.869 113.973 312.125 112.959 312.566 112.024C312.882 111.382 313.394 110.861 314.026 110.537C314.487 110.321 314.768 110.332 314.768 110.367C313.961 110.74 313.312 111.392 312.937 112.205C312.578 113.113 312.38 114.077 312.352 115.054C312.263 116.189 312.195 117.426 312.161 118.731C312.083 121.33 312.161 123.691 312.263 125.405C312.364 126.328 312.394 127.258 312.352 128.185Z" fill="white"/>
<path d="M312.837 136.8C312.679 136.8 312.533 135.994 312.511 134.984C312.488 133.974 312.612 133.156 312.769 133.156C312.926 133.156 313.073 133.962 313.095 134.972C313.117 135.983 313.005 136.8 312.837 136.8Z" fill="white"/>
<path d="M279.659 240.524L242.369 333.681H175.127V337.892H375.416L416.391 240.524H279.659Z" fill="#263238"/>
<path d="M336.666 295.524C335.318 300.211 331.385 303.174 327.88 302.152C324.374 301.131 322.633 296.477 323.981 291.79C325.329 287.103 329.273 284.14 332.778 285.162C336.284 286.183 338.025 290.837 336.666 295.524Z" fill="#FAFAFA"/>
</svg>
