<svg width="32" height="33" viewBox="0 0 32 33" fill="none" xmlns="http://www.w3.org/2000/svg">
<path d="M10.6654 21.8335V21.8468M10.6654 16.5002V16.5135M10.6654 11.1668V11.1802M21.332 21.8335V21.8468M21.332 16.5002V16.5135M21.332 11.1668V11.1802M15.9987 11.1668V11.1802M15.9987 21.8335V21.8468M5.33203 8.50016C5.33203 7.79292 5.61298 7.11464 6.11308 6.61454C6.61318 6.11445 7.29145 5.8335 7.9987 5.8335H23.9987C24.7059 5.8335 25.3842 6.11445 25.8843 6.61454C26.3844 7.11464 26.6654 7.79292 26.6654 8.50016V24.5002C26.6654 25.2074 26.3844 25.8857 25.8843 26.3858C25.3842 26.8859 24.7059 27.1668 23.9987 27.1668H7.9987C7.29145 27.1668 6.61318 26.8859 6.11308 26.3858C5.61298 25.8857 5.33203 25.2074 5.33203 24.5002V8.50016Z" stroke="#FF5A1F" stroke-width="2" stroke-linecap="round" stroke-linejoin="round"/>
</svg>
