<svg width="20" height="18" viewBox="0 0 20 18" fill="none" xmlns="http://www.w3.org/2000/svg">
<path d="M10.8984 17.1841C12.3977 16.1495 14.1769 15.5969 15.9984 15.6001C16.8285 15.5991 17.6548 15.713 18.4536 15.9385C18.5875 15.9763 18.7283 15.9826 18.865 15.9569C19.0018 15.9311 19.1306 15.874 19.2416 15.7901C19.3525 15.7061 19.4424 15.5976 19.5044 15.473C19.5663 15.3485 19.5985 15.2112 19.5984 15.0721V1.87211C19.5982 1.67624 19.5342 1.48578 19.4159 1.32964C19.2977 1.17349 19.1317 1.06018 18.9432 1.00691C17.9851 0.736216 16.9941 0.599319 15.9984 0.600109C14.2189 0.597494 12.4665 1.03662 10.8984 1.87811V17.1841ZM9.09844 1.87811C7.53039 1.03662 5.778 0.597494 3.99844 0.600109C3.00278 0.599319 2.01179 0.736216 1.05364 1.00691C0.865156 1.06018 0.699199 1.17349 0.580952 1.32964C0.462706 1.48578 0.398626 1.67624 0.398438 1.87211V15.0721C0.398571 15.2111 0.430906 15.3482 0.492907 15.4726C0.554907 15.5971 0.644887 15.7054 0.755792 15.7893C0.866696 15.8731 0.995508 15.9301 1.13213 15.9557C1.26875 15.9814 1.40946 15.9751 1.54324 15.9373C2.34217 15.7122 3.1684 15.5988 3.99844 15.6001C5.89324 15.6001 7.64884 16.1845 9.09844 17.1841V1.87811Z" fill="#FF5A1F"/>
</svg>
