<svg width="32" height="33" viewBox="0 0 32 33" fill="none" xmlns="http://www.w3.org/2000/svg">
<g clip-path="url(#clip0_6658_9963)">
<path d="M5.30351 30.7105C7.35236 30.7105 9.01327 29.0496 9.01327 27.0008C9.01327 24.9519 7.35236 23.291 5.30351 23.291C3.25467 23.291 1.59375 24.9519 1.59375 27.0008C1.59375 29.0496 3.25467 30.7105 5.30351 30.7105Z" fill="#FF5A1F"/>
<path d="M16.0769 30.7105C18.1258 30.7105 19.7867 29.0496 19.7867 27.0008C19.7867 24.9519 18.1258 23.291 16.0769 23.291C14.0281 23.291 12.3672 24.9519 12.3672 27.0008C12.3672 29.0496 14.0281 30.7105 16.0769 30.7105Z" fill="#FF5A1F"/>
<path d="M26.6746 30.7105C28.7234 30.7105 30.3844 29.0496 30.3844 27.0008C30.3844 24.9519 28.7234 23.291 26.6746 23.291C24.6258 23.291 22.9648 24.9519 22.9648 27.0008C22.9648 29.0496 24.6258 30.7105 26.6746 30.7105Z" fill="#FF5A1F"/>
<path d="M25.5146 19.1528H24.7305V20.7538H25.5146V19.1528Z" fill="#FF5A1F"/>
<path d="M0 2.28857V20.7527H22.4992V19.1518V18.6276V17.9189H22.3024L22.0098 12.2197H16.6501V10.684H21.9312H22.7225H24.0135L25.2015 12.0626L26.3517 10.684L28.8756 11.0154L29.0387 16.7554H27.968L27.9099 17.9189H27.7467V18.6276V19.1518V20.7527H32V2.28857H0ZM25.1474 10.2149C23.4262 10.2149 22.0291 8.8189 22.0291 7.0976C22.0291 5.3763 23.4251 3.9803 25.1474 3.9803C26.8698 3.9803 28.2647 5.3763 28.2647 7.0976C28.2647 8.8189 26.8677 10.2149 25.1474 10.2149Z" fill="#FF5A1F"/>
</g>
<defs>
<clipPath id="clip0_6658_9963">
<rect width="32" height="32" fill="white" transform="translate(0 0.5)"/>
</clipPath>
</defs>
</svg>
