<svg width="8" height="12" viewBox="0 0 8 12" fill="none" xmlns="http://www.w3.org/2000/svg">
<path d="M1.67863 12C1.44839 11.9999 1.22332 11.9296 1.0319 11.7979C0.840472 11.6662 0.691275 11.4791 0.603171 11.2601C0.515067 11.0411 0.49201 10.8002 0.536915 10.5677C0.581821 10.3353 0.692672 10.1217 0.855455 9.95411L4.68957 6.00736L0.855455 2.06061C0.74425 1.95005 0.655549 1.8178 0.594528 1.67158C0.533507 1.52535 0.501387 1.36808 0.500044 1.20894C0.498701 1.0498 0.528161 0.89198 0.586704 0.744686C0.645247 0.597391 0.731702 0.463573 0.841023 0.35104C0.950345 0.238507 1.08034 0.149513 1.22343 0.0892499C1.36653 0.0289869 1.51984 -0.00133763 1.67444 4.52529e-05C1.82904 0.00142813 1.98182 0.034491 2.12387 0.0973047C2.26593 0.160118 2.3944 0.251425 2.50181 0.365896L7.1591 5.16001C7.37738 5.38476 7.5 5.68956 7.5 6.00736C7.5 6.32517 7.37738 6.62997 7.1591 6.85472L2.50181 11.6488C2.28351 11.8736 1.9874 11.9999 1.67863 12Z" fill="#6B7280"/>
</svg>
