<svg width="24" height="25" viewBox="0 0 24 25" fill="none" xmlns="http://www.w3.org/2000/svg">
<path d="M6 21.7021V19.7021C6 18.6413 6.42143 17.6239 7.17157 16.8737C7.92172 16.1236 8.93913 15.7021 10 15.7021H14M15 19.7021L17 21.7021L21 17.7021M8 7.70215C8 8.76301 8.42143 9.78043 9.17157 10.5306C9.92172 11.2807 10.9391 11.7021 12 11.7021C13.0609 11.7021 14.0783 11.2807 14.8284 10.5306C15.5786 9.78043 16 8.76301 16 7.70215C16 6.64128 15.5786 5.62387 14.8284 4.87372C14.0783 4.12358 13.0609 3.70215 12 3.70215C10.9391 3.70215 9.92172 4.12358 9.17157 4.87372C8.42143 5.62387 8 6.64128 8 7.70215Z" stroke="white" stroke-width="2" stroke-linecap="round" stroke-linejoin="round"/>
</svg>
