<svg width="28" height="29" viewBox="0 0 28 29" fill="none" xmlns="http://www.w3.org/2000/svg">
<path d="M14 28.3955C11.2311 28.3955 8.52431 27.5744 6.22202 26.0361C3.91973 24.4977 2.12532 22.3112 1.06569 19.7531C0.00606598 17.1949 -0.271181 14.38 0.269012 11.6642C0.809205 8.94851 2.14258 6.45395 4.10051 4.49602C6.05845 2.53808 8.55301 1.20471 11.2687 0.66452C13.9845 0.124327 16.7994 0.401574 19.3576 1.4612C21.9157 2.52083 24.1022 4.31524 25.6406 6.61753C27.1789 8.91982 28 11.6266 28 14.3955C27.9959 18.1073 26.5196 21.6659 23.895 24.2905C21.2704 26.9151 17.7118 28.3914 14 28.3955ZM14 3.19551C11.7849 3.19551 9.61945 3.85238 7.77762 5.08305C5.93579 6.31373 4.50026 8.06293 3.65256 10.1095C2.80485 12.156 2.58306 14.4079 3.01521 16.5805C3.44737 18.7531 4.51406 20.7488 6.08041 22.3151C7.64676 23.8815 9.64241 24.9482 11.815 25.3803C13.9876 25.8125 16.2395 25.5907 18.2861 24.743C20.3326 23.8953 22.0818 22.4597 23.3125 20.6179C24.5431 18.7761 25.2 16.6107 25.2 14.3955C25.1967 11.4261 24.0156 8.57928 21.9159 6.4796C19.8162 4.37992 16.9694 3.19885 14 3.19551Z" fill="#FF5A1F"/>
<path d="M14 18.5955C13.6287 18.5955 13.2726 18.448 13.0101 18.1855C12.7475 17.9229 12.6 17.5668 12.6 17.1955V15.2103C12.6 15.0218 12.6381 14.8352 12.7119 14.6618C12.7858 14.4883 12.8939 14.3316 13.0298 14.2009C13.1647 14.0695 13.3251 13.9671 13.5011 13.9002C13.6772 13.8332 13.8651 13.8031 14.0532 13.8117C14.3239 13.8215 14.5937 13.7765 14.8466 13.6795C15.0994 13.5824 15.33 13.4352 15.5246 13.2468C15.7192 13.0584 15.8736 12.8326 15.9788 12.583C16.0839 12.3334 16.1375 12.0651 16.1364 11.7943C16.1579 11.2374 15.9573 10.6947 15.5787 10.2856C15.2001 9.87655 14.6746 9.63465 14.1176 9.61311C13.5606 9.59158 13.018 9.79217 12.6089 10.1708C12.1998 10.5494 11.9579 11.075 11.9364 11.6319C11.932 11.8164 11.8906 11.9981 11.8147 12.1663C11.7389 12.3345 11.63 12.4858 11.4947 12.6113C11.3593 12.7367 11.2002 12.8337 11.0267 12.8966C10.8532 12.9595 10.6689 12.9869 10.4846 12.9773C10.114 12.9627 9.76424 12.8017 9.51225 12.5295C9.26026 12.2573 9.12659 11.8962 9.1406 11.5255C9.18035 10.6252 9.4676 9.75336 9.97075 9.00575C10.4739 8.25814 11.1735 7.66377 11.9925 7.28799C12.8116 6.91221 13.7184 6.76958 14.6133 6.87578C15.5082 6.98199 16.3564 7.33291 17.0648 7.88996C17.7732 8.44701 18.3142 9.18862 18.6284 10.0332C18.9426 10.8778 19.0177 11.7927 18.8457 12.6773C18.6736 13.5619 18.2609 14.3819 17.653 15.0471C17.0451 15.7123 16.2655 16.197 15.4 16.4479V17.1955C15.4 17.5668 15.2525 17.9229 14.99 18.1855C14.7274 18.448 14.3713 18.5955 14 18.5955Z" fill="#FF5A1F"/>
<path d="M14 22.7955C14.7732 22.7955 15.4 22.1687 15.4 21.3955C15.4 20.6223 14.7732 19.9955 14 19.9955C13.2268 19.9955 12.6 20.6223 12.6 21.3955C12.6 22.1687 13.2268 22.7955 14 22.7955Z" fill="#FF5A1F"/>
</svg>
