<svg width="20" height="21" viewBox="0 0 20 21" fill="none" xmlns="http://www.w3.org/2000/svg">
<path d="M2.92098 14.3673L8.91979 20.0817C9.05946 20.215 9.22568 20.3204 9.40869 20.3917C9.77556 20.5361 10.1876 20.5361 10.5545 20.3917C10.7375 20.3204 10.9037 20.215 11.0434 20.0817L17.0422 14.3673C17.1854 14.2355 17.2996 14.0779 17.3782 13.9036C17.4568 13.7293 17.4982 13.5418 17.4999 13.3522C17.5017 13.1625 17.4637 12.9743 17.3883 12.7988C17.3129 12.6232 17.2016 12.4637 17.0607 12.3296C16.9199 12.1954 16.7525 12.0894 16.5682 12.0175C16.3839 11.9457 16.1864 11.9096 15.9873 11.9112C15.7881 11.9129 15.5913 11.9523 15.4084 12.0271C15.2254 12.102 15.0599 12.2108 14.9216 12.3473L11.4798 15.623L11.4798 1.92859C11.4798 1.5497 11.3218 1.18634 11.0405 0.918423C10.7593 0.650511 10.3778 0.500001 9.98007 0.500001C9.58233 0.500001 9.20087 0.650511 8.91962 0.918423C8.63838 1.18634 8.48037 1.5497 8.48037 1.92859L8.48037 15.623L5.04156 12.3473C4.75871 12.0871 4.37989 11.9431 3.98667 11.9463C3.59345 11.9496 3.21731 12.0998 2.93925 12.3647C2.6612 12.6296 2.50347 12.9879 2.50006 13.3624C2.49664 13.737 2.6478 14.0979 2.92098 14.3673V14.3673Z" fill="#F05252"/>
</svg>
