<svg width="24" height="25" viewBox="0 0 24 25" fill="none" xmlns="http://www.w3.org/2000/svg">
<path d="M9 5.70215H7C6.46957 5.70215 5.96086 5.91286 5.58579 6.28793C5.21071 6.66301 5 7.17172 5 7.70215V19.7021C5 20.2326 5.21071 20.7413 5.58579 21.1164C5.96086 21.4914 6.46957 21.7021 7 21.7021H17C17.5304 21.7021 18.0391 21.4914 18.4142 21.1164C18.7893 20.7413 19 20.2326 19 19.7021V7.70215C19 7.17172 18.7893 6.66301 18.4142 6.28793C18.0391 5.91286 17.5304 5.70215 17 5.70215H15" stroke="white" stroke-width="1.6" stroke-linecap="round" stroke-linejoin="round"/>
<path d="M9 17.7021V12.7021M12 17.7021V16.7021M15 17.7021V14.7021M9 5.70215C9 5.17172 9.21071 4.66301 9.58579 4.28793C9.96086 3.91286 10.4696 3.70215 11 3.70215H13C13.5304 3.70215 14.0391 3.91286 14.4142 4.28793C14.7893 4.66301 15 5.17172 15 5.70215C15 6.23258 14.7893 6.74129 14.4142 7.11636C14.0391 7.49143 13.5304 7.70215 13 7.70215H11C10.4696 7.70215 9.96086 7.49143 9.58579 7.11636C9.21071 6.74129 9 6.23258 9 5.70215Z" stroke="white" stroke-width="1.6" stroke-linecap="round" stroke-linejoin="round"/>
</svg>
