<svg width="24" height="25" viewBox="0 0 24 25" fill="none" xmlns="http://www.w3.org/2000/svg">
<path d="M11 12.1072C11 12.3724 11.1054 12.6267 11.2929 12.8143C11.4804 13.0018 11.7348 13.1072 12 13.1072C12.2652 13.1072 12.5196 13.0018 12.7071 12.8143C12.8946 12.6267 13 12.3724 13 12.1072C13 11.842 12.8946 11.5876 12.7071 11.4001C12.5196 11.2125 12.2652 11.1072 12 11.1072C11.7348 11.1072 11.4804 11.2125 11.2929 11.4001C11.1054 11.5876 11 11.842 11 12.1072Z" stroke="white" stroke-width="1.6" stroke-linecap="round" stroke-linejoin="round"/>
<path d="M16.9241 11.2392C16.7524 10.2653 16.2958 9.36422 15.612 8.64982C14.9282 7.93543 14.0479 7.43985 13.0825 7.22576C12.117 7.01167 11.1097 7.08868 10.188 7.44705C9.26635 7.80542 8.47163 8.42906 7.90437 9.23911C7.33712 10.0492 7.02281 11.0092 7.00119 11.9979C6.97958 12.9866 7.25163 13.9595 7.78294 14.7935C8.31425 15.6276 9.08096 16.2854 9.98611 16.6837C10.8913 17.082 11.8942 17.2029 12.8681 17.0312" stroke="white" stroke-width="1.6" stroke-linecap="round" stroke-linejoin="round"/>
<path d="M3 12.1072C3 13.8872 3.52784 15.6273 4.51677 17.1073C5.50571 18.5874 6.91131 19.7409 8.55585 20.4221C10.2004 21.1033 12.01 21.2815 13.7558 20.9342C15.5016 20.587 17.1053 19.7298 18.364 18.4711C19.6226 17.2125 20.4798 15.6088 20.8271 13.863C21.1743 12.1172 20.9961 10.3076 20.3149 8.66303C19.6337 7.01849 18.4802 5.61288 17.0001 4.62395C15.5201 3.63502 13.78 3.10718 12 3.10718" stroke="white" stroke-width="1.6" stroke-linecap="round" stroke-linejoin="round"/>
</svg>
