<svg width="15" height="14" viewBox="0 0 15 14" fill="none" xmlns="http://www.w3.org/2000/svg">
<path d="M7.5 1.75C7.93265 1.75 8.35558 1.87829 8.71531 2.11866C9.07504 2.35903 9.35542 2.70067 9.52099 3.10038C9.68655 3.50009 9.72987 3.93993 9.64547 4.36426C9.56106 4.78859 9.35272 5.17837 9.0468 5.4843C8.74087 5.79022 8.35109 5.99856 7.92676 6.08297C7.50243 6.16737 7.06259 6.12405 6.66288 5.95849C6.26317 5.79292 5.92153 5.51254 5.68116 5.15281C5.44079 4.79308 5.3125 4.37015 5.3125 3.9375C5.3125 3.35734 5.54297 2.80094 5.9532 2.3907C6.36344 1.98047 6.91984 1.75 7.5 1.75ZM7.5 0.875C6.89429 0.875 6.30219 1.05461 5.79857 1.39112C5.29494 1.72764 4.90241 2.20593 4.67062 2.76553C4.43883 3.32513 4.37818 3.9409 4.49635 4.53496C4.61451 5.12903 4.90619 5.67472 5.33449 6.10301C5.76278 6.53131 6.30847 6.82299 6.90254 6.94115C7.4966 7.05932 8.11237 6.99867 8.67197 6.76688C9.23157 6.53509 9.70986 6.14256 10.0464 5.63893C10.3829 5.13531 10.5625 4.54321 10.5625 3.9375C10.5625 3.12527 10.2398 2.34632 9.66551 1.77199C9.09118 1.19766 8.31223 0.875 7.5 0.875ZM11.875 13.125H11V10.9375C11 10.6502 10.9434 10.3658 10.8335 10.1004C10.7236 9.83498 10.5624 9.59383 10.3593 9.3907C10.1562 9.18758 9.91502 9.02645 9.64962 8.91651C9.38422 8.80658 9.09977 8.75 8.8125 8.75H6.1875C5.60734 8.75 5.05094 8.98047 4.6407 9.3907C4.23047 9.80094 4 10.3573 4 10.9375V13.125H3.125V10.9375C3.125 10.1253 3.44766 9.34632 4.02199 8.77199C4.59632 8.19766 5.37527 7.875 6.1875 7.875H8.8125C9.62473 7.875 10.4037 8.19766 10.978 8.77199C11.5523 9.34632 11.875 10.1253 11.875 10.9375V13.125Z" fill="#0E9F6E"/>
</svg>
