<svg width="14" height="14" viewBox="0 0 14 14" fill="none" xmlns="http://www.w3.org/2000/svg">
<path d="M7 1.75C7.43265 1.75 7.85558 1.87829 8.21531 2.11866C8.57504 2.35903 8.85542 2.70067 9.02099 3.10038C9.18655 3.50009 9.22987 3.93993 9.14547 4.36426C9.06106 4.78859 8.85272 5.17837 8.5468 5.4843C8.24087 5.79022 7.85109 5.99856 7.42676 6.08297C7.00243 6.16737 6.56259 6.12405 6.16288 5.95849C5.76317 5.79292 5.42153 5.51254 5.18116 5.15281C4.94079 4.79308 4.8125 4.37015 4.8125 3.9375C4.8125 3.35734 5.04297 2.80094 5.4532 2.3907C5.86344 1.98047 6.41984 1.75 7 1.75ZM7 0.875C6.39429 0.875 5.80219 1.05461 5.29857 1.39112C4.79494 1.72764 4.40241 2.20593 4.17062 2.76553C3.93883 3.32513 3.87818 3.9409 3.99635 4.53496C4.11451 5.12903 4.40619 5.67472 4.83449 6.10301C5.26278 6.53131 5.80847 6.82299 6.40254 6.94115C6.9966 7.05932 7.61237 6.99867 8.17197 6.76688C8.73157 6.53509 9.20986 6.14256 9.54638 5.63893C9.88289 5.13531 10.0625 4.54321 10.0625 3.9375C10.0625 3.12527 9.73984 2.34632 9.16551 1.77199C8.59118 1.19766 7.81223 0.875 7 0.875ZM11.375 13.125H10.5V10.9375C10.5 10.6502 10.4434 10.3658 10.3335 10.1004C10.2236 9.83498 10.0624 9.59383 9.8593 9.3907C9.65617 9.18758 9.41502 9.02645 9.14962 8.91651C8.88422 8.80658 8.59977 8.75 8.3125 8.75H5.6875C5.10734 8.75 4.55094 8.98047 4.1407 9.3907C3.73047 9.80094 3.5 10.3573 3.5 10.9375V13.125H2.625V10.9375C2.625 10.1253 2.94766 9.34632 3.52199 8.77199C4.09632 8.19766 4.87527 7.875 5.6875 7.875H8.3125C9.12473 7.875 9.90368 8.19766 10.478 8.77199C11.0523 9.34632 11.375 10.1253 11.375 10.9375V13.125Z" fill="#F05252"/>
</svg>
