<svg width="41" height="41" viewBox="0 0 41 41" fill="none" xmlns="http://www.w3.org/2000/svg">
<path d="M20.5 27.1667C19.174 27.1667 17.9022 26.6399 16.9645 25.7022C16.0268 24.7645 15.5 23.4928 15.5 22.1667C15.5 20.3 16.5167 18.6667 18 17.8167L34.1834 8.45L24.9667 24.4167C24.1334 26.05 22.4501 27.1667 20.5 27.1667ZM20.5 5.5C23.5167 5.5 26.3334 6.33333 28.7834 7.7L25.2834 9.71667C23.8334 9.15 22.1667 8.83333 20.5 8.83333C18.7491 8.83333 17.0153 9.17821 15.3976 9.84827C13.7799 10.5183 12.3101 11.5005 11.072 12.7386C9.83385 13.9767 8.85172 15.4465 8.18166 17.0642C7.51159 18.6819 7.16672 20.4157 7.16672 22.1667C7.16672 25.85 8.65005 29.1833 11.0667 31.5833H11.0834C11.7334 32.2333 11.7334 33.2833 11.0834 33.9333C10.4334 34.5833 9.36672 34.5833 8.71672 33.95C7.16667 32.4044 5.93732 30.5678 5.09927 28.5456C4.26123 26.5234 3.83103 24.3556 3.83338 22.1667C3.83338 17.7464 5.58933 13.5072 8.71494 10.3816C11.8405 7.25595 16.0798 5.5 20.5 5.5ZM37.1667 22.1667C37.1667 26.7667 35.3001 30.9333 32.2834 33.95C31.6334 34.5833 30.5834 34.5833 29.9334 33.9333C29.7789 33.7791 29.6563 33.596 29.5727 33.3944C29.489 33.1928 29.446 32.9766 29.446 32.7583C29.446 32.5401 29.489 32.3239 29.5727 32.1223C29.6563 31.9207 29.7789 31.7375 29.9334 31.5833C31.1729 30.3489 32.1557 28.8812 32.8251 27.265C33.4944 25.6488 33.8371 23.916 33.8334 22.1667C33.8334 20.5 33.5167 18.8333 32.9334 17.3333L34.9501 13.8333C36.3334 16.3333 37.1667 19.1333 37.1667 22.1667Z" fill="#FF5A1F"/>
</svg>
