<svg width="24" height="24" viewBox="0 0 24 24" fill="none" xmlns="http://www.w3.org/2000/svg">
<path d="M21 12C21 16.9706 16.9706 21 12 21C7.02944 21 3 16.9706 3 12C3 7.02944 7.02944 3 12 3C16.9706 3 21 7.02944 21 12Z" stroke="#F05252" stroke-width="0.6"/>
<path d="M11.1 12.9C9.6069 12.9 8.4 14.1069 8.4 15.6C8.4 17.0931 9.6069 18.3 11.1 18.3C12.5931 18.3 13.8 17.0931 13.8 15.6C13.8 14.1069 12.5931 12.9 11.1 12.9ZM11.1 17.76C9.9066 17.76 8.94 16.7934 8.94 15.6C8.94 14.4066 9.9066 13.44 11.1 13.44C12.2934 13.44 13.26 14.4066 13.26 15.6C13.26 16.7934 12.2934 17.76 11.1 17.76Z" stroke="#F05252" stroke-width="0.6"/>
<path d="M10.65 6.6C9.40575 6.6 8.4 7.60575 8.4 8.85C8.4 10.0943 9.40575 11.1 10.65 11.1C11.8942 11.1 12.9 10.0943 12.9 8.85C12.9 7.60575 11.8942 6.6 10.65 6.6ZM10.65 10.65C9.6555 10.65 8.85 9.8445 8.85 8.85C8.85 7.8555 9.6555 7.05 10.65 7.05C11.6445 7.05 12.45 7.8555 12.45 8.85C12.45 9.8445 11.6445 10.65 10.65 10.65Z" stroke="#F05252" stroke-width="0.6"/>
<path d="M14.7 10.2C13.7046 10.2 12.9 11.0046 12.9 12C12.9 12.9954 13.7046 13.8 14.7 13.8C15.6954 13.8 16.5 12.9954 16.5 12C16.5 11.0046 15.6954 10.2 14.7 10.2ZM14.7 13.44C13.9044 13.44 13.26 12.7956 13.26 12C13.26 11.2044 13.9044 10.56 14.7 10.56C15.4956 10.56 16.14 11.2044 16.14 12C16.14 12.7956 15.4956 13.44 14.7 13.44Z" stroke="#F05252" stroke-width="0.6"/>
<path d="M8.4 11.1C7.9023 11.1 7.5 11.5023 7.5 12C7.5 12.4977 7.9023 12.9 8.4 12.9C8.8977 12.9 9.3 12.4977 9.3 12C9.3 11.5023 8.8977 11.1 8.4 11.1ZM8.4 12.72C8.0022 12.72 7.68 12.3978 7.68 12C7.68 11.6022 8.0022 11.28 8.4 11.28C8.7978 11.28 9.12 11.6022 9.12 12C9.12 12.3978 8.7978 12.72 8.4 12.72Z" stroke="#F05252" stroke-width="0.6"/>
</svg>
