<svg width="24" height="25" viewBox="0 0 24 25" fill="none" xmlns="http://www.w3.org/2000/svg">
<circle cx="12" cy="12.7021" r="8.2" stroke="white" stroke-width="1.6"/>
<mask id="path-2-inside-1_6242_545" fill="white">
<path d="M11.0999 13.6021C9.6068 13.6021 8.3999 14.809 8.3999 16.3021C8.3999 17.7952 9.6068 19.0021 11.0999 19.0021C12.593 19.0021 13.7999 17.7952 13.7999 16.3021C13.7999 14.809 12.593 13.6021 11.0999 13.6021ZM11.0999 18.4621C9.9065 18.4621 8.9399 17.4955 8.9399 16.3021C8.9399 15.1087 9.9065 14.1421 11.0999 14.1421C12.2933 14.1421 13.2599 15.1087 13.2599 16.3021C13.2599 17.4955 12.2933 18.4621 11.0999 18.4621Z"/>
</mask>
<path d="M11.0999 12.6021C9.05452 12.6021 7.3999 14.2567 7.3999 16.3021H9.3999C9.3999 15.3612 10.1591 14.6021 11.0999 14.6021V12.6021ZM7.3999 16.3021C7.3999 18.3474 9.05452 20.0021 11.0999 20.0021V18.0021C10.1591 18.0021 9.3999 17.2429 9.3999 16.3021H7.3999ZM11.0999 20.0021C13.1453 20.0021 14.7999 18.3474 14.7999 16.3021H12.7999C12.7999 17.2429 12.0407 18.0021 11.0999 18.0021V20.0021ZM14.7999 16.3021C14.7999 14.2567 13.1453 12.6021 11.0999 12.6021V14.6021C12.0407 14.6021 12.7999 15.3612 12.7999 16.3021H14.7999ZM11.0999 17.4621C10.4588 17.4621 9.9399 16.9432 9.9399 16.3021H7.9399C7.9399 18.0477 9.35422 19.4621 11.0999 19.4621V17.4621ZM9.9399 16.3021C9.9399 15.6609 10.4588 15.1421 11.0999 15.1421V13.1421C9.35422 13.1421 7.9399 14.5564 7.9399 16.3021H9.9399ZM11.0999 15.1421C11.741 15.1421 12.2599 15.6609 12.2599 16.3021H14.2599C14.2599 14.5564 12.8456 13.1421 11.0999 13.1421V15.1421ZM12.2599 16.3021C12.2599 16.9432 11.741 17.4621 11.0999 17.4621V19.4621C12.8456 19.4621 14.2599 18.0477 14.2599 16.3021H12.2599Z" fill="white" mask="url(#path-2-inside-1_6242_545)"/>
<mask id="path-4-inside-2_6242_545" fill="white">
<path d="M10.6499 7.30225C9.40565 7.30225 8.3999 8.308 8.3999 9.55225C8.3999 10.7965 9.40565 11.8022 10.6499 11.8022C11.8942 11.8022 12.8999 10.7965 12.8999 9.55225C12.8999 8.308 11.8942 7.30225 10.6499 7.30225ZM10.6499 11.3522C9.6554 11.3522 8.8499 10.5467 8.8499 9.55225C8.8499 8.55775 9.6554 7.75225 10.6499 7.75225C11.6444 7.75225 12.4499 8.55775 12.4499 9.55225C12.4499 10.5467 11.6444 11.3522 10.6499 11.3522Z"/>
</mask>
<path d="M10.6499 6.30225C8.85337 6.30225 7.3999 7.75571 7.3999 9.55225H9.3999C9.3999 8.86028 9.95794 8.30225 10.6499 8.30225V6.30225ZM7.3999 9.55225C7.3999 11.3488 8.85337 12.8022 10.6499 12.8022V10.8022C9.95794 10.8022 9.3999 10.2442 9.3999 9.55225H7.3999ZM10.6499 12.8022C12.4464 12.8022 13.8999 11.3488 13.8999 9.55225H11.8999C11.8999 10.2442 11.3419 10.8022 10.6499 10.8022V12.8022ZM13.8999 9.55225C13.8999 7.75571 12.4464 6.30225 10.6499 6.30225V8.30225C11.3419 8.30225 11.8999 8.86028 11.8999 9.55225H13.8999ZM10.6499 10.3522C10.2077 10.3522 9.8499 9.99446 9.8499 9.55225H7.8499C7.8499 11.099 9.10312 12.3522 10.6499 12.3522V10.3522ZM9.8499 9.55225C9.8499 9.11003 10.2077 8.75225 10.6499 8.75225V6.75225C9.10312 6.75225 7.8499 8.00546 7.8499 9.55225H9.8499ZM10.6499 8.75225C11.0921 8.75225 11.4499 9.11003 11.4499 9.55225H13.4499C13.4499 8.00546 12.1967 6.75225 10.6499 6.75225V8.75225ZM11.4499 9.55225C11.4499 9.99446 11.0921 10.3522 10.6499 10.3522V12.3522C12.1967 12.3522 13.4499 11.099 13.4499 9.55225H11.4499Z" fill="white" mask="url(#path-4-inside-2_6242_545)"/>
<mask id="path-6-inside-3_6242_545" fill="white">
<path d="M14.6999 10.9023C13.7045 10.9023 12.8999 11.7069 12.8999 12.7023C12.8999 13.6977 13.7045 14.5023 14.6999 14.5023C15.6953 14.5023 16.4999 13.6977 16.4999 12.7023C16.4999 11.7069 15.6953 10.9023 14.6999 10.9023ZM14.6999 14.1423C13.9043 14.1423 13.2599 13.4979 13.2599 12.7023C13.2599 11.9067 13.9043 11.2623 14.6999 11.2623C15.4955 11.2623 16.1399 11.9067 16.1399 12.7023C16.1399 13.4979 15.4955 14.1423 14.6999 14.1423Z"/>
</mask>
<path d="M14.6999 9.90234C13.1522 9.90234 11.8999 11.1547 11.8999 12.7023H13.8999C13.8999 12.2592 14.2568 11.9023 14.6999 11.9023V9.90234ZM11.8999 12.7023C11.8999 14.25 13.1522 15.5023 14.6999 15.5023V13.5023C14.2568 13.5023 13.8999 13.1455 13.8999 12.7023H11.8999ZM14.6999 15.5023C16.2476 15.5023 17.4999 14.25 17.4999 12.7023H15.4999C15.4999 13.1455 15.143 13.5023 14.6999 13.5023V15.5023ZM17.4999 12.7023C17.4999 11.1547 16.2476 9.90234 14.6999 9.90234V11.9023C15.143 11.9023 15.4999 12.2592 15.4999 12.7023H17.4999ZM14.6999 13.1423C14.4566 13.1423 14.2599 12.9457 14.2599 12.7023H12.2599C12.2599 14.0502 13.352 15.1423 14.6999 15.1423V13.1423ZM14.2599 12.7023C14.2599 12.459 14.4566 12.2623 14.6999 12.2623V10.2623C13.352 10.2623 12.2599 11.3545 12.2599 12.7023H14.2599ZM14.6999 12.2623C14.9432 12.2623 15.1399 12.459 15.1399 12.7023H17.1399C17.1399 11.3545 16.0478 10.2623 14.6999 10.2623V12.2623ZM15.1399 12.7023C15.1399 12.9457 14.9432 13.1423 14.6999 13.1423V15.1423C16.0478 15.1423 17.1399 14.0502 17.1399 12.7023H15.1399Z" fill="white" mask="url(#path-6-inside-3_6242_545)"/>
<path d="M8.4 11.8022C7.9023 11.8022 7.5 12.2045 7.5 12.7022C7.5 13.1999 7.9023 13.6022 8.4 13.6022C8.8977 13.6022 9.3 13.1999 9.3 12.7022C9.3 12.2045 8.8977 11.8022 8.4 11.8022ZM8.4 13.4222C8.0022 13.4222 7.68 13.1 7.68 12.7022C7.68 12.3044 8.0022 11.9822 8.4 11.9822C8.7978 11.9822 9.12 12.3044 9.12 12.7022C9.12 13.1 8.7978 13.4222 8.4 13.4222Z" stroke="white" stroke-width="0.5"/>
</svg>
