<svg width="24" height="24" viewBox="0 0 24 24" fill="none" xmlns="http://www.w3.org/2000/svg">
<path d="M12.2 16C11.4043 16 10.6412 15.6839 10.0786 15.1213C9.51603 14.5587 9.19996 13.7956 9.19996 13C9.19996 11.88 9.80996 10.9 10.7 10.39L20.41 4.77L14.88 14.35C14.38 15.33 13.37 16 12.2 16ZM12.2 3C14.01 3 15.7 3.5 17.17 4.32L15.07 5.53C14.2 5.19 13.2 5 12.2 5C11.1494 5 10.1091 5.20693 9.13849 5.60896C8.16788 6.011 7.28597 6.60028 6.5431 7.34315C5.80023 8.08601 5.21096 8.96793 4.80892 9.93853C4.40688 10.9091 4.19996 11.9494 4.19996 13C4.19996 15.21 5.08996 17.21 6.53996 18.65H6.54996C6.93996 19.04 6.93996 19.67 6.54996 20.06C6.15996 20.45 5.51996 20.45 5.12996 20.07C4.19993 19.1426 3.46232 18.0407 2.95949 16.8274C2.45667 15.6141 2.19855 14.3134 2.19996 13C2.19996 10.3478 3.25353 7.8043 5.12889 5.92893C7.00425 4.05357 9.54779 3 12.2 3ZM22.2 13C22.2 15.76 21.08 18.26 19.27 20.07C18.88 20.45 18.25 20.45 17.86 20.06C17.7673 19.9675 17.6937 19.8576 17.6435 19.7366C17.5933 19.6157 17.5675 19.486 17.5675 19.355C17.5675 19.224 17.5933 19.0943 17.6435 18.9734C17.6937 18.8524 17.7673 18.7425 17.86 18.65C18.6037 17.9093 19.1933 17.0287 19.595 16.059C19.9966 15.0893 20.2022 14.0496 20.2 13C20.2 12 20.01 11 19.66 10.1L20.87 8C21.7 9.5 22.2 11.18 22.2 13Z" fill="#FF5A1F"/>
</svg>
