<svg width="40" height="41" viewBox="0 0 40 41" fill="none" xmlns="http://www.w3.org/2000/svg">
<path d="M5.7325 35.5L14.705 28.0025L24.6975 30.425C25.2464 30.5603 25.8247 30.5074 26.34 30.275L35 26.225L33.94 23.96L25.295 27.9963L15.3025 25.5737C14.9275 25.4802 14.536 25.4749 14.1586 25.5581C13.7812 25.6414 13.4283 25.8111 13.1275 26.0538L5 32.8525V26.1125L14.705 18.0025L24.6975 20.425C25.2464 20.5603 25.8247 20.5074 26.34 20.275L35 16.225L33.9412 13.96L25.2938 17.9963L15.3013 15.5737C14.9263 15.4802 14.5347 15.4749 14.1573 15.5581C13.78 15.6414 13.427 15.8111 13.1263 16.0538L5 22.8525V16.1125L14.705 8.0025L24.6975 10.425C25.2464 10.5603 25.8247 10.5074 26.34 10.275L35 6.23125L33.9425 3.96625L25.295 7.99625L15.3025 5.57375C14.9275 5.4802 14.536 5.47486 14.1586 5.55815C13.7812 5.64143 13.4283 5.81107 13.1275 6.05375L5 12.8525V3H2.5V35.5C2.5 36.163 2.76339 36.7989 3.23223 37.2678C3.70107 37.7366 4.33696 38 5 38H37.5V35.5H5.7325Z" fill="#FF5A1F"/>
</svg>
