<svg width="22" height="22" viewBox="0 0 22 22" fill="none" xmlns="http://www.w3.org/2000/svg">
<path d="M2.4395 20L7.823 15.5015L13.8185 16.955C14.1478 17.0362 14.4948 17.0045 14.804 16.865L20 14.435L19.364 13.076L14.177 15.4977L8.1815 14.0443C7.95652 13.9881 7.72158 13.9849 7.49515 14.0349C7.26872 14.0849 7.05696 14.1866 6.8765 14.3323L2 18.4115V14.3675L7.823 9.5015L13.8185 10.955C14.1478 11.0362 14.4948 11.0045 14.804 10.865L20 8.435L19.3647 7.076L14.1763 9.49775L8.18075 8.04425C7.95577 7.98812 7.72083 7.98492 7.4944 8.03489C7.26797 8.08486 7.05621 8.18664 6.87575 8.33225L2 12.4115V8.3675L7.823 3.5015L13.8185 4.955C14.1478 5.03616 14.4948 5.00447 14.804 4.865L20 2.43875L19.3655 1.07975L14.177 3.49775L8.1815 2.04425C7.95652 1.98812 7.72158 1.98492 7.49515 2.03489C7.26872 2.08486 7.05696 2.18664 6.8765 2.33225L2 6.4115V0.5H0.5V20C0.5 20.3978 0.658035 20.7794 0.93934 21.0607C1.22064 21.342 1.60218 21.5 2 21.5H21.5V20H2.4395Z" fill="#FF5A1F"/>
</svg>
